# This file uses centimeters as units for non-parametric coordinates.

mtllib Marco.mtl
g default
v -0.575148 0.000000 0.203585
v -0.690178 0.000000 0.203585
v -0.690178 2.415630 0.203585
v -0.690178 2.415630 -0.189575
v -0.575148 0.000000 -0.189575
v -0.690178 0.000000 -0.189575
v -0.575148 2.300601 -0.189575
v -0.575148 2.300601 0.203585
v 0.575149 0.000000 0.203585
v 0.690178 0.000000 0.203585
v 0.690178 2.415630 0.203585
v 0.690178 2.415630 -0.189575
v 0.575149 0.000000 -0.189575
v 0.690178 0.000000 -0.189575
v 0.575149 2.300601 -0.189575
v 0.575149 2.300601 0.203585
vt 0.606295 0.216796
vt 0.393705 0.216796
vt 0.393705 0.155932
vt 0.606295 0.155932
vt 0.321344 0.795105
vt 0.587890 0.795105
vt 0.614082 0.824075
vt 0.295399 0.824075
vt 0.143664 0.355428
vt 0.143664 0.834378
vt 0.094234 0.834378
vt 0.094234 0.355428
vt 0.617249 0.275398
vt 0.643397 0.275398
vt 0.643397 0.794667
vt 0.617249 0.823637
vt 0.028520 0.216796
vt 0.028520 0.155932
vt 0.587890 0.275398
vt 0.614082 0.275398
vt 0.060203 0.316850
vt 0.060204 0.252305
vt 0.248770 0.252305
vt 0.248770 0.316850
vt 0.971480 0.155932
vt 0.971480 0.216796
vt 0.144538 0.355428
vt 0.195738 0.355428
vt 0.195738 0.817809
vt 0.144538 0.817809
vt 0.295399 0.277894
vt 0.321344 0.277894
vt 0.935933 0.823637
vt 0.909945 0.794667
vt 0.909945 0.277016
vt 0.935933 0.277016
vn 0.000000 1.000000 0.000000
vn 0.000000 1.000000 0.000000
vn 0.000000 1.000000 0.000000
vn 0.000000 1.000000 0.000000
vn 0.000000 0.000000 -1.000000
vn 0.000000 0.000000 -1.000000
vn 0.000000 0.000000 -1.000000
vn 0.000000 0.000000 -1.000000
vn 1.000000 0.000000 0.000000
vn 1.000000 0.000000 0.000000
vn 1.000000 0.000000 0.000000
vn 1.000000 0.000000 0.000000
vn 0.000000 0.000000 1.000000
vn 0.000000 0.000000 1.000000
vn 0.000000 0.000000 1.000000
vn 0.000000 0.000000 1.000000
vn -1.000000 0.000000 0.000000
vn -1.000000 0.000000 0.000000
vn -1.000000 0.000000 0.000000
vn -1.000000 0.000000 0.000000
vn 0.000000 0.000000 -1.000000
vn 0.000000 0.000000 -1.000000
vn 0.000000 0.000000 -1.000000
vn 0.000000 0.000000 -1.000000
vn 0.000000 -1.000000 0.000000
vn 0.000000 -1.000000 0.000000
vn 0.000000 -1.000000 0.000000
vn 0.000000 -1.000000 0.000000
vn 1.000000 -0.000000 0.000000
vn 1.000000 -0.000000 0.000000
vn 1.000000 -0.000000 0.000000
vn 1.000000 -0.000000 0.000000
vn -1.000000 0.000000 0.000000
vn -1.000000 0.000000 0.000000
vn -1.000000 0.000000 0.000000
vn -1.000000 0.000000 0.000000
vn 0.000000 0.000000 -1.000000
vn 0.000000 0.000000 -1.000000
vn 0.000000 0.000000 -1.000000
vn 0.000000 0.000000 -1.000000
vn 0.000000 0.000000 1.000000
vn 0.000000 0.000000 1.000000
vn 0.000000 0.000000 1.000000
vn 0.000000 0.000000 1.000000
vn 0.000000 0.000000 1.000000
vn 0.000000 0.000000 1.000000
vn 0.000000 0.000000 1.000000
vn 0.000000 0.000000 1.000000
s off
g Marco:marco_lp
usemtl initialShadingGroup
f 12/1/1 4/2/2 3/3/3 11/4/4
f 15/5/5 7/6/6 4/7/7 12/8/8
f 5/9/9 7/10/10 8/11/11 1/12/12
f 2/13/13 1/14/14 8/15/15 3/16/16
f 6/17/17 2/18/18 3/3/19 4/2/20
f 7/6/21 5/19/22 6/20/23 4/7/24
f 8/21/25 7/22/26 15/23/27 16/24/28
f 12/1/29 11/4/30 10/25/31 14/26/32
f 13/27/33 9/28/34 16/29/35 15/30/36
f 15/5/37 12/8/38 14/31/39 13/32/40
f 11/33/41 16/34/42 9/35/43 10/36/44
f 11/33/45 3/16/46 8/15/47 16/34/48
