# This file uses centimeters as units for non-parametric coordinates.

mtllib Linterna.mtl
g default
v 1.062209 0.814931 -0.220720
v 1.062209 0.653353 -0.382298
v 1.062209 0.432633 -0.441440
v 1.062209 0.211913 -0.382298
v 1.062209 0.050335 -0.220720
v 1.062209 -0.008807 0.000000
v 1.062209 0.050335 0.220720
v 1.062209 0.211913 0.382298
v 1.062209 0.432633 0.441440
v 1.062209 0.653353 0.382298
v 1.062209 0.814931 0.220720
v 1.062209 0.874073 0.000000
v -0.410581 0.814931 -0.220720
v -0.410581 0.653353 -0.382298
v -0.410581 0.432633 -0.441440
v -0.410581 0.211913 -0.382298
v -0.410581 0.050335 -0.220720
v -0.410581 -0.008807 0.000000
v -0.410581 0.050335 0.220720
v -0.410581 0.211913 0.382298
v -0.410583 0.432633 0.441440
v -0.410583 0.653353 0.382298
v -0.410583 0.814931 0.220720
v -0.410583 0.874073 0.000000
v -0.550217 0.871937 -0.253632
v -0.550217 0.686265 -0.439304
v -0.550217 0.432633 -0.507264
v -0.550217 0.179001 -0.439304
v -0.550217 -0.006670 -0.253632
v -0.550217 -0.074631 0.000000
v -0.550217 -0.006670 0.253632
v -0.550217 0.179001 0.439304
v -0.550217 0.432633 0.507264
v -0.550217 0.686265 0.439304
v -0.550217 0.871937 0.253632
v -0.550217 0.939897 0.000000
v -1.184388 0.916094 -0.281976
v -1.184388 0.686265 -0.439304
v -1.184388 0.432633 -0.507264
v -1.184388 0.179001 -0.439304
v -1.184388 -0.006670 -0.281976
v -1.184388 -0.074631 0.000000
v -1.184388 -0.006670 0.281976
v -1.184388 0.179001 0.439304
v -1.184388 0.432633 0.507264
v -1.184388 0.686265 0.439304
v -1.184388 0.916094 0.281976
v -1.358930 0.943193 -0.294772
v -1.358930 0.727405 -0.510560
v -1.358930 0.432633 -0.589544
v -1.358930 0.137861 -0.510560
v -1.358930 -0.077927 -0.294772
v -1.358930 -0.156911 0.000000
v -1.358930 -0.077927 0.294772
v -1.358930 0.137861 0.510560
v -1.358930 0.432633 0.589544
v -1.358930 0.727405 0.510560
v -1.358930 0.943193 0.294772
v -1.358930 1.022177 0.000000
v -2.429455 0.943193 -0.294772
v -2.429455 0.727405 -0.510560
v -2.429455 0.432633 -0.589544
v -2.429455 0.137861 -0.510560
v -2.429455 -0.077927 -0.294772
v -2.429455 -0.156911 0.000000
v -2.429455 -0.077927 0.294772
v -2.429455 0.137861 0.510560
v -2.429455 0.432633 0.589544
v -2.429455 0.727405 0.510560
v -2.429455 0.943193 0.294772
v -2.429455 1.022177 0.000000
v 1.062209 0.800680 -0.212492
v 1.062209 0.645125 -0.368047
v 1.062209 0.432633 -0.424984
v 1.062209 0.220141 -0.368047
v 1.062209 0.064586 -0.212492
v 1.062209 0.007649 0.000000
v 1.062209 0.064586 0.212492
v 1.062209 0.220141 0.368047
v 1.062209 0.432633 0.424984
v 1.062209 0.645125 0.368047
v 1.062209 0.800680 0.212492
v 1.062209 0.857617 0.000000
v 1.190207 0.800680 -0.212492
v 1.190207 0.645125 -0.368047
v 1.190207 0.432633 -0.424984
v 1.190207 0.220141 -0.368047
v 1.190207 0.064586 -0.212492
v 1.190207 0.007649 0.000000
v 1.190207 0.064586 0.212492
v 1.190207 0.220141 0.368047
v 1.190207 0.432633 0.424984
v 1.190207 0.645125 0.368047
v 1.190207 0.800680 0.212492
v 1.190207 0.857617 0.000000
v 1.190207 0.772177 -0.196036
v 1.190207 0.628669 -0.339544
v 1.190207 0.432633 -0.392072
v 1.190207 0.236597 -0.339544
v 1.190207 0.093089 -0.196036
v 1.190207 0.040561 0.000000
v 1.190207 0.093089 0.196036
v 1.190207 0.236597 0.339544
v 1.190207 0.432633 0.392072
v 1.190207 0.628669 0.339544
v 1.190207 0.772177 0.196036
v 1.190207 0.824705 0.000000
v 1.324022 0.772177 -0.196036
v 1.324022 0.628669 -0.339544
v 1.324022 0.432633 -0.392072
v 1.324022 0.236597 -0.339544
v 1.324022 0.093089 -0.196036
v 1.324022 0.040561 0.000000
v 1.324022 0.093089 0.196036
v 1.324022 0.236597 0.339544
v 1.324022 0.432633 0.392072
v 1.324022 0.628669 0.339544
v 1.324022 0.772177 0.196036
v 1.324022 0.824705 0.000000
v -2.052430 0.943193 0.294772
v -2.052430 0.727405 0.510560
v -2.052430 0.432633 0.589544
v -2.052430 0.137861 0.510560
v -2.052430 -0.077927 0.294772
v -2.052430 -0.156911 0.000000
v -2.052430 -0.077927 -0.294772
v -2.052430 0.137861 -0.510560
v -2.052430 0.432633 -0.589544
v -2.052430 0.727405 -0.510560
v -2.052430 0.943193 -0.294772
v -2.052430 1.022177 0.000000
v -2.081300 0.727405 0.510560
v -2.081300 0.432633 0.589544
v -2.081300 0.137861 0.510560
v -2.081300 -0.077927 0.294772
v -2.081300 -0.156911 0.000000
v -2.081300 -0.077927 -0.294772
v -2.081300 0.137861 -0.510560
v -2.081300 0.432633 -0.589544
v -2.081300 0.727405 -0.510560
v -2.081300 0.943193 -0.294772
v -2.081300 1.022177 0.000000
v -2.081300 0.943193 0.294772
v -2.052999 0.923069 0.283153
v -2.052999 0.715786 0.490436
v -2.080731 0.923069 0.283153
v -2.080731 0.715786 0.490436
v -2.052999 0.432633 0.566307
v -2.080731 0.432633 0.566307
v -2.052999 0.149480 0.490436
v -2.080731 0.149480 0.490436
v -2.052999 -0.057803 0.283153
v -2.080731 -0.057803 0.283153
v -2.052999 -0.133674 0.000000
v -2.080731 -0.133674 0.000000
v -2.052999 -0.057803 -0.283153
v -2.080731 -0.057803 -0.283153
v -2.052999 0.149480 -0.490436
v -2.080731 0.149480 -0.490436
v -2.052999 0.432633 -0.566307
v -2.080731 0.432633 -0.566307
v -2.052999 0.715786 -0.490436
v -2.080731 0.715786 -0.490436
v -2.052999 0.923069 -0.283153
v -2.080731 0.923069 -0.283153
v -2.052999 0.998940 0.000000
v -2.080731 0.998940 0.000000
v -2.429455 0.847122 -0.239306
v -2.429455 0.671939 -0.414489
v -2.429455 0.432633 -0.478612
v -2.429455 0.193327 -0.414489
v -2.429455 0.018144 -0.239306
v -2.429455 -0.045979 0.000000
v -2.429455 0.018144 0.239306
v -2.429455 0.193327 0.414489
v -2.429455 0.432633 0.478612
v -2.429455 0.671939 0.414489
v -2.429455 0.847122 0.239306
v -2.429455 0.911245 0.000000
v -2.237658 0.847122 -0.239306
v -2.237658 0.671939 -0.414489
v -2.237658 0.432633 -0.478612
v -2.237658 0.193327 -0.414489
v -2.237658 0.018144 -0.239306
v -2.237658 -0.045979 0.000000
v -2.237658 0.018144 0.239306
v -2.237658 0.193327 0.414489
v -2.237658 0.432633 0.478612
v -2.237658 0.671939 0.414489
v -2.237658 0.847122 0.239306
v -2.237658 0.911245 0.000000
v -2.237658 0.432633 0.000000
v -1.183794 0.979972 0.000000
v 1.324022 0.798441 0.098018
v 1.190207 0.798441 0.098018
v 1.190207 0.829149 0.106246
v 1.062209 0.829149 0.106246
v 1.062209 0.844502 0.110360
v -0.410583 0.844502 0.110360
v -0.550217 0.905917 0.126816
v -1.184091 0.948033 0.140988
v -1.358930 0.982685 0.147386
v -2.052430 0.982685 0.147386
v -2.052999 0.961004 0.141577
v -2.080731 0.961004 0.141577
v -2.081300 0.982685 0.147386
v -2.429455 0.982685 0.147386
v -2.429455 0.879183 0.119653
v -2.237658 0.879183 0.119653
v 1.324022 0.798441 -0.098018
v 1.190207 0.798441 -0.098018
v 1.190207 0.829149 -0.106246
v 1.062209 0.829149 -0.106246
v 1.062209 0.844502 -0.110360
v -0.410582 0.844502 -0.110360
v -0.550217 0.905917 -0.126816
v -1.184091 0.948033 -0.140988
v -1.358930 0.982685 -0.147386
v -2.052430 0.982685 -0.147386
v -2.052999 0.961004 -0.141577
v -2.080731 0.961004 -0.141577
v -2.081300 0.982685 -0.147386
v -2.429455 0.982685 -0.147386
v -2.429455 0.879183 -0.119653
v -2.237658 0.879183 -0.119653
v -1.162019 0.866854 0.000000
v -1.162296 0.866853 -0.131293
v -0.572012 0.866853 0.000000
v -0.572012 0.866853 -0.118095
v -1.162296 0.866853 0.131293
v -0.572012 0.866853 0.118095
v 1.324023 0.432633 0.000000
v -1.153976 0.934753 -0.128682
v -0.580332 0.934753 -0.115747
v -0.580332 0.934753 0.000000
v -0.580332 0.934753 0.115747
v -1.153976 0.934753 0.128682
v -1.153708 0.934754 0.000000
vt 0.592872 0.084977
vt 0.627922 0.083897
vt 0.640521 0.319001
vt 0.599924 0.321371
vt 0.663089 0.081438
vt 0.680683 0.315928
vt 0.698367 0.077396
vt 0.720265 0.312036
vt 0.733782 0.071382
vt 0.758930 0.307141
vt 0.769324 0.062420
vt 0.320415 0.302885
vt 0.382029 0.071067
vt 0.357870 0.308689
vt 0.417316 0.077132
vt 0.396670 0.313189
vt 0.452547 0.081334
vt 0.436233 0.316690
vt 0.487737 0.083968
vt 0.476313 0.319269
vt 0.522906 0.085216
vt 0.516843 0.320947
vt 0.540417 0.084793
vt 0.537449 0.321299
vt 0.557902 0.085367
vt 0.575383 0.084677
vt 0.579303 0.321502
vt 0.558373 0.321681
vt 0.643103 0.343544
vt 0.602868 0.345919
vt 0.683754 0.340618
vt 0.724276 0.336922
vt 0.764644 0.331888
vt 0.311310 0.325849
vt 0.352205 0.333026
vt 0.392599 0.337891
vt 0.432998 0.341425
vt 0.473456 0.344029
vt 0.513667 0.346241
vt 0.533412 0.346228
vt 0.583094 0.346189
vt 0.558351 0.344653
vt 0.652791 0.446004
vt 0.608030 0.448645
vt 0.695748 0.443250
vt 0.739161 0.439256
vt 0.779642 0.435096
vt 0.290769 0.428372
vt 0.337597 0.436320
vt 0.377934 0.440821
vt 0.421461 0.444130
vt 0.464583 0.446251
vt 0.509308 0.448913
vt 0.652398 0.476554
vt 0.606458 0.476770
vt 0.697690 0.474141
vt 0.743157 0.470263
vt 0.789349 0.464999
vt 0.280323 0.459511
vt 0.327779 0.466079
vt 0.373768 0.471166
vt 0.419209 0.475064
vt 0.464625 0.477412
vt 0.510795 0.477293
vt 0.655735 0.587283
vt 0.607223 0.588434
vt 0.704116 0.584883
vt 0.752458 0.581336
vt 0.800797 0.577025
vt 0.267560 0.574324
vt 0.316550 0.578832
vt 0.365158 0.582919
vt 0.413694 0.586032
vt 0.462178 0.587961
vt 0.510503 0.588649
vt 0.534310 0.477410
vt 0.534669 0.588947
vt 0.558628 0.478411
vt 0.582916 0.477166
vt 0.583082 0.588825
vt 0.558873 0.588673
vt 0.592928 0.082464
vt 0.627786 0.081392
vt 0.662835 0.078960
vt 0.697971 0.074941
vt 0.733162 0.068912
vt 0.767683 0.059842
vt 0.382675 0.068620
vt 0.417759 0.074689
vt 0.452852 0.078864
vt 0.487917 0.081460
vt 0.522858 0.082645
vt 0.540433 0.082212
vt 0.557898 0.082802
vt 0.575359 0.082105
vt 0.592252 0.061918
vt 0.626506 0.061040
vt 0.660479 0.058838
vt 0.694230 0.055013
vt 0.727589 0.049028
vt 0.760704 0.038708
vt 0.388238 0.048632
vt 0.421460 0.054835
vt 0.455177 0.058798
vt 0.489172 0.061108
vt 0.523450 0.062079
vt 0.540637 0.061400
vt 0.557858 0.062160
vt 0.575147 0.061324
vt 0.592412 0.056846
vt 0.626267 0.055996
vt 0.659954 0.053833
vt 0.693336 0.050041
vt 0.726132 0.044040
vt 0.757487 0.034038
vt 0.389778 0.043709
vt 0.422483 0.049896
vt 0.455824 0.053812
vt 0.489520 0.056055
vt 0.523328 0.056862
vt 0.540681 0.056362
vt 0.557848 0.056909
vt 0.575158 0.056306
vt 0.870061 0.165474
vt 0.905786 0.170829
vt 0.939401 0.157604
vt 0.961900 0.129343
vt 0.967255 0.093619
vt 0.954030 0.060004
vt 0.925770 0.037505
vt 0.890045 0.032150
vt 0.856430 0.045375
vt 0.833931 0.073635
vt 0.828576 0.109359
vt 0.835188 0.126167
vt 0.841801 0.142975
vt 0.855931 0.154225
vt 0.462031 0.591514
vt 0.510256 0.592239
vt 0.510172 0.596746
vt 0.461883 0.595956
vt 0.413492 0.589585
vt 0.413272 0.594027
vt 0.364895 0.586486
vt 0.364598 0.590943
vt 0.316261 0.582451
vt 0.315907 0.586965
vt 0.848628 0.576480
vt 0.849009 0.580939
vt 0.801030 0.580637
vt 0.801358 0.585155
vt 0.752660 0.584911
vt 0.752941 0.589372
vt 0.704262 0.588440
vt 0.704475 0.592884
vt 0.655829 0.590835
vt 0.655974 0.595278
vt 0.607481 0.592041
vt 0.607590 0.596519
vt 0.558889 0.592343
vt 0.583127 0.592361
vt 0.583187 0.596728
vt 0.558910 0.596910
vt 0.534650 0.592484
vt 0.534624 0.596849
vt 0.413073 0.597602
vt 0.461747 0.599532
vt 0.567863 0.847949
vt 0.606090 0.886538
vt 0.364337 0.594526
vt 0.658490 0.900843
vt 0.315594 0.590570
vt 0.711022 0.887032
vt 0.850311 0.584491
vt 0.749610 0.848806
vt 0.801618 0.588778
vt 0.763915 0.796406
vt 0.753143 0.592958
vt 0.750104 0.743874
vt 0.704622 0.596463
vt 0.711878 0.705286
vt 0.656065 0.598856
vt 0.659478 0.690981
vt 0.607476 0.600100
vt 0.606946 0.704792
vt 0.558927 0.600574
vt 0.583233 0.600267
vt 0.587652 0.723905
vt 0.568358 0.743018
vt 0.510289 0.600390
vt 0.534606 0.600386
vt 0.561205 0.769218
vt 0.554052 0.795418
vt 0.602611 0.966913
vt 0.646724 0.966913
vt 0.558499 0.966913
vt 0.514386 0.966913
vt 0.470273 0.966913
vt 0.953926 0.966913
vt 0.910082 0.966913
vt 0.866239 0.966913
vt 0.822395 0.966913
vt 0.778552 0.966913
vt 0.734708 0.966913
vt 0.712976 0.966913
vt 0.668634 0.966913
vt 0.690864 0.966913
vt 0.807019 0.870879
vt 0.848365 0.886298
vt 0.778873 0.836870
vt 0.771473 0.793355
vt 0.786806 0.751978
vt 0.821314 0.723568
vt 0.864853 0.716457
vt 0.906124 0.732071
vt 0.934077 0.766231
vt 0.941235 0.809793
vt 0.925707 0.851098
vt 0.712976 0.932986
vt 0.668634 0.932986
vt 0.891382 0.878247
vt 0.856332 0.801236
vt 0.558584 0.452370
vt 0.585519 0.448450
vt 0.531818 0.448552
vt 0.575700 0.437111
vt 0.558307 0.439445
vt 0.558644 0.355644
vt 0.573202 0.357612
vt 0.540653 0.437512
vt 0.544346 0.357916
vt 0.558515 0.446088
vt 0.583288 0.442682
vt 0.579421 0.352348
vt 0.558381 0.348464
vt 0.534022 0.442821
vt 0.537096 0.352453
vt 0.897915 0.101489
vt 0.750240 0.013665
vt 0.365936 0.012852
vt 0.954030 0.060004
vt 0.646724 0.932986
vt 0.601074 0.737454
vt 0.616738 0.721937
vt 0.583848 0.656393
vt 0.608553 0.656241
vt 0.575133 0.034903
vt 0.592281 0.035107
vt 0.579604 0.774241
vt 0.585411 0.752971
vt 0.534593 0.656451
vt 0.559221 0.656532
vt 0.540712 0.034973
vt 0.558042 0.035048
vt 0.953926 0.932986
vt 0.426161 0.932986
vt 0.820765 0.723818
vt 0.734708 0.932986
vt 0.778552 0.932986
vt 0.822395 0.932986
vt 0.866239 0.932986
vt 0.910082 0.932986
vt 0.470273 0.932986
vt 0.732557 0.838853
vt 0.732557 0.838853
vt 0.426161 0.966913
vt 0.514386 0.932986
vt 0.558499 0.932986
vt 0.602611 0.932986
vt 0.573797 0.795511
vt 0.585009 0.838158
vt 0.616043 0.869485
vt 0.658583 0.881099
vt 0.701230 0.869886
vt 0.744171 0.796313
vt 0.262301 0.642717
vt 0.855035 0.640620
vt 0.749610 0.848806
vt 0.732958 0.753666
vt 0.701925 0.722339
vt 0.659385 0.710725
vt 0.268300 0.578098
vt 0.267980 0.582598
vt 0.266723 0.586145
vt 0.849307 0.572778
vt 0.523721 0.035250
vt 0.490577 0.034630
vt 0.458206 0.032583
vt 0.426624 0.028904
vt 0.396107 0.022825
vt 0.720140 0.023205
vt 0.358720 0.033681
vt 0.689264 0.028963
vt 0.657547 0.032536
vt 0.625205 0.034531
vt 0.355579 0.038282
vt 0.348352 0.059731
vt 0.346774 0.062314
vt 0.509936 0.656343
vt 0.460435 0.655518
vt 0.410809 0.653600
vt 0.361169 0.650597
vt 0.311648 0.646802
vt 0.806068 0.644804
vt 0.837313 0.458479
vt 0.756931 0.648930
vt 0.707564 0.652421
vt 0.658024 0.654910
vt 0.826636 0.427283
vt 0.805563 0.324666
vt 0.795978 0.301090
vt 0.908395 0.864501
vt 0.690864 0.932986
vt 0.869843 0.882048
vn 0.009101 0.818077 -0.575037
vn 0.009137 0.499979 -0.865989
vn 0.046302 0.499464 -0.865097
vn 0.046119 0.817240 -0.574449
vn 0.009137 0.000000 -0.999958
vn 0.046302 0.000000 -0.998928
vn 0.009137 -0.499979 -0.865989
vn 0.046302 -0.499464 -0.865097
vn 0.009137 -0.865989 -0.499979
vn 0.046302 -0.865097 -0.499464
vn 0.009137 -0.999958 -0.000000
vn 0.046302 -0.998928 0.000000
vn 0.009137 -0.865989 0.499979
vn 0.046302 -0.865097 0.499464
vn 0.009137 -0.499979 0.865989
vn 0.046302 -0.499463 0.865097
vn 0.009137 0.000000 0.999958
vn 0.046302 0.000001 0.998927
vn 0.009137 0.499979 0.865989
vn 0.046302 0.499464 0.865097
vn 0.009101 0.818077 0.575037
vn 0.046119 0.817240 0.574449
vn 0.010591 0.965872 0.258804
vn 0.042063 0.965071 0.258590
vn 0.009137 0.999958 0.000000
vn 0.010591 0.965872 -0.258804
vn 0.042063 0.965071 -0.258589
vn 0.046302 0.998927 0.000001
vn 0.091028 0.464973 -0.880633
vn 0.117927 0.785465 -0.607567
vn 0.075516 -0.000000 -0.997145
vn 0.083270 -0.480428 -0.873072
vn 0.084395 -0.865852 -0.493131
vn 0.076912 -0.997038 0.000000
vn 0.084395 -0.865852 0.493131
vn 0.083270 -0.480428 0.873072
vn 0.075516 -0.000000 0.997145
vn 0.091028 0.464973 0.880633
vn 0.117927 0.785465 0.607567
vn 0.178525 0.952015 0.248588
vn 0.178525 0.952015 -0.248587
vn 0.411842 0.911255 0.000000
vn 0.020413 0.460562 -0.887393
vn 0.053496 0.784330 -0.618033
vn 0.000000 -0.000000 -1.000000
vn 0.008293 -0.478589 -0.878000
vn 0.011305 -0.862526 -0.505886
vn 0.005671 -0.999984 0.000000
vn 0.011305 -0.862526 0.505886
vn 0.008293 -0.478589 0.878000
vn 0.000000 -0.000000 1.000000
vn 0.020413 0.460562 0.887393
vn 0.053496 0.784330 0.618033
vn 0.270285 0.756134 -0.595992
vn 0.365656 0.427140 -0.826950
vn 0.364233 0.431731 -0.825193
vn 0.269250 0.760330 -0.591104
vn 0.426401 -0.000000 -0.904534
vn 0.426401 -0.000000 -0.904534
vn 0.402153 -0.437630 -0.804209
vn 0.401913 -0.439746 -0.803174
vn 0.396732 -0.783923 -0.477565
vn 0.399160 -0.805273 -0.438414
vn 0.409732 -0.912206 0.000000
vn 0.409732 -0.912206 0.000000
vn 0.396732 -0.783923 0.477565
vn 0.399160 -0.805273 0.438414
vn 0.402153 -0.437630 0.804209
vn 0.401913 -0.439746 0.803174
vn 0.426401 -0.000000 0.904534
vn 0.426401 -0.000000 0.904534
vn 0.365656 0.427140 0.826951
vn 0.364233 0.431731 0.825193
vn 0.270285 0.756134 0.595992
vn 0.269250 0.760329 0.591104
vn 0.000000 0.818110 -0.575061
vn 0.000000 0.500000 -0.866025
vn 0.000000 0.500000 -0.866025
vn 0.000000 0.818110 -0.575061
vn 0.000000 0.000000 -1.000000
vn 0.000000 -0.000000 -1.000000
vn 0.000000 -0.500000 -0.866025
vn 0.000000 -0.500000 -0.866025
vn 0.000000 -0.866025 -0.500000
vn 0.000000 -0.866025 -0.500000
vn 0.000000 -1.000000 0.000000
vn 0.000000 -1.000000 0.000000
vn 0.000000 -0.866025 0.500000
vn 0.000000 -0.866025 0.500000
vn 0.000000 -0.500000 0.866025
vn 0.000000 -0.500000 0.866025
vn 0.000000 0.000000 1.000000
vn 0.000000 -0.000000 1.000000
vn 0.000000 0.500000 0.866025
vn 0.000000 0.500000 0.866025
vn 0.000000 0.818110 0.575061
vn 0.000000 0.818110 0.575061
vn 0.000000 0.965926 0.258819
vn 0.000000 0.965926 0.258819
vn 0.000000 1.000000 0.000000
vn 0.000000 0.965926 -0.258819
vn 0.000000 0.965926 -0.258819
vn 0.000000 1.000000 0.000000
vn 0.150553 0.808785 -0.568507
vn 0.151139 0.494256 -0.856077
vn 0.151139 0.000000 -0.988513
vn 0.151139 -0.494256 -0.856077
vn 0.151140 -0.856077 -0.494256
vn 0.151140 -0.988512 0.000000
vn 0.151140 -0.856077 0.494256
vn 0.151139 -0.494256 0.856077
vn 0.151139 -0.000000 0.988513
vn 0.151139 0.494256 0.856077
vn 0.150553 0.808786 0.568507
vn 0.125585 0.958278 0.256770
vn 0.151138 0.988513 0.000000
vn 0.125585 0.958278 -0.256770
vn 0.200975 0.801418 -0.563328
vn 0.201743 0.489719 -0.848219
vn 0.201743 0.000000 -0.979439
vn 0.201743 -0.489719 -0.848219
vn 0.201743 -0.848219 -0.489719
vn 0.201742 -0.979439 0.000000
vn 0.201743 -0.848219 0.489719
vn 0.201743 -0.489719 0.848219
vn 0.201743 -0.000000 0.979439
vn 0.201743 0.489719 0.848219
vn 0.200975 0.801418 0.563328
vn 0.232224 0.939520 0.251744
vn 0.201743 0.979439 0.000000
vn 0.232224 0.939520 -0.251744
vn 0.285413 0.784081 -0.551141
vn 0.286456 0.479047 -0.829733
vn 0.286456 -0.000000 -0.958093
vn 0.286456 -0.479047 -0.829733
vn 0.286455 -0.829733 -0.479047
vn 0.286456 -0.958094 -0.000000
vn 0.286456 -0.829733 0.479047
vn 0.286456 -0.479047 0.829733
vn 0.286456 -0.000000 0.958093
vn 0.286456 0.479047 0.829733
vn 0.285413 0.784081 0.551141
vn 0.240289 0.937625 0.251237
vn 0.286456 0.958093 0.000000
vn 0.240289 0.937625 -0.251237
vn 0.772362 0.519650 -0.365269
vn 0.773598 0.316838 -0.548780
vn 0.773598 0.000000 -0.633677
vn 0.773598 -0.316839 -0.548780
vn 0.773598 -0.548780 -0.316838
vn 0.773598 -0.633677 -0.000000
vn 0.773598 -0.548781 0.316838
vn 0.773598 -0.316839 0.548780
vn 0.773598 0.000000 0.633677
vn 0.773598 0.316838 0.548780
vn 0.772362 0.519650 0.365269
vn 0.816658 0.557457 0.149371
vn 0.773598 0.633677 0.000000
vn 0.816658 0.557457 -0.149371
vn 0.000000 0.499999 0.866026
vn 0.000000 0.818110 0.575062
vn 0.696242 0.587244 0.412784
vn 0.697666 0.358211 0.620442
vn 0.000000 -0.000002 1.000000
vn 0.697664 -0.000001 0.716425
vn 0.000000 -0.500001 0.866025
vn 0.697662 -0.358214 0.620443
vn 0.000000 -0.866025 0.500000
vn 0.697663 -0.620443 0.358213
vn 0.000000 -1.000000 0.000000
vn 0.697663 -0.716426 0.000000
vn 0.000000 -0.866025 -0.500000
vn 0.697663 -0.620443 -0.358213
vn 0.000000 -0.500001 -0.866025
vn 0.697663 -0.358214 -0.620443
vn 0.000000 -0.000002 -1.000000
vn 0.697664 -0.000001 -0.716425
vn 0.000000 0.499999 -0.866026
vn 0.697665 0.358212 -0.620441
vn 0.000000 0.818110 -0.575062
vn 0.696242 0.587245 -0.412784
vn 0.000000 1.000000 0.000000
vn 0.000000 0.965926 -0.258819
vn 0.628976 0.750934 -0.201213
vn 0.697666 0.716423 0.000000
vn 0.000000 0.965926 0.258819
vn 0.628976 0.750934 0.201213
vn 0.000000 0.000000 1.000000
vn 0.000000 0.500000 0.866025
vn 0.000000 0.500000 0.866025
vn 0.000000 0.000000 1.000000
vn 0.000000 -0.500000 0.866025
vn 0.000000 -0.500000 0.866025
vn 0.000000 -0.866025 0.500000
vn 0.000000 -0.866025 0.500000
vn 0.000000 -1.000000 0.000000
vn 0.000000 -1.000000 0.000000
vn 0.000000 -0.866025 -0.500000
vn 0.000000 -0.866025 -0.500000
vn 0.000000 -0.500000 -0.866025
vn 0.000000 -0.500000 -0.866025
vn 0.000000 0.000000 -1.000000
vn 0.000000 0.000000 -1.000000
vn 0.000000 0.500000 -0.866025
vn 0.000000 0.500000 -0.866025
vn 0.000000 0.818110 -0.575061
vn 0.000000 0.818110 -0.575061
vn 0.000000 1.000000 0.000000
vn 0.000000 0.965926 -0.258819
vn 0.000000 0.965926 -0.258819
vn 0.000000 1.000000 0.000000
vn 0.000000 0.818110 0.575061
vn 0.000000 0.965926 0.258819
vn 0.000000 0.965926 0.258819
vn 0.000000 0.818110 0.575061
vn -0.999700 0.012243 0.021203
vn -0.999698 0.020108 0.014136
vn -0.999698 0.020108 0.014136
vn -0.999700 0.012243 0.021203
vn 0.999698 0.020099 0.014130
vn 0.999700 0.012236 0.021195
vn -0.999700 0.000002 0.024481
vn -0.999700 0.000002 0.024481
vn 0.999701 0.000000 0.024473
vn -0.999701 -0.012235 0.021197
vn -0.999700 -0.012235 0.021197
vn 0.999700 -0.012237 0.021195
vn -0.999700 -0.021193 0.012237
vn -0.999701 -0.021193 0.012237
vn 0.999701 -0.021194 0.012237
vn -0.999700 -0.024472 -0.000000
vn -0.999701 -0.024472 -0.000000
vn 0.999700 -0.024473 0.000000
vn -0.999700 -0.021192 -0.012237
vn -0.999701 -0.021192 -0.012237
vn 0.999701 -0.021194 -0.012237
vn -0.999700 -0.012236 -0.021197
vn -0.999700 -0.012236 -0.021197
vn 0.999700 -0.012236 -0.021195
vn -0.999700 0.000002 -0.024481
vn -0.999700 0.000002 -0.024481
vn 0.999701 -0.000000 -0.024473
vn -0.999700 0.012243 -0.021203
vn -0.999700 0.012243 -0.021203
vn 0.999700 0.012237 -0.021195
vn -0.999698 0.020108 -0.014136
vn -0.999698 0.020108 -0.014136
vn 0.999698 0.020101 -0.014130
vn -0.999700 0.024483 0.000000
vn -0.999679 0.024478 -0.006560
vn -0.999679 0.024478 -0.006560
vn -0.999700 0.024483 0.000000
vn 0.999679 0.024471 -0.006557
vn 0.999701 0.024473 0.000000
vn -0.999679 0.024479 0.006560
vn -0.999679 0.024479 0.006560
vn 0.999679 0.024471 0.006557
vn -1.000000 -0.000000 0.000000
vn -1.000000 -0.000001 0.000000
vn -1.000000 -0.000001 0.000000
vn -1.000000 -0.000000 0.000000
vn -1.000000 0.000000 0.000000
vn -1.000000 0.000000 0.000000
vn -1.000000 0.000000 0.000000
vn -1.000000 0.000000 0.000000
vn -1.000000 -0.000001 0.000000
vn -1.000000 -0.000001 0.000000
vn -1.000000 -0.000000 0.000000
vn -1.000000 -0.000000 0.000000
vn -1.000000 0.000000 0.000000
vn -1.000000 0.000000 0.000000
vn -1.000000 0.000001 0.000000
vn -1.000000 0.000001 0.000000
vn -1.000000 -0.000000 0.000000
vn -1.000000 -0.000000 0.000000
vn -1.000000 -0.000000 0.000000
vn -1.000000 -0.000000 0.000000
vn -1.000000 0.000001 0.000000
vn -1.000000 0.000001 0.000000
vn -1.000000 0.000001 0.000000
vn -1.000000 0.000001 0.000000
vn -1.000000 0.000000 0.000000
vn -1.000000 0.000000 0.000000
vn -1.000000 0.000000 0.000000
vn -1.000000 0.000000 0.000000
vn 0.000000 -0.818110 0.575062
vn 0.000000 -0.500001 0.866025
vn 0.000000 -0.500001 0.866025
vn 0.000000 -0.818110 0.575062
vn 0.000000 0.000000 1.000000
vn 0.000000 0.000000 1.000000
vn 0.000000 0.500001 0.866025
vn 0.000000 0.500001 0.866025
vn 0.000000 0.866025 0.500001
vn 0.000000 0.866025 0.500001
vn 0.000000 1.000000 0.000000
vn 0.000000 1.000000 0.000000
vn 0.000000 0.866025 -0.500001
vn 0.000000 0.866025 -0.500001
vn 0.000000 0.500001 -0.866025
vn 0.000000 0.500001 -0.866025
vn 0.000000 0.000000 -1.000000
vn 0.000000 0.000000 -1.000000
vn 0.000000 -0.500001 -0.866025
vn 0.000000 -0.500001 -0.866025
vn 0.000000 -0.818110 -0.575062
vn 0.000000 -0.818110 -0.575062
vn 0.000000 -0.965925 -0.258822
vn 0.000000 -0.965925 -0.258822
vn 0.000000 -1.000000 0.000000
vn 0.000000 -0.965925 0.258822
vn 0.000000 -0.965925 0.258822
vn 0.000000 -1.000000 0.000000
vn -1.000000 -0.000000 0.000000
vn -1.000000 0.000001 0.000000
vn -1.000000 0.000000 -0.000000
vn -1.000000 0.000001 0.000000
vn -1.000000 0.000001 0.000000
vn -1.000000 0.000001 0.000000
vn -1.000000 -0.000000 0.000000
vn -1.000000 -0.000000 -0.000000
vn -1.000000 -0.000001 -0.000000
vn -1.000000 -0.000001 -0.000000
vn -1.000000 -0.000001 -0.000000
vn -1.000000 -0.000001 -0.000000
vn -1.000000 0.000000 -0.000000
vn -1.000000 -0.000000 -0.000000
vn -1.000000 -0.000000 0.000000
vn 0.197377 0.951522 -0.235897
vn 0.218713 0.975789 0.000000
vn 0.302657 0.953100 0.000000
vn 0.242234 0.943446 -0.226347
vn 0.197377 0.951522 0.235897
vn 0.242234 0.943445 0.226348
vn 0.000001 1.000000 -0.000003
vn 0.000001 1.000000 0.000000
vn 0.000001 1.000000 0.000000
vn 0.000001 1.000000 -0.000003
vn 0.073075 0.966048 0.247812
vn 0.000001 1.000000 0.000003
vn 0.000001 1.000000 0.000003
vn 0.073075 0.966048 -0.247812
vn 0.705815 0.708396 0.000000
vn 0.703256 0.705828 -0.085072
vn 0.124900 0.882473 -0.453476
vn 0.345047 0.938585 0.000000
vn 0.041438 0.831784 -0.553550
vn 0.703256 0.705828 0.085072
vn 0.124900 0.882474 0.453474
vn 0.041438 0.831786 0.553548
vn 1.000000 -0.000000 0.000000
vn -0.022431 -0.036489 0.999082
vn -0.022431 -0.036489 0.999082
vn -0.022431 -0.036489 0.999082
vn -0.022431 -0.036489 0.999082
vn -0.992577 -0.121620 0.000000
vn -0.992577 -0.121619 0.000000
vn -0.992577 -0.121619 0.000000
vn -0.992577 -0.121620 0.000000
vn -0.992577 -0.121620 -0.000000
vn -0.992577 -0.121620 -0.000000
vn -0.022431 -0.036489 -0.999082
vn -0.022431 -0.036489 -0.999082
vn -0.022431 -0.036489 -0.999082
vn -0.022431 -0.036489 -0.999082
vn 0.992589 -0.121523 -0.000000
vn 0.992586 -0.121523 0.002082
vn 0.992586 -0.121523 0.002082
vn 0.992589 -0.121523 -0.000000
vn 0.992587 -0.121522 -0.002082
vn 0.992587 -0.121522 -0.002082
s 1
g pCylinder1 LP1
usemtl initialShadingGroup
f 1/1/1 2/2/2 14/3/3 13/4/4
f 2/2/2 3/5/5 15/6/6 14/3/3
f 3/5/5 4/7/7 16/8/8 15/6/6
f 4/7/7 5/9/9 17/10/10 16/8/8
f 5/9/9 6/11/11 18/311/12 17/10/10
f 6/298/11 7/13/13 19/14/14 18/12/12
f 7/13/13 8/15/15 20/16/16 19/14/14
f 8/15/15 9/17/17 21/18/18 20/16/16
f 9/17/17 10/19/19 22/20/20 21/18/18
f 10/19/19 11/21/21 23/22/22 22/20/20
f 11/21/21 198/23/23 199/24/24 23/22/22
f 12/25/25 214/26/26 215/27/27 24/28/28
f 13/4/4 14/3/3 26/29/29 25/30/30
f 14/3/3 15/6/6 27/31/31 26/29/29
f 15/6/6 16/8/8 28/32/32 27/31/31
f 16/8/8 17/10/10 29/33/33 28/32/32
f 17/10/10 18/311/12 30/310/34 29/33/33
f 18/12/12 19/14/14 31/35/35 30/34/34
f 19/14/14 20/16/16 32/36/36 31/35/35
f 20/16/16 21/18/18 33/37/37 32/36/36
f 21/18/18 22/20/20 34/38/38 33/37/37
f 22/20/20 23/22/22 35/39/39 34/38/38
f 23/22/22 199/24/24 200/40/40 35/39/39
f 24/28/28 215/27/27 216/41/41 36/42/42
f 25/30/30 26/29/29 38/43/43 37/44/44
f 26/29/29 27/31/31 39/45/45 38/43/43
f 27/31/31 28/32/32 40/46/46 39/45/45
f 28/32/32 29/33/33 41/47/47 40/46/46
f 29/33/33 30/310/34 42/309/48 41/47/47
f 30/34/34 31/35/35 43/49/49 42/48/48
f 31/35/35 32/36/36 44/50/50 43/49/49
f 32/36/36 33/37/37 45/51/51 44/50/50
f 33/37/37 34/38/38 46/52/52 45/51/51
f 34/38/38 35/39/39 47/53/53 46/52/52
s 3
f 37/44/54 38/43/55 49/54/56 48/55/57
f 38/43/55 39/45/58 50/56/59 49/54/56
f 39/45/58 40/46/60 51/57/61 50/56/59
f 40/46/60 41/47/62 52/58/63 51/57/61
f 41/47/62 42/309/64 53/305/65 52/58/63
f 42/48/64 43/49/66 54/60/67 53/59/65
f 43/49/66 44/50/68 55/61/69 54/60/67
f 44/50/68 45/51/70 56/62/71 55/61/69
f 45/51/70 46/52/72 57/63/73 56/62/71
f 46/52/72 47/53/74 58/64/75 57/63/73
s 4
f 48/55/76 49/54/77 129/65/78 130/66/79
f 49/54/77 50/56/80 128/67/81 129/65/78
f 50/56/80 51/57/82 127/68/83 128/67/81
f 51/57/82 52/58/84 126/69/85 127/68/83
f 52/58/84 53/305/86 125/285/87 126/69/85
f 53/59/86 54/60/88 124/71/89 125/70/87
f 54/60/88 55/61/90 123/72/91 124/71/89
f 55/61/90 56/62/92 122/73/93 123/72/91
f 56/62/92 57/63/94 121/74/95 122/73/93
f 57/63/94 58/64/96 120/75/97 121/74/95
f 58/64/96 202/76/98 203/77/99 120/75/97
f 59/78/100 218/79/101 219/80/102 131/81/103
s 1
f 2/2/2 1/1/1 72/82/104 73/83/105
f 3/5/5 2/2/2 73/83/105 74/84/106
f 4/7/7 3/5/5 74/84/106 75/85/107
f 5/9/9 4/7/7 75/85/107 76/86/108
f 6/11/11 5/9/9 76/86/108 77/87/109
f 7/13/13 6/298/11 77/297/109 78/88/110
f 8/15/15 7/13/13 78/88/110 79/89/111
f 9/17/17 8/15/15 79/89/111 80/90/112
f 10/19/19 9/17/17 80/90/112 81/91/113
f 11/21/21 10/19/19 81/91/113 82/92/114
f 198/23/23 11/21/21 82/92/114 197/93/115
f 214/26/26 12/25/25 83/94/116 213/95/117
f 73/83/105 72/82/104 84/96/118 85/97/119
f 74/84/106 73/83/105 85/97/119 86/98/120
f 75/85/107 74/84/106 86/98/120 87/99/121
f 76/86/108 75/85/107 87/99/121 88/100/122
f 77/87/109 76/86/108 88/100/122 89/101/123
f 78/88/110 77/297/109 89/296/123 90/102/124
f 79/89/111 78/88/110 90/102/124 91/103/125
f 80/90/112 79/89/111 91/103/125 92/104/126
f 81/91/113 80/90/112 92/104/126 93/105/127
f 82/92/114 81/91/113 93/105/127 94/106/128
f 197/93/115 82/92/114 94/106/128 196/107/129
f 213/95/117 83/94/116 95/108/130 212/109/131
f 85/97/119 84/96/118 96/110/132 97/111/133
f 86/98/120 85/97/119 97/111/133 98/112/134
f 87/99/121 86/98/120 98/112/134 99/113/135
f 88/100/122 87/99/121 99/113/135 100/114/136
f 89/101/123 88/100/122 100/114/136 101/115/137
f 90/102/124 89/296/123 101/292/137 102/116/138
f 91/103/125 90/102/124 102/116/138 103/117/139
f 92/104/126 91/103/125 103/117/139 104/118/140
f 93/105/127 92/104/126 104/118/140 105/119/141
f 94/106/128 93/105/127 105/119/141 106/120/142
f 196/107/129 94/106/128 106/120/142 195/121/143
f 212/109/131 95/108/130 107/122/144 211/123/145
f 97/111/133 96/110/132 108/248/146 109/295/147
f 98/112/134 97/111/133 109/295/147 110/294/148
f 99/113/135 98/112/134 110/294/148 111/293/149
f 100/114/136 99/113/135 111/293/149 112/291/150
f 101/115/137 100/114/136 112/291/150 113/239/151
f 102/116/138 101/292/137 113/240/151 114/290/152
f 103/117/139 102/116/138 114/290/152 115/289/153
f 104/118/140 103/117/139 115/289/153 116/288/154
f 105/119/141 104/118/140 116/288/154 117/287/155
f 106/120/142 105/119/141 117/287/155 118/286/156
f 195/121/143 106/120/142 118/286/156 194/253/157
f 211/123/145 107/122/144 119/254/158 210/247/159
s 5
f 145/138/160 144/139/161 146/140/162 147/141/163
f 148/142/164 145/138/160 147/141/163 149/143/165
f 150/144/166 148/142/164 149/143/165 151/145/167
f 152/146/168 150/144/166 151/145/167 153/147/169
f 154/282/170 152/146/168 153/147/169 155/283/171
f 156/150/172 154/148/170 155/149/171 157/151/173
f 158/152/174 156/150/172 157/151/173 159/153/175
f 160/154/176 158/152/174 159/153/175 161/155/177
f 162/156/178 160/154/176 161/155/177 163/157/179
f 164/158/180 162/156/178 163/157/179 165/159/181
f 166/160/182 220/161/183 221/162/184 167/163/185
f 144/139/161 204/164/186 205/165/187 146/140/162
s 6
f 133/166/188 132/167/189 69/300/190 68/301/191
f 134/170/192 133/166/188 68/301/191 67/302/193
f 135/172/194 134/170/192 67/302/193 66/303/195
f 136/284/196 135/172/194 66/303/195 65/276/197
f 137/176/198 136/174/196 65/277/197 64/304/199
f 138/178/200 137/176/198 64/304/199 63/306/201
f 139/180/202 138/178/200 63/306/201 62/307/203
f 140/182/204 139/180/202 62/307/203 61/308/205
f 141/184/206 140/182/204 61/308/205 60/246/207
f 142/186/208 222/187/209 223/245/210 71/252/211
f 143/190/212 206/191/213 207/251/214 70/299/215
f 132/167/189 143/190/212 70/299/215 69/300/190
s 7
f 121/74/216 120/75/217 144/139/218 145/138/219
s 5
f 143/190/220 132/167/221 147/141/163 146/140/162
s 7
f 122/73/222 121/74/216 145/138/219 148/142/223
s 5
f 132/167/221 133/166/224 149/143/165 147/141/163
s 7
f 123/72/225 122/73/222 148/142/223 150/144/226
s 5
f 133/166/224 134/170/227 151/145/167 149/143/165
s 7
f 124/71/228 123/72/225 150/144/226 152/146/229
s 5
f 134/170/227 135/172/230 153/147/169 151/145/167
s 7
f 125/70/231 124/71/228 152/146/229 154/282/232
s 5
f 135/172/230 136/284/233 155/283/171 153/147/169
s 7
f 126/69/234 125/285/231 154/148/232 156/150/235
s 5
f 136/174/233 137/176/236 157/151/173 155/149/171
s 7
f 127/68/237 126/69/234 156/150/235 158/152/238
s 5
f 137/176/236 138/178/239 159/153/175 157/151/173
s 7
f 128/67/240 127/68/237 158/152/238 160/154/241
s 5
f 138/178/239 139/180/242 161/155/177 159/153/175
s 7
f 129/65/243 128/67/240 160/154/241 162/156/244
s 5
f 139/180/242 140/182/245 163/157/179 161/155/177
s 7
f 130/66/246 129/65/243 162/156/244 164/158/247
s 5
f 140/182/245 141/184/248 165/159/181 163/157/179
s 7
f 131/81/249 219/80/250 220/161/251 166/160/252
s 5
f 222/187/253 142/186/254 167/163/185 221/162/184
s 7
f 120/75/217 203/77/255 204/164/256 144/139/218
s 5
f 206/191/257 143/190/220 146/140/162 205/165/187
s 8
f 60/185/258 61/183/259 169/281/260 168/244/261
f 61/183/259 62/181/262 170/280/263 169/281/260
f 62/181/262 63/179/264 171/279/265 170/280/263
f 63/179/264 64/177/266 172/275/267 171/279/265
f 64/177/266 65/278/268 173/265/269 172/275/267
f 65/175/268 66/173/270 174/274/271 173/264/269
f 66/173/270 67/171/272 175/273/273 174/274/271
f 67/171/272 68/169/274 176/272/275 175/273/273
f 68/169/274 69/168/276 177/271/277 176/272/275
f 69/168/276 70/193/278 178/270/279 177/271/277
f 70/193/278 207/192/280 208/249/281 178/270/279
f 71/189/282 223/188/283 224/243/284 179/250/285
s 9
f 168/195/286 169/194/287 181/269/288 180/242/289
f 169/194/287 170/196/290 182/268/291 181/269/288
f 170/196/290 171/197/292 183/267/293 182/268/291
f 171/197/292 172/198/294 184/263/295 183/267/293
f 172/198/294 173/266/296 185/256/297 184/263/295
f 173/199/296 174/200/298 186/262/299 185/255/297
f 174/200/298 175/201/300 187/261/301 186/262/299
f 175/201/300 176/202/302 188/260/303 187/261/301
f 176/202/302 177/203/304 189/259/305 188/260/303
f 177/203/304 178/204/306 190/258/307 189/259/305
f 178/204/306 208/205/308 209/219/309 190/258/307
f 179/207/310 224/206/311 225/220/312 191/313/313
s 10
f 180/209/314 181/208/315 192/222/316
f 181/208/315 182/210/317 192/222/316
f 182/210/317 183/211/318 192/222/316
f 183/211/318 184/212/319 192/222/316
f 184/212/319 185/257/320 192/222/316
f 185/213/320 186/214/321 192/222/316
f 186/214/321 187/215/322 192/222/316
f 187/215/322 188/216/323 192/222/316
f 188/216/323 189/217/324 192/222/316
f 189/217/324 190/218/325 192/222/316
f 190/218/325 209/312/326 191/221/327 192/222/316
f 191/221/327 225/314/328 180/209/314 192/222/316
s 3
f 218/79/329 59/78/330 193/223/331 217/224/332
f 202/76/333 58/64/75 47/53/74 201/225/334
s 12
f 227/226/335 226/227/336 228/228/337 229/229/338
s 1
f 201/225/339 47/53/53 35/39/39 200/40/40
f 107/122/144 195/121/143 194/253/157 119/254/158
f 95/108/130 196/107/129 195/121/143 107/122/144
f 83/94/116 197/93/115 196/107/129 95/108/130
f 12/25/25 198/23/23 197/93/115 83/94/116
f 199/24/24 198/23/23 12/25/25 24/28/28
f 200/40/40 199/24/24 24/28/28 36/42/42
s 12
f 226/227/336 230/230/340 231/231/341 228/228/337
s 3
f 59/78/330 202/76/333 201/225/334 193/223/331
s 4
f 203/77/99 202/76/98 59/78/100 131/81/103
s 7
f 204/164/256 203/77/255 131/81/249 166/160/252
s 5
f 205/165/187 204/164/186 166/160/182 167/163/185
f 142/186/254 206/191/257 205/165/187 167/163/185
s 6
f 207/251/214 206/191/213 142/186/208 71/252/211
s 8
f 208/249/281 207/192/280 71/189/282 179/250/285
s 9
f 209/219/309 208/205/308 179/207/310 191/313/313
s 1
f 96/110/132 211/123/145 210/247/159 108/248/146
f 84/96/118 212/109/131 211/123/145 96/110/132
f 72/82/104 213/95/117 212/109/131 84/96/118
f 1/1/1 214/26/26 213/95/117 72/82/104
f 215/27/27 214/26/26 1/1/1 13/4/4
f 216/41/41 215/27/27 13/4/4 25/30/30
f 37/44/44 217/224/342 216/41/41 25/30/30
s 3
f 48/55/57 218/79/329 217/224/332 37/44/54
s 4
f 219/80/102 218/79/101 48/55/76 130/66/79
s 7
f 220/161/251 219/80/250 130/66/246 164/158/247
s 5
f 221/162/184 220/161/183 164/158/180 165/159/181
f 141/184/248 222/187/253 221/162/184 165/159/181
s 6
f 223/245/210 222/187/209 141/184/206 60/246/207
s 8
f 224/243/284 223/188/283 60/185/258 168/244/261
s 9
f 225/220/312 224/206/311 168/195/286 180/242/289
s 3
f 217/224/332 193/223/331 238/232/343 233/233/344
s 1
f 36/42/42 216/41/41 234/234/345 235/235/346
f 216/41/41 217/224/342 233/233/347 234/234/345
s 3
f 193/223/331 201/225/334 237/236/348 238/232/343
s 1
f 201/225/339 200/40/40 236/237/349 237/236/350
f 200/40/40 36/42/42 235/235/346 236/237/349
f 115/131/153 232/238/351 116/132/154
f 109/125/147 108/124/146 232/238/351
f 232/238/351 108/124/146 210/137/159
f 232/238/351 210/137/159 119/136/158
f 232/238/351 119/136/158 194/135/157
f 232/238/351 194/135/157 118/134/156
f 232/238/351 118/134/156 117/133/155
f 232/238/351 117/133/155 116/132/154
f 114/130/152 232/238/351 115/131/153
f 113/241/151 232/238/351 114/130/152
f 112/128/150 232/238/351 113/129/151
f 111/127/149 232/238/351 112/128/150
f 110/126/148 232/238/351 111/127/149
f 109/125/147 232/238/351 110/126/148
s off
f 234/234/352 233/233/353 227/226/354 229/229/355
s 13
f 235/235/356 234/234/357 229/229/358 228/228/359
f 236/237/360 235/235/356 228/228/359 231/231/361
s off
f 237/236/362 236/237/363 231/231/364 230/230/365
s 14
f 238/232/366 237/236/367 230/230/368 226/227/369
f 233/233/370 238/232/366 226/227/369 227/226/371
g default
v -1.056548 0.886724 0.110413
v -0.649879 0.850062 0.110413
v -1.046288 1.000534 0.110413
v -0.639619 0.963872 0.110413
v -1.046288 1.000534 -0.114148
v -0.639619 0.963872 -0.114148
v -1.056548 0.886724 -0.114148
v -0.649879 0.850062 -0.114148
vt 0.265305 0.666848
vt 0.315249 0.909364
vt 0.266127 0.909531
vt 0.265471 0.715970
vt 0.145590 0.909939
vt 0.144934 0.716379
vt 0.145757 0.959061
vt 0.095812 0.716545
vt 0.096468 0.910106
vt 0.144768 0.667257
vt 0.266294 0.958653
vt 0.314593 0.715804
vn 0.000000 0.000000 1.000000
vn 0.000000 0.000000 1.000000
vn 0.000000 0.000000 1.000000
vn 0.000000 0.000000 1.000000
vn 0.089788 0.995961 0.000000
vn 0.089788 0.995961 0.000000
vn 0.089788 0.995961 0.000000
vn 0.089788 0.995961 0.000000
vn 0.000000 0.000000 -1.000000
vn 0.000000 0.000000 -1.000000
vn 0.000000 0.000000 -1.000000
vn 0.000000 0.000000 -1.000000
vn 0.995961 -0.089788 0.000000
vn 0.995961 -0.089788 0.000000
vn 0.995961 -0.089788 0.000000
vn 0.995961 -0.089788 0.000000
vn -0.995961 0.089788 0.000000
vn -0.995961 0.089788 0.000000
vn -0.995961 0.089788 0.000000
vn -0.995961 0.089788 0.000000
s off
g LP1 pCube1
usemtl initialShadingGroup
f 239/326/372 240/316/373 242/317/374 241/318/375
f 241/318/376 242/317/377 244/319/378 243/320/379
f 243/320/380 244/319/381 246/323/382 245/322/383
f 240/325/384 246/321/385 244/319/386 242/317/387
f 245/324/388 239/315/389 241/318/390 243/320/391
