# This file uses centimeters as units for non-parametric coordinates.

mtllib palo.mtl
g default
v -0.072584 0.083749 0.122781
v -0.058801 0.083749 0.122781
v -0.072584 0.831158 0.122781
v -0.058801 0.831158 0.122781
v -0.072584 0.831158 0.091685
v -0.058801 0.831158 0.091685
v -0.072584 0.083749 0.091685
v -0.058801 0.083749 0.091685
vt 0.041606 0.000000
vt 0.060048 0.000000
vt 0.060048 1.000000
vt 0.041606 1.000000
vt 0.000000 1.000000
vt 0.101653 1.000000
vt 0.101653 0.000000
vt 0.120096 0.000000
vt 0.120096 1.000000
vt -0.000000 0.000000
vn 0.000000 0.000000 1.000000
vn 0.000000 0.000000 1.000000
vn 0.000000 0.000000 1.000000
vn 0.000000 0.000000 1.000000
vn 0.000000 0.000000 -1.000000
vn 0.000000 0.000000 -1.000000
vn 0.000000 0.000000 -1.000000
vn 0.000000 0.000000 -1.000000
vn 1.000000 0.000000 0.000000
vn 1.000000 0.000000 0.000000
vn 1.000000 0.000000 0.000000
vn 1.000000 0.000000 0.000000
vn -1.000000 0.000000 0.000000
vn -1.000000 0.000000 0.000000
vn -1.000000 0.000000 0.000000
vn -1.000000 0.000000 0.000000
s off
g Palo
usemtl initialShadingGroup
f 1/1/1 2/2/2 4/3/3 3/4/4
f 5/9/5 6/6/6 8/7/7 7/8/8
f 2/2/9 8/7/10 6/6/11 4/3/12
f 7/10/13 1/1/14 3/4/15 5/5/16
