# This file uses centimeters as units for non-parametric coordinates.

mtllib silla.mtl
g default
v 0.025540 0.091528 -0.044236
v -0.025540 0.091528 -0.044236
v -0.051079 0.091528 -0.000000
v -0.025540 0.091528 0.044236
v 0.025540 0.091528 0.044236
v 0.051079 0.091528 -0.000000
v 0.025540 0.141147 -0.044236
v -0.025540 0.141147 -0.044236
v -0.051079 0.141147 -0.000000
v -0.025540 0.141147 0.044236
v 0.025540 0.141147 0.044236
v 0.051079 0.141147 -0.000000
v 0.011448 0.073353 -0.284235
v -0.011448 0.073353 -0.284236
v -0.011448 0.088829 -0.284236
v 0.011448 0.088829 -0.284236
v -0.240432 0.073353 -0.152032
v -0.251879 0.073353 -0.132204
v -0.251879 0.088829 -0.132204
v -0.240432 0.088829 -0.152032
v -0.251879 0.073353 0.132204
v -0.240432 0.073353 0.152032
v -0.240432 0.088829 0.152032
v -0.251879 0.088829 0.132204
v -0.011448 0.073353 0.284236
v 0.011448 0.073353 0.284236
v 0.011448 0.088829 0.284236
v -0.011448 0.088829 0.284236
v 0.240432 0.073353 0.152032
v 0.251879 0.073353 0.132204
v 0.251879 0.088829 0.132204
v 0.240430 0.088829 0.152032
v 0.251879 0.073353 -0.132204
v 0.240432 0.073353 -0.152032
v 0.240432 0.088829 -0.152032
v 0.251879 0.088829 -0.132204
v 0.025540 0.287501 -0.044236
v -0.025540 0.287501 -0.044236
v -0.051079 0.287501 -0.000000
v -0.025540 0.287501 0.044236
v 0.025540 0.287501 0.044236
v 0.051079 0.287501 0.000000
v 0.015312 0.087441 -0.026521
v -0.015312 0.087441 -0.026521
v -0.030624 0.087441 -0.000000
v -0.015312 0.087441 0.026521
v 0.015312 0.087441 0.026521
v 0.030624 0.087441 -0.000000
v 0.015312 0.067590 -0.026521
v -0.015312 0.067590 -0.026521
v 0.000000 0.067590 -0.000000
v -0.030624 0.067590 -0.000000
v -0.015312 0.067590 0.026521
v 0.015312 0.067590 0.026521
v 0.030624 0.067590 -0.000000
v 0.013965 0.287501 -0.024188
v -0.013965 0.287501 -0.024188
v -0.027930 0.287501 -0.000000
v -0.013965 0.287501 0.024188
v 0.013965 0.287501 0.024188
v 0.027930 0.287501 0.000000
v 0.013965 0.359505 -0.024188
v -0.013965 0.359505 -0.024188
v -0.000000 0.359505 0.000000
v -0.027930 0.359505 -0.000000
v -0.013965 0.359505 0.024188
v 0.013965 0.359505 0.024188
v 0.027930 0.359505 0.000000
v -0.163399 0.358173 0.211620
v 0.153302 0.375240 0.229542
v -0.187134 0.355845 0.144445
v -0.187134 0.417911 0.144445
v 0.163399 0.415583 0.211620
v -0.179672 0.416473 -0.206285
v 0.213959 0.375240 -0.171023
v -0.177261 0.919539 -0.210206
v -0.177893 0.546277 -0.176194
v 0.177893 0.546277 -0.176197
v -0.190914 0.546299 -0.149161
v -0.139459 0.552002 -0.177095
v 0.139459 0.552002 -0.177097
v 0.139459 0.856601 -0.207215
v -0.189444 0.864093 -0.180970
v 0.189444 0.864093 -0.180970
v 0.177261 0.919539 -0.210206
v 0.190914 0.355845 -0.174461
v 0.187134 0.355845 0.144445
v 0.163399 0.358173 0.211620
v 0.153302 0.398516 0.229542
v 0.187134 0.417911 0.144445
v 0.190914 0.546299 -0.149161
v -0.178740 0.437187 -0.194941
v 0.157264 0.431931 -0.212520
v 0.190914 0.438366 -0.167907
v 0.213959 0.398516 -0.171023
v 0.187634 0.438355 -0.182017
v -0.179714 0.748285 -0.192165
v 0.157427 0.748057 -0.210202
v 0.154013 0.918764 -0.228171
v 0.179714 0.748294 -0.192167
v -0.139459 0.738129 -0.192180
v -0.139459 0.856599 -0.207215
v 0.139459 0.738136 -0.192181
v -0.185034 0.912143 -0.196544
v 0.185034 0.912143 -0.196544
v 0.190914 0.739662 -0.164283
v -0.144463 0.551264 -0.194821
v 0.144463 0.551264 -0.194824
v -0.144463 0.441496 -0.212198
v -0.141057 0.416951 -0.228005
v -0.144463 0.739541 -0.210078
v -0.141057 0.899328 -0.226906
v 0.144463 0.739550 -0.210079
v 0.141057 0.899328 -0.226906
v 0.141057 0.416951 -0.228005
v 0.144463 0.441487 -0.212200
v -0.139459 0.443288 -0.194274
v 0.139459 0.443281 -0.194276
v 0.178740 0.437177 -0.194944
v 0.190914 0.417910 -0.174461
v -0.185481 0.375240 0.203600
v 0.175793 0.355845 0.198640
v 0.185481 0.375240 0.203600
v -0.213959 0.375240 0.006634
v -0.206839 0.398516 0.141387
v -0.185481 0.398516 0.203600
v -0.153302 0.398516 0.229542
v -0.175793 0.417910 0.198640
v -0.190914 0.417910 0.010072
v -0.213959 0.398516 -0.171023
v -0.187882 0.416958 -0.197271
v -0.150650 0.398712 -0.231744
v -0.163399 0.415583 0.211620
v 0.185481 0.398516 0.203600
v 0.206839 0.398516 0.141387
v 0.175793 0.417910 0.198640
v 0.190914 0.355845 0.010072
v 0.213959 0.375240 0.006634
v 0.213959 0.398516 0.006634
v 0.190914 0.417910 0.010072
v 0.186500 0.398516 -0.203600
v 0.150650 0.398712 -0.231744
v 0.187882 0.416957 -0.197271
v -0.154013 0.918764 -0.228171
v -0.190914 0.355845 -0.174461
v -0.185481 0.375240 -0.203600
v -0.163399 0.358173 -0.211620
v 0.163399 0.358173 -0.211620
v 0.185481 0.375240 -0.203600
v -0.153302 0.375240 0.229542
v -0.153302 0.375240 -0.229542
v 0.206839 0.375240 0.141387
v -0.206839 0.375240 0.141387
v -0.213959 0.375240 -0.171023
v 0.153302 0.375240 -0.229542
v -0.190914 0.417910 -0.174461
v -0.157123 0.546901 -0.193960
v -0.187069 0.546296 -0.163270
v 0.187070 0.546296 -0.163272
v 0.157123 0.546901 -0.193964
v -0.157264 0.431941 -0.212518
v 0.179672 0.416471 -0.206286
v -0.139459 0.421269 -0.210507
v 0.139459 0.421268 -0.210507
v -0.187634 0.438361 -0.182016
v -0.190914 0.438366 -0.167907
v -0.175793 0.355845 0.198640
v -0.190914 0.355845 0.010072
v -0.213959 0.398516 0.006634
v -0.186500 0.398516 -0.203600
v -0.175793 0.355845 -0.198640
v 0.175793 0.355845 -0.198640
v -0.157427 0.748046 -0.210200
v -0.188283 0.744596 -0.178846
v 0.188283 0.744602 -0.178846
v -0.190914 0.739662 -0.164283
v 0.200550 0.508504 0.074974
v 0.259607 0.508504 0.074974
v 0.205503 0.527348 -0.096287
v 0.254654 0.527348 -0.096287
v 0.200550 0.508504 -0.111334
v 0.224546 0.508504 -0.042941
v 0.259607 0.508504 -0.111334
v 0.235611 0.508504 -0.042941
v 0.235611 0.508504 0.006581
v 0.224546 0.508504 0.006581
v 0.224474 0.378552 -0.062171
v 0.218318 0.363689 -0.065823
v 0.203456 0.357533 -0.065823
v 0.218318 0.363689 -0.115345
v 0.203456 0.357533 -0.115345
v 0.224474 0.378552 -0.111455
v 0.230142 0.347733 -0.115345
v 0.216764 0.342193 -0.115345
v 0.235683 0.361111 -0.115345
v 0.230142 0.347733 -0.065823
v 0.216764 0.342193 -0.065823
v 0.235683 0.361111 -0.064844
v 0.254654 0.527348 0.059927
v 0.205503 0.527348 0.059927
v 0.046915 0.342193 -0.115345
v 0.046915 0.342193 -0.065823
v 0.046915 0.357533 -0.065823
v 0.046915 0.357533 -0.115345
v -0.200550 0.508504 0.074974
v -0.259607 0.508504 0.074974
v -0.205503 0.527348 -0.096287
v -0.254654 0.527348 -0.096287
v -0.200550 0.508504 -0.111334
v -0.224546 0.508504 -0.042941
v -0.259607 0.508504 -0.111334
v -0.235611 0.508504 -0.042941
v -0.235611 0.508504 0.006581
v -0.224546 0.508504 0.006581
v -0.224474 0.378552 -0.062171
v -0.218318 0.363689 -0.065823
v -0.203456 0.357533 -0.065823
v -0.218318 0.363689 -0.115345
v -0.203456 0.357533 -0.115345
v -0.224474 0.378552 -0.111455
v -0.230142 0.347733 -0.115345
v -0.216764 0.342193 -0.115345
v -0.235683 0.361111 -0.115345
v -0.230142 0.347733 -0.065823
v -0.216764 0.342193 -0.065823
v -0.235683 0.361111 -0.064844
v -0.254654 0.527348 0.059927
v -0.205503 0.527348 0.059927
v -0.046915 0.342193 -0.115345
v -0.046915 0.342193 -0.065823
v -0.046915 0.357533 -0.065823
v -0.046915 0.357533 -0.115345
vt 0.051582 0.036683
vt 0.802935 0.407062
vt 0.811519 0.413731
vt 0.821105 0.426642
vt 0.173171 0.037264
vt 0.804348 0.541870
vt 0.806800 0.552459
vt 0.806092 0.568524
vt 0.060329 0.024658
vt 0.668561 0.407701
vt 0.665024 0.417980
vt 0.655905 0.431224
vt 0.205348 0.018076
vt 0.129253 0.738899
vt 0.118383 0.738957
vt 0.102869 0.734727
vt 0.185498 0.018071
vt 0.907918 0.609267
vt 0.897048 0.609251
vt 0.881563 0.604915
vt 0.036626 0.030467
vt 0.334928 0.169075
vt 0.305807 0.191938
vt 0.312243 0.183179
vt 0.247407 0.216673
vt 0.242386 0.232125
vt 0.225632 0.219228
vt 0.239113 0.202136
vt 0.222448 0.197942
vt 0.208667 0.234770
vt 0.227973 0.240902
vt 0.152310 0.056291
vt 0.754027 0.354809
vt 0.147871 0.037183
vt 0.773643 0.354992
vt 0.793259 0.355174
vt 0.695179 0.354262
vt 0.714795 0.354444
vt 0.177285 0.081675
vt 0.274391 0.212428
vt 0.152929 0.118298
vt 0.139868 0.084884
vt 0.255372 0.180159
vt 0.165991 0.151712
vt 0.219784 0.170099
vt 0.179052 0.185126
vt 0.187299 0.188270
vt 0.113745 0.018056
vt 0.233086 0.267829
vt 0.126806 0.051470
vt 0.935981 0.199610
vt 0.954422 0.181988
vt 0.918684 0.216149
vt 0.903269 0.232208
vt 0.976629 0.123851
vt 0.031067 0.088895
vt 0.253837 0.240347
vt 0.259754 0.214334
vt 0.246292 0.191776
vt 0.221458 0.185075
vt 0.200543 0.195796
vt 0.230968 0.252937
vt 0.754498 0.304239
vt 0.734882 0.304056
vt 0.774114 0.304421
vt 0.793730 0.304604
vt 0.695650 0.303691
vt 0.957005 0.152437
vt 0.715266 0.303874
vt 0.941642 0.170358
vt 0.971781 0.159503
vt 0.044128 0.122309
vt 0.324891 0.173248
vt 0.026387 0.018068
vt 0.894903 0.778106
vt 0.258318 0.018056
vt 0.155556 0.110222
vt 0.978033 0.364271
vt 0.888666 0.259065
vt 0.265229 0.249023
vt 0.028244 0.037388
vt 0.296068 0.204734
vt 0.166639 0.042893
vt 0.734411 0.354627
vt 0.812875 0.355357
vt 0.162200 0.023785
vt 0.162200 0.023785
vt 0.143433 0.018074
vt 0.959704 0.130464
vt 0.880344 0.243324
vt 0.813346 0.304786
vt 0.129104 0.031472
vt 0.133542 0.050580
vt 0.892485 0.222058
vt 0.018005 0.055481
vt 0.096375 0.255965
vt 0.887580 0.253955
vt 0.908753 0.204563
vt 0.925700 0.187869
vt 0.205174 0.208119
vt 0.207294 0.249282
vt 0.117400 0.907823
vt 0.795697 0.750322
vt 0.930773 0.778768
vt 0.197735 0.260285
vt 0.083313 0.222551
vt 0.825505 0.768379
vt 0.082550 0.908011
vt 0.192114 0.218540
vt 0.070251 0.189137
vt 0.057190 0.155723
vt 0.018005 0.024989
vt 0.923996 0.609563
vt 0.872267 0.599282
vt 0.182008 0.028365
vt 0.197238 0.033527
vt 0.200728 0.023233
vt 0.145333 0.739084
vt 0.093533 0.729160
vt 0.203170 0.028725
vt 0.218925 0.031947
vt 0.221102 0.021298
vt 0.824078 0.474711
vt 0.018005 0.880723
vt 0.153274 0.908238
vt 0.674050 0.392587
vt 0.647565 0.438196
vt 0.064782 0.034574
vt 0.079451 0.027985
vt 0.074997 0.018070
vt 0.971734 0.516217
vt 0.765654 0.559566
vt 0.836325 0.440990
vt 0.800987 0.526144
vt 0.802718 0.578857
vt 0.182946 0.032509
vt 0.175911 0.018048
vt 0.166137 0.022803
vt 0.916618 0.281554
vt 0.967197 0.619140
vt 0.964236 0.481133
vt 0.790407 0.396981
vt 0.825006 0.436787
vt 0.058490 0.028291
vt 0.046075 0.018071
vt 0.039167 0.026463
vt 0.226138 0.031435
vt 0.860052 0.778054
vt 0.047937 0.898574
vt 0.812739 0.507666
vt 0.792394 0.537215
vt 0.979595 0.550169
vt 0.978015 0.586011
vt 0.944139 0.302937
vt 0.965525 0.331742
vt 0.197919 0.053589
vt 0.305491 0.548853
vt 0.323332 0.541057
vt 0.318985 0.566513
vt 0.303719 0.563010
vt 0.313037 0.610419
vt 0.294858 0.602889
vt 0.335038 0.320336
vt 0.349877 0.332621
vt 0.337325 0.305891
vt 0.352946 0.306766
vt 0.340207 0.264926
vt 0.359781 0.262881
vt 0.299184 0.703507
vt 0.278581 0.697682
vt 0.281626 0.825463
vt 0.260796 0.828597
vt 0.348863 0.610798
vt 0.329289 0.612840
vt 0.336130 0.568955
vt 0.351750 0.569831
vt 0.339200 0.543100
vt 0.354040 0.555386
vt 0.337375 0.706283
vt 0.315657 0.705893
vt 0.315593 0.837060
vt 0.297096 0.827768
vt 0.308957 0.853551
vt 0.293757 0.855448
vt 0.467133 0.039620
vt 0.481513 0.034450
vt 0.482709 0.043121
vt 0.473533 0.070471
vt 0.365745 0.334663
vt 0.383585 0.326866
vt 0.370090 0.309206
vt 0.385356 0.312708
vt 0.376033 0.265299
vt 0.394213 0.272827
vt 0.351685 0.169451
vt 0.373392 0.169826
vt 0.373176 0.038729
vt 0.391726 0.047836
vt 0.389871 0.172202
vt 0.410474 0.178022
vt 0.407160 0.050308
vt 0.428016 0.046966
vt 0.412592 0.022926
vt 0.426558 0.029251
vt 0.494892 0.312337
vt 0.480039 0.308627
vt 0.483305 0.277259
vt 0.495244 0.303584
vt 0.393625 0.781978
vt 0.398680 0.762232
vt 0.498416 0.981951
vt 0.480309 0.972923
vt 0.275299 0.852432
vt 0.258872 0.849629
vt 0.430658 0.054421
vt 0.448131 0.044307
vt 0.457251 0.070417
vt 0.440030 0.063787
vt 0.467245 0.278951
vt 0.450687 0.287241
vt 0.460614 0.305833
vt 0.442174 0.297486
vt 0.377562 0.018069
vt 0.394068 0.020266
vt 0.295179 0.556315
vt 0.256365 0.559319
vt 0.290114 0.297781
vt 0.326945 0.310508
vt 0.362133 0.565215
vt 0.393897 0.319403
vt 0.398966 0.577941
vt 0.432710 0.316397
vt 0.492448 0.592550
vt 0.526786 0.325883
vt 0.621250 0.609065
vt 0.655555 0.342458
vt 0.162288 0.549826
vt 0.033521 0.533239
vt 0.067832 0.266648
vt 0.196634 0.283167
vt 0.018005 0.520513
vt 0.049598 0.275037
vt 0.500958 0.038693
vt 0.498745 0.058236
vt 0.509670 0.286908
vt 0.514077 0.306108
vt 0.507490 0.267383
vt 0.498741 0.077864
vt 0.516902 0.076675
vt 0.525606 0.266604
vt 0.707452 0.570580
vt 0.711921 0.587053
vt 0.698709 0.594495
vt 0.695368 0.584777
vt 0.703925 0.562636
vt 0.691785 0.574286
vt 0.839190 0.840830
vt 0.825224 0.846896
vt 0.849581 0.854328
vt 0.853801 0.861926
vt 0.837167 0.864611
vt 0.830937 0.855432
vt 0.584465 0.046932
vt 0.581848 0.027786
vt 0.726382 0.018078
vt 0.728461 0.038166
vt 0.849492 0.019473
vt 0.850706 0.040281
vt 0.597425 0.308275
vt 0.597914 0.288960
vt 0.743277 0.281234
vt 0.743534 0.301427
vt 0.864481 0.264567
vt 0.865739 0.285378
vt 0.602527 0.266666
vt 0.591380 0.068602
vt 0.721402 0.060656
vt 0.733732 0.259709
vt 0.805325 0.058479
vt 0.816562 0.251954
vt 0.620672 0.612136
vt 0.626234 0.621915
vt 0.499779 0.685873
vt 0.489726 0.679081
vt 0.631235 0.630996
vt 0.509963 0.692139
vt 0.440155 0.741215
vt 0.408997 0.758000
vt 0.754076 0.879004
vt 0.758250 0.888494
vt 0.626875 0.950204
vt 0.628597 0.938285
vt 0.762644 0.898849
vt 0.625850 0.962337
vt 0.508495 0.976657
vt 0.541169 0.963041
vt 0.486511 0.075443
vt 0.495821 0.271022
vt 0.508177 0.065937
vt 0.722937 0.047446
vt 0.588787 0.055637
vt 0.837365 0.049935
vt 0.850113 0.256584
vt 0.736696 0.272663
vt 0.601307 0.279828
vt 0.518239 0.278235
vt 0.900720 0.153216
vt 0.892847 0.171194
vt 0.853892 0.033935
vt 0.869584 0.046807
vt 0.949303 0.155377
vt 0.933614 0.142498
vt 0.902475 0.036051
vt 0.910343 0.018069
vt 0.393109 0.577694
vt 0.389322 0.628461
vt 0.375397 0.660334
vt 0.340721 0.697606
vt 0.396443 0.631572
vt 0.431119 0.594300
vt 0.378731 0.714212
vt 0.382518 0.663445
vt 0.139134 0.638700
vt 0.128419 0.637382
vt 0.132005 0.603353
vt 0.147735 0.604640
vt 0.150300 0.637562
vt 0.163837 0.604624
vt 0.251077 0.641219
vt 0.269388 0.612655
vt 0.137284 0.559041
vt 0.144277 0.560531
vt 0.146709 0.592321
vt 0.137974 0.593154
vt 0.151320 0.559509
vt 0.155283 0.594184
vt 0.258118 0.572591
vt 0.270171 0.605112
vt 0.161332 0.552227
vt 0.258438 0.564677
vt 0.131583 0.547773
vt 0.146621 0.548343
vt 0.019695 0.586512
vt 0.020681 0.550643
vt 0.019534 0.597344
vt 0.018005 0.632562
vt 0.021904 0.539758
vt 0.197094 0.867975
vt 0.165959 0.761566
vt 0.150266 0.748694
vt 0.189222 0.885953
vt 0.245677 0.870136
vt 0.206717 0.732828
vt 0.198849 0.750810
vt 0.229988 0.857256
vt 0.440723 0.585137
vt 0.388335 0.705049
vt 0.423011 0.667777
vt 0.436936 0.635904
vt 0.444057 0.639015
vt 0.430132 0.670889
vt 0.426345 0.721655
vt 0.478733 0.601743
vt 0.139134 0.731862
vt 0.147735 0.697803
vt 0.132005 0.696516
vt 0.128419 0.730545
vt 0.150300 0.730725
vt 0.163837 0.697787
vt 0.251077 0.734382
vt 0.269388 0.705818
vt 0.137284 0.652204
vt 0.137974 0.686317
vt 0.146709 0.685484
vt 0.144277 0.653694
vt 0.155283 0.687347
vt 0.151320 0.652672
vt 0.270171 0.698275
vt 0.258118 0.665754
vt 0.161332 0.645390
vt 0.258438 0.657840
vt 0.131583 0.640936
vt 0.146621 0.641506
vt 0.020681 0.643806
vt 0.019695 0.679675
vt 0.019534 0.690507
vt 0.018005 0.725725
vt 0.021904 0.632921
vn 0.000012 -0.000015 -1.000000
vn 0.000012 -0.000015 -1.000000
vn 0.000012 -0.000015 -1.000000
vn 0.000012 -0.000015 -1.000000
vn -0.866025 0.000004 -0.500001
vn -0.866025 0.000004 -0.500001
vn -0.866025 0.000004 -0.500001
vn -0.866025 0.000004 -0.500001
vn -0.866031 -0.000013 0.499991
vn -0.866031 -0.000013 0.499991
vn -0.866031 -0.000013 0.499991
vn -0.866031 -0.000013 0.499991
vn 0.000000 0.000000 1.000000
vn 0.000000 0.000000 1.000000
vn 0.000000 0.000000 1.000000
vn 0.000000 0.000000 1.000000
vn 0.866029 0.000053 0.499994
vn 0.866029 0.000053 0.499994
vn 0.866029 0.000053 0.499994
vn 0.866029 0.000053 0.499994
vn 0.866038 0.000000 -0.499978
vn 0.866038 0.000000 -0.499978
vn 0.866038 0.000000 -0.499978
vn 0.866038 0.000000 -0.499978
vn 0.000000 -1.000000 0.000000
vn 0.000000 -1.000000 0.000000
vn 0.000000 -1.000000 0.000000
vn 0.000000 -1.000000 0.000000
vn 0.000000 -1.000000 0.000000
vn 0.000000 -1.000000 0.000000
vn 0.000000 -1.000000 0.000000
vn 0.000000 1.000000 0.000000
vn 0.000000 1.000000 0.000000
vn 0.000000 1.000000 0.000000
vn 0.000000 1.000000 0.000000
vn 0.000000 1.000000 0.000000
vn 0.000000 1.000000 0.000000
vn 0.000000 1.000000 0.000000
vn -0.000000 -0.997145 0.075512
vn -0.000000 -0.997145 0.075512
vn -0.000000 -0.997145 0.075512
vn -0.000000 -0.997145 0.075512
vn -0.500000 0.000003 -0.866025
vn -0.500000 0.000003 -0.866025
vn -0.998281 0.000000 -0.058616
vn -0.998281 0.000000 -0.058616
vn 0.000000 0.977054 -0.212991
vn 0.000000 0.977054 -0.212991
vn 0.000000 0.977054 -0.212991
vn 0.000000 0.977054 -0.212991
vn 0.500000 -0.000000 -0.866025
vn 0.500000 -0.000000 -0.866025
vn 0.998281 -0.000000 -0.058615
vn 0.998281 -0.000000 -0.058615
vn 0.065395 -0.997145 0.037757
vn 0.065395 -0.997145 0.037757
vn 0.065395 -0.997145 0.037757
vn 0.065395 -0.997145 0.037757
vn -1.000000 -0.000004 -0.000001
vn -1.000000 -0.000004 -0.000001
vn -0.549904 0.000000 0.835228
vn -0.549904 0.000000 0.835228
vn -0.184455 0.977054 -0.106495
vn -0.184455 0.977054 -0.106495
vn -0.184455 0.977054 -0.106495
vn -0.184455 0.977054 -0.106495
vn 0.448377 0.000003 -0.893844
vn 0.448377 0.000003 -0.893845
vn 0.065396 -0.997145 -0.037755
vn 0.065396 -0.997145 -0.037755
vn 0.065396 -0.997145 -0.037755
vn 0.065396 -0.997145 -0.037755
vn -0.500002 0.000000 0.866024
vn -0.500002 0.000000 0.866024
vn 0.448377 0.000000 0.893845
vn 0.448377 0.000000 0.893845
vn -0.184455 0.977054 0.106495
vn -0.184455 0.977054 0.106495
vn -0.184455 0.977054 0.106495
vn -0.184455 0.977054 0.106495
vn -0.549903 -0.000004 -0.835229
vn -0.549903 -0.000004 -0.835229
vn 0.000000 -0.997145 -0.075512
vn 0.000000 -0.997145 -0.075512
vn 0.000000 -0.997145 -0.075512
vn 0.000000 -0.997145 -0.075512
vn 0.500002 -0.000012 0.866024
vn 0.500002 -0.000012 0.866024
vn 0.998281 0.000000 0.058615
vn 0.998281 0.000000 0.058615
vn 0.000006 0.977055 0.212990
vn 0.000006 0.977055 0.212990
vn 0.000006 0.977054 0.212990
vn 0.000006 0.977054 0.212990
vn -0.998281 0.000000 0.058615
vn -0.998281 0.000000 0.058615
vn -0.065396 -0.997145 -0.037755
vn -0.065396 -0.997145 -0.037755
vn -0.065396 -0.997145 -0.037755
vn -0.065396 -0.997145 -0.037755
vn 1.000000 0.000000 0.000000
vn 1.000000 0.000000 -0.000000
vn 0.549904 0.000000 -0.835228
vn 0.549904 0.000000 -0.835228
vn 0.184451 0.977054 0.106502
vn 0.184451 0.977054 0.106502
vn 0.184451 0.977054 0.106502
vn 0.184451 0.977054 0.106502
vn -0.448380 -0.000013 0.893843
vn -0.448380 -0.000013 0.893843
vn -0.065396 -0.997145 0.037756
vn -0.065396 -0.997145 0.037756
vn -0.065396 -0.997145 0.037756
vn -0.065396 -0.997145 0.037756
vn -0.448377 0.000000 -0.893844
vn -0.448377 0.000000 -0.893844
vn 0.184456 0.977054 -0.106494
vn 0.184456 0.977054 -0.106494
vn 0.184456 0.977054 -0.106494
vn 0.184456 0.977054 -0.106494
vn 0.549903 0.000000 0.835229
vn 0.549903 0.000000 0.835228
vn 0.500000 0.000000 -0.866025
vn -0.500000 0.000000 -0.866025
vn -0.500000 0.000000 -0.866025
vn 0.500000 0.000000 -0.866025
vn -1.000000 -0.000000 0.000000
vn -1.000000 -0.000000 0.000000
vn -0.499998 -0.000000 0.866026
vn -0.500000 -0.000000 0.866026
vn 0.500000 0.000000 0.866025
vn 0.500000 0.000000 0.866025
vn 1.000000 0.000000 0.000003
vn 1.000000 0.000000 0.000001
vn -0.097966 -0.980617 -0.169683
vn 0.097966 -0.980617 -0.169683
vn 0.299583 -0.800625 -0.518893
vn -0.299583 -0.800625 -0.518893
vn -0.195933 -0.980617 -0.000000
vn -0.599167 -0.800625 -0.000000
vn -0.097966 -0.980617 0.169683
vn -0.299583 -0.800625 0.518893
vn 0.097966 -0.980617 0.169683
vn 0.299583 -0.800625 0.518893
vn 0.195933 -0.980617 0.000000
vn 0.599166 -0.800625 0.000000
vn 0.500000 0.000000 -0.866025
vn -0.500000 0.000000 -0.866026
vn -1.000000 0.000000 0.000000
vn -0.500000 0.000000 0.866025
vn 0.500000 0.000000 0.866025
vn 1.000000 0.000000 0.000000
vn 0.000000 1.000000 0.000000
vn 0.000000 1.000000 0.000000
vn -0.427549 0.518466 -0.740538
vn 0.427549 0.518465 -0.740537
vn 0.000000 1.000000 0.000000
vn -0.855099 0.518465 0.000000
vn 0.000000 1.000000 -0.000000
vn -0.427549 0.518465 0.740537
vn 0.000000 1.000000 -0.000000
vn 0.427549 0.518465 0.740537
vn 0.000000 1.000000 -0.000000
vn 0.855099 0.518465 -0.000000
vn -0.499999 0.000000 -0.866026
vn 0.500000 0.000000 -0.866026
vn -1.000000 0.000000 0.000000
vn -0.500000 0.000000 0.866026
vn 0.499999 0.000000 0.866026
vn 1.000000 0.000000 0.000000
vn -0.043508 -0.884007 0.465445
vn -0.046804 -0.436388 0.898541
vn -0.844487 -0.258944 0.468817
vn -0.060785 -0.997128 0.045183
vn -0.903630 -0.413553 0.111474
vn -0.051098 -0.998673 0.006420
vn 0.043508 -0.884007 0.465445
vn 0.046804 -0.436388 0.898541
vn 0.060785 -0.997128 0.045183
vn 0.844487 -0.258944 0.468818
vn 0.051098 -0.998673 0.006420
vn 0.903630 -0.413553 0.111474
vn -0.884645 -0.465946 0.017245
vn -0.047794 -0.998857 0.000901
vn -0.879451 -0.467679 -0.088558
vn -0.049410 -0.998754 -0.006975
vn -0.051098 0.998673 0.006420
vn -0.903630 0.413553 0.111474
vn -0.844487 0.258944 0.468818
vn -0.060785 0.997128 0.045186
vn -0.046804 0.436387 0.898541
vn -0.043508 0.884008 0.465442
vn -0.047794 0.998857 0.000900
vn -0.884645 0.465946 0.017244
vn -0.059242 0.993044 0.101750
vn -0.884813 0.458716 -0.081767
vn -0.779882 0.345989 -0.521609
vn -0.713684 0.099632 -0.693346
vn -0.576835 0.292869 -0.762554
vn -0.073180 0.022569 -0.997063
vn 0.046804 0.436387 0.898541
vn 0.043508 0.884008 0.465442
vn 0.844487 0.258944 0.468817
vn 0.060785 0.997128 0.045186
vn 0.903630 0.413553 0.111474
vn 0.051098 0.998673 0.006420
vn 0.047794 -0.998857 0.000901
vn 0.884645 -0.465946 0.017245
vn 0.049410 -0.998754 -0.006975
vn 0.879451 -0.467680 -0.088558
vn 0.884645 0.465946 0.017245
vn 0.047794 0.998857 0.000900
vn 0.884813 0.458716 -0.081767
vn 0.059241 0.993045 0.101751
vn 0.713685 0.099630 -0.693345
vn 0.779868 0.346020 -0.521610
vn 0.073174 0.022567 -0.997064
vn 0.576821 0.292888 -0.762558
vn -0.239896 0.691765 -0.681110
vn -0.473006 0.866603 -0.158949
vn 0.472987 0.866618 -0.158923
vn 0.239886 0.691778 -0.681100
vn -0.690663 -0.232775 -0.684690
vn -0.058432 -0.994942 -0.081713
vn -0.052231 -0.476583 -0.877577
vn -0.043508 -0.884007 -0.465446
vn 0.052231 -0.476583 -0.877576
vn 0.043508 -0.884007 -0.465446
vn 0.690663 -0.232775 -0.684690
vn 0.058432 -0.994942 -0.081713
vn -0.673624 0.168599 -0.719587
vn -0.494497 0.235614 -0.836635
vn 0.494500 0.235600 -0.836638
vn 0.673626 0.168582 -0.719589
vn -0.045509 0.792683 -0.607933
vn 0.045533 0.792680 -0.607935
vn 0.063236 0.246443 -0.967092
vn -0.063250 0.246447 -0.967090
vn -0.040256 -0.192923 0.980388
vn -0.903604 0.098630 -0.416860
vn 0.040265 -0.192923 0.980387
vn 0.903607 0.098617 -0.416857
vn -0.493438 0.012691 -0.869688
vn -0.713958 0.004494 -0.700175
vn -0.709895 -0.060781 -0.701680
vn -0.476125 -0.079520 -0.875775
vn 0.713967 0.004496 -0.700165
vn 0.493430 0.012693 -0.869693
vn 0.476125 -0.079512 -0.875775
vn 0.709900 -0.060774 -0.701675
vn -0.058982 0.006996 -0.998235
vn 0.058967 0.006996 -0.998236
vn 0.064736 -0.098339 -0.993045
vn -0.064745 -0.098340 -0.993044
vn 0.086098 -0.210611 -0.973771
vn -0.086093 -0.210613 -0.973771
vn -0.914412 0.002845 -0.404774
vn -0.905825 -0.034848 -0.422216
vn -0.035025 -0.012053 0.999314
vn -0.039137 0.099542 0.994263
vn -0.050337 0.182389 0.981937
vn -0.148264 0.442515 0.884420
vn 0.035028 -0.012053 0.999314
vn 0.914426 0.002846 -0.404744
vn 0.905831 -0.034844 -0.422204
vn 0.039142 0.099542 0.994263
vn 0.148257 0.442514 0.884422
vn 0.050336 0.182389 0.981937
vn -0.009892 0.592239 -0.805701
vn 0.009899 0.592245 -0.805698
vn 0.515882 0.191753 -0.834923
vn 0.645798 -0.071531 -0.760150
vn 0.679510 -0.005499 -0.733645
vn 0.011237 -0.261716 -0.965080
vn -0.011237 -0.261717 -0.965079
vn -0.645798 -0.071522 -0.760151
vn -0.679523 -0.005495 -0.733634
vn -0.515856 0.191738 -0.834943
vn -0.420874 0.900927 -0.105809
vn -0.967154 0.254190 0.000000
vn -0.967154 0.254190 0.000000
vn -0.420874 0.900927 0.105809
vn 0.967155 0.254189 0.000000
vn 0.967155 0.254189 0.000000
vn 0.967155 0.254189 0.000000
vn 0.967155 0.254189 0.000000
vn 0.000000 -1.000000 -0.000000
vn 0.000000 -1.000000 -0.000000
vn 0.000000 -1.000000 -0.000000
vn 0.000000 -1.000000 -0.000000
vn 0.000000 -1.000000 -0.000000
vn 0.000000 -1.000000 -0.000000
vn 0.000000 -1.000000 -0.000000
vn 0.000000 -1.000000 -0.000000
vn -0.382672 0.923884 0.000000
vn -0.382672 0.923884 0.000000
vn -0.382672 0.923884 0.000000
vn -0.382672 0.923884 0.000000
vn -0.997780 0.066592 0.000000
vn -0.923882 0.382676 0.000000
vn -0.923883 0.382676 0.000000
vn -0.999569 0.029370 0.000000
vn -1.000000 0.000555 0.000000
vn -1.000000 0.000555 0.000000
vn 0.382675 -0.923883 0.000000
vn 0.382675 -0.923883 0.000000
vn 0.382675 -0.923883 0.000000
vn 0.382675 -0.923883 0.000000
vn 0.923882 -0.382677 0.000000
vn 0.998918 -0.046504 0.000000
vn 0.999669 -0.025716 0.000000
vn 0.923882 -0.382677 0.000000
vn 1.000000 0.000489 0.000000
vn 1.000000 0.000489 0.000000
vn 0.000000 0.623997 0.781427
vn 0.000000 0.623997 0.781427
vn 0.000000 0.991157 0.132698
vn 0.000000 0.991157 -0.132698
vn 0.000000 0.623996 -0.781428
vn 0.000000 0.623996 -0.781428
vn 0.186591 0.429245 -0.883704
vn 0.195161 0.444267 -0.874379
vn 0.195161 0.444267 -0.874379
vn 0.136130 0.340036 -0.930507
vn -0.186516 -0.339528 0.921918
vn -0.238980 -0.438013 0.866622
vn -0.238980 -0.438013 0.866622
vn -0.231025 -0.423069 0.876151
vn -0.000002 -0.000001 -1.000000
vn 0.009704 0.065372 -0.997814
vn 0.007834 0.052774 -0.998576
vn -0.000002 -0.000001 -1.000000
vn 0.000002 0.000001 1.000000
vn -0.030923 -0.053884 0.998068
vn -0.038282 -0.066708 0.997038
vn 0.000002 0.000001 1.000000
vn 0.000000 -1.000000 0.000000
vn 0.000000 -1.000000 0.000000
vn 0.000000 -1.000000 0.000000
vn 0.000000 -1.000000 0.000000
vn 0.000000 0.000000 1.000000
vn 0.000000 0.000000 1.000000
vn 0.000000 0.000000 1.000000
vn 0.000000 0.000000 1.000000
vn 0.000000 1.000000 0.000000
vn 0.000000 1.000000 0.000000
vn 0.000000 1.000000 0.000000
vn 0.000000 1.000000 0.000000
vn 0.000000 0.000000 -1.000000
vn 0.000000 0.000000 -1.000000
vn 0.000000 0.000000 -1.000000
vn 0.000000 0.000000 -1.000000
vn 0.420874 0.900927 -0.105809
vn 0.420874 0.900927 0.105809
vn 0.967154 0.254190 0.000000
vn 0.967154 0.254190 0.000000
vn -0.967155 0.254189 0.000000
vn -0.967155 0.254189 0.000000
vn -0.967155 0.254189 0.000000
vn -0.967155 0.254189 0.000000
vn 0.000000 -1.000000 0.000000
vn 0.000000 -1.000000 0.000000
vn 0.000000 -1.000000 0.000000
vn 0.000000 -1.000000 0.000000
vn 0.000000 -1.000000 0.000000
vn 0.000000 -1.000000 0.000000
vn 0.000000 -1.000000 0.000000
vn 0.000000 -1.000000 0.000000
vn 0.382672 0.923884 0.000000
vn 0.382672 0.923884 0.000000
vn 0.382672 0.923884 0.000000
vn 0.382672 0.923884 0.000000
vn 0.997780 0.066592 0.000000
vn 0.999569 0.029370 0.000000
vn 0.923882 0.382676 0.000000
vn 0.923882 0.382676 0.000000
vn 1.000000 0.000555 0.000000
vn 1.000000 0.000555 0.000000
vn -0.382675 -0.923883 0.000000
vn -0.382675 -0.923883 0.000000
vn -0.382675 -0.923883 0.000000
vn -0.382675 -0.923883 0.000000
vn -0.923882 -0.382677 0.000000
vn -0.923882 -0.382677 0.000000
vn -0.999669 -0.025716 0.000000
vn -0.998918 -0.046504 0.000000
vn -1.000000 0.000489 0.000000
vn -1.000000 0.000489 0.000000
vn 0.000000 0.991157 0.132698
vn 0.000000 0.623996 0.781427
vn 0.000000 0.623996 0.781427
vn 0.000000 0.991157 -0.132698
vn 0.000000 0.623996 -0.781428
vn 0.000000 0.623996 -0.781428
vn -0.186591 0.429245 -0.883704
vn -0.136130 0.340036 -0.930508
vn -0.195161 0.444267 -0.874379
vn -0.195161 0.444267 -0.874379
vn 0.186516 -0.339528 0.921918
vn 0.231025 -0.423069 0.876151
vn 0.238980 -0.438013 0.866622
vn 0.238980 -0.438013 0.866622
vn 0.000002 -0.000001 -1.000000
vn 0.000002 -0.000001 -1.000000
vn -0.007834 0.052774 -0.998576
vn -0.009704 0.065372 -0.997814
vn -0.000002 0.000001 1.000000
vn -0.000002 0.000001 1.000000
vn 0.038282 -0.066707 0.997038
vn 0.030923 -0.053884 0.998068
vn 0.000000 -1.000000 0.000000
vn 0.000000 -1.000000 0.000000
vn 0.000000 -1.000000 0.000000
vn 0.000000 -1.000000 0.000000
vn 0.000000 0.000000 1.000000
vn 0.000000 0.000000 1.000000
vn 0.000000 0.000000 1.000000
vn 0.000000 0.000000 1.000000
vn 0.000000 1.000000 0.000000
vn 0.000000 1.000000 0.000000
vn 0.000000 1.000000 0.000000
vn 0.000000 1.000000 0.000000
vn 0.000000 0.000000 -1.000000
vn 0.000000 0.000000 -1.000000
vn 0.000000 0.000000 -1.000000
vn 0.000000 0.000000 -1.000000
s off
g polySurface16 Silla6
usemtl lambert3SG
f 13/1/1 14/146/2 15/145/3 16/144/4
f 17/5/5 18/138/6 19/137/7 20/136/8
f 21/9/9 22/130/10 23/129/11 24/128/12
f 25/13/13 26/122/14 27/121/15 28/120/16
f 29/17/17 30/117/18 31/116/19 32/115/20
f 36/21/21 33/81/22 34/112/23 35/74/24
s 1
f 50/25/25 49/26/26 51/27/27
f 52/28/28 50/25/25 51/27/27
f 53/29/29 52/28/28 51/27/27
f 54/100/30 53/29/29 51/27/27
f 55/31/31 54/30/30 51/27/27
f 49/26/26 55/31/31 51/27/27
s 2
f 62/32/32 63/93/33 64/34/34
f 63/93/33 65/92/35 64/34/34
f 65/92/35 66/88/36 64/34/34
f 66/88/36 67/86/37 64/34/34
f 67/87/37 68/83/38 64/34/34
f 68/83/38 62/32/32 64/34/34
s off
f 1/79/39 2/139/40 14/2/41 13/142/42
s 3
f 2/139/43 8/154/44 15/3/45 14/2/46
s off
f 8/154/47 7/155/48 16/4/49 15/3/50
s 4
f 7/155/51 1/78/52 13/143/53 16/4/54
s off
f 2/141/55 3/131/56 18/6/57 17/134/58
s 5
f 3/131/59 9/152/60 19/7/61 18/6/62
s off
f 9/152/63 8/153/64 20/8/65 19/7/66
s 3
f 8/153/44 2/140/43 17/135/67 20/8/68
s off
f 3/133/69 4/123/70 22/10/71 21/126/72
s 6
f 4/123/73 10/150/74 23/11/75 22/10/76
s off
f 10/150/77 9/151/78 24/12/79 23/11/80
s 5
f 9/151/60 3/132/59 21/127/81 24/12/82
s off
f 4/125/83 5/102/84 26/14/85 25/118/86
s 7
f 5/102/87 11/108/88 27/15/89 26/14/90
s off
f 11/108/91 10/149/92 28/16/93 27/15/94
s 6
f 10/149/74 4/124/73 25/119/95 28/16/96
s off
f 5/104/97 6/75/98 30/18/99 29/113/100
s 8
f 6/75/101 12/148/102 31/19/103 30/18/104
s off
f 12/148/105 11/107/106 32/20/107 31/19/108
s 7
f 11/107/88 5/103/87 29/114/109 32/20/110
s off
f 1/39/111 34/23/112 33/82/113 6/77/114
s 4
f 35/24/115 34/23/116 1/39/52 7/156/51
s off
f 36/73/117 35/24/118 7/156/119 12/147/120
s 8
f 33/22/121 36/73/122 12/147/102 6/76/101
s 9
f 7/42/123 8/41/124 38/111/125 37/72/126
f 8/41/124 9/44/127 39/110/128 38/111/125
f 9/44/127 10/46/129 40/106/130 39/110/128
f 10/46/129 11/109/131 41/96/132 40/106/130
f 11/48/131 12/50/133 42/56/134 41/95/132
f 42/56/134 12/50/133 7/42/123 37/72/126
s 10
f 2/40/135 1/80/136 43/57/137 44/58/138
f 3/43/139 2/40/135 44/58/138 45/59/140
f 4/45/141 3/43/139 45/59/140 46/60/142
f 5/47/143 4/45/141 46/60/142 47/61/144
f 6/49/145 5/105/143 47/101/144 48/62/146
f 6/49/145 48/62/146 43/57/137 1/80/136
f 44/58/138 43/57/137 49/26/147 50/25/148
f 45/59/140 44/58/138 50/25/148 52/28/149
f 46/60/142 45/59/140 52/28/149 53/29/150
f 47/61/144 46/60/142 53/29/150 54/100/151
f 48/62/146 47/101/144 54/30/151 55/31/152
f 48/62/146 55/31/152 49/26/147 43/57/137
s 11
f 37/52/153 38/51/154 57/99/155 56/70/156
f 38/51/154 39/53/157 58/98/158 57/99/155
f 39/53/157 40/54/159 59/94/160 58/98/158
f 40/54/159 41/97/161 60/90/162 59/94/160
f 41/55/161 42/71/163 61/68/164 60/89/162
f 61/68/164 42/71/163 37/52/153 56/70/156
f 56/64/156 57/63/155 63/33/165 62/84/166
f 57/63/155 58/65/158 65/35/167 63/33/165
f 58/65/158 59/66/160 66/36/168 65/35/167
f 59/66/160 60/91/162 67/85/169 66/36/168
f 60/67/162 61/69/164 68/38/170 67/37/169
f 62/84/166 68/38/170 61/69/164 56/64/156
s 12
f 69/157/171 150/158/172 121/159/173 167/160/174
f 167/160/174 121/159/173 153/161/175 71/162/176
f 150/158/172 69/157/171 88/163/177 70/164/178
f 70/164/178 88/163/177 122/165/179 123/166/180
f 123/166/180 122/165/179 87/167/181 152/168/182
f 71/162/176 153/161/175 124/169/183 168/170/184
f 168/170/184 124/169/183 154/171/185 145/172/186
f 72/173/187 125/174/188 126/175/189 128/176/190
f 128/176/190 126/175/189 127/177/191 133/178/192
f 125/174/188 72/173/187 129/179/193 169/180/194
f 169/180/194 129/179/193 156/181/195 130/182/196
f 130/182/196 156/181/195 131/183/197 170/184/198
f 170/185/198 131/186/197 74/187/199 132/188/200
f 133/178/192 127/177/191 89/189/201 73/190/202
f 73/190/202 89/189/201 134/191/203 136/192/204
f 136/192/204 134/191/203 135/193/205 90/194/206
f 152/168/182 87/167/181 137/195/207 138/196/208
f 138/196/208 137/195/207 86/197/209 75/198/210
f 90/194/206 135/193/205 139/199/211 140/200/212
f 140/200/212 139/199/211 95/201/213 120/202/214
f 120/202/214 95/201/213 141/203/215 143/204/216
f 143/205/216 141/206/215 142/207/217 162/208/218
f 144/209/219 76/210/220 85/211/221 99/212/222
f 145/172/186 154/171/185 146/213/223 171/214/224
f 171/215/224 146/216/223 151/217/225 147/218/226
f 147/218/226 151/217/225 155/219/227 148/220/228
f 148/220/228 155/219/227 149/221/229 172/222/230
f 172/223/230 149/224/229 75/198/210 86/197/209
f 127/177/191 150/158/172 70/164/178 89/189/201
f 151/217/225 132/188/200 142/207/217 155/219/227
f 135/193/205 152/168/182 138/196/208 139/199/211
f 139/199/211 138/196/208 75/198/210 95/201/213
f 130/182/196 154/171/185 124/169/183 169/180/194
f 169/180/194 124/169/183 153/161/175 125/174/188
f 167/225/174 71/226/176 87/227/181 122/228/179
f 69/157/171 167/225/174 122/228/179 88/163/177
f 121/159/173 150/158/172 127/177/191 126/175/189
f 153/161/175 121/159/173 126/175/189 125/174/188
f 123/166/180 152/168/182 135/193/205 134/191/203
f 70/164/178 123/166/180 134/191/203 89/189/201
f 130/182/196 170/184/198 146/213/223 154/171/185
f 170/185/198 132/188/200 151/217/225 146/216/223
f 142/207/217 141/206/215 149/221/229 155/219/227
f 141/203/215 95/201/213 75/198/210 149/224/229
f 128/229/190 133/178/192 73/190/202 136/230/204
f 72/231/187 128/229/190 136/230/204 90/232/206
f 129/233/193 72/231/187 90/232/206 140/234/212
f 156/235/195 129/233/193 140/234/212 120/236/214
f 168/237/184 145/238/186 86/239/209 137/240/207
f 71/226/176 168/237/184 137/240/207 87/227/181
f 171/215/224 147/218/226 148/220/228 172/222/230
f 145/238/186 171/241/224 172/242/230 86/239/209
f 132/188/200 74/187/199 92/243/231 161/244/232
f 162/208/218 142/207/217 93/245/233 119/246/234
f 164/247/235 163/248/236 117/249/237 118/250/238
f 131/251/197 156/252/195 166/253/239 165/254/240
f 74/255/199 131/251/197 165/254/240 92/256/231
f 156/252/195 120/257/214 94/258/241 166/253/239
f 143/259/216 162/260/218 119/261/234 96/262/242
f 120/257/214 143/259/216 96/262/242 94/258/241
f 157/263/243 77/264/244 97/265/245 173/266/246
f 173/266/246 97/265/245 76/267/220 144/268/219
f 78/269/247 160/270/248 98/271/249 100/272/250
f 100/272/250 98/271/249 99/273/222 85/274/221
f 81/275/251 80/276/252 101/277/253 103/278/254
f 103/278/254 101/277/253 102/279/255 82/280/256
f 77/281/244 158/282/257 174/283/258 97/284/245
f 158/282/257 79/285/259 176/286/260 174/283/258
f 174/283/258 176/286/260 83/287/261 104/288/262
f 97/284/245 174/283/258 104/288/262 76/210/220
f 91/289/263 159/290/264 175/291/265 106/292/266
f 159/290/264 78/293/247 100/294/250 175/291/265
f 175/291/265 100/294/250 85/211/221 105/295/267
f 106/292/266 175/291/265 105/295/267 84/296/268
f 142/207/217 132/188/200 110/297/269 115/298/270
f 132/188/200 161/244/232 109/299/271 110/297/269
f 157/263/243 173/266/246 111/300/272 107/301/273
f 173/266/246 144/268/219 112/302/274 111/300/272
f 144/268/219 99/273/222 114/303/275 112/302/274
f 99/273/222 98/271/249 113/304/276 114/303/275
f 98/271/249 160/270/248 108/305/277 113/304/276
f 93/245/233 142/207/217 115/298/270 116/306/278
f 115/298/270 110/297/269 163/248/236 164/247/235
f 110/297/269 109/299/271 117/249/237 163/248/236
f 111/300/272 112/302/274 102/279/255 101/277/253
f 107/301/273 111/300/272 101/277/253 80/276/252
f 112/302/274 114/303/275 82/280/256 102/279/255
f 113/304/276 108/305/277 81/275/251 103/278/254
f 114/303/275 113/304/276 103/278/254 82/280/256
f 116/306/278 115/298/270 164/247/235 118/250/238
f 104/288/262 83/287/261 84/296/268 105/295/267
f 76/210/220 104/288/262 105/295/267 85/211/221
f 79/285/259 91/289/263 106/292/266 176/286/260
f 176/286/260 106/292/266 84/296/268 83/287/261
f 166/253/239 94/258/241 91/289/263 79/285/259
f 165/254/240 166/253/239 79/285/259 158/282/257
f 92/256/231 165/254/240 158/282/257 77/281/244
f 161/244/232 92/243/231 77/264/244 157/263/243
f 109/299/271 161/244/232 157/263/243 107/301/273
f 117/249/237 109/299/271 107/301/273 80/276/252
f 118/250/238 117/249/237 80/276/252 81/275/251
f 108/305/277 116/306/278 118/250/238 81/275/251
f 160/270/248 93/245/233 116/306/278 108/305/277
f 119/246/234 93/245/233 160/270/248 78/269/247
f 96/262/242 119/261/234 78/293/247 159/290/264
f 94/258/241 96/262/242 159/290/264 91/289/263
s 16
f 179/307/279 181/308/280 177/309/281 200/310/282
s off
f 183/311/283 180/312/284 199/313/285 178/314/286
s 17
f 181/315/287 182/316/288 186/317/289 177/318/290
f 184/319/291 183/320/292 178/321/293 185/322/294
s off
f 190/323/295 191/324/296 189/325/297 188/326/298
s 18
f 192/327/299 190/323/300 188/326/301 187/328/302
f 182/329/303 192/327/299 187/328/302 186/330/304
s off
f 194/331/305 193/332/306 196/333/307 197/334/308
s 19
f 193/332/309 195/335/310 198/336/311 196/333/312
f 195/335/310 184/337/313 185/338/314 198/336/311
s 16
f 200/310/282 177/309/315 178/314/316 199/313/317
f 180/312/318 183/311/319 181/308/320 179/307/279
s 17
f 181/315/287 183/320/292 184/319/291 182/316/288
f 178/321/293 177/318/290 186/317/289 185/322/294
s 20
f 192/339/321 182/340/322 184/337/323 195/335/324
s 21
f 198/336/325 185/338/326 186/330/327 187/328/328
s 20
f 191/341/329 190/342/330 193/332/331 194/331/332
f 190/342/330 192/339/321 195/335/324 193/332/331
s 21
f 197/334/333 196/333/334 188/326/335 189/325/336
f 196/333/334 198/336/325 187/328/328 188/326/335
s 16
f 180/312/318 179/307/279 200/310/282 199/313/317
s off
f 194/331/337 197/334/338 202/343/339 201/344/340
f 197/334/341 189/325/342 203/345/343 202/343/344
f 189/325/345 191/324/346 204/346/347 203/345/348
f 191/341/349 194/331/350 201/344/351 204/347/352
s 22
f 207/348/353 228/349/354 205/350/355 209/351/356
s off
f 211/352/357 206/353/358 227/354/359 208/355/360
s 23
f 209/356/361 205/357/362 214/358/363 210/359/364
f 212/360/365 213/361/366 206/362/367 211/363/368
s off
f 218/364/369 216/365/370 217/366/371 219/367/372
s 24
f 220/368/373 215/369/374 216/365/375 218/364/376
f 210/370/377 214/371/378 215/369/374 220/368/373
s off
f 222/372/379 225/373/380 224/374/381 221/375/382
s 25
f 221/375/383 224/374/384 226/376/385 223/377/386
f 223/377/386 226/376/385 213/378/387 212/379/388
s 22
f 228/349/354 227/354/389 206/353/390 205/350/391
f 208/355/392 207/348/353 209/351/393 211/352/394
s 23
f 209/356/361 210/359/364 212/360/365 211/363/368
f 206/362/367 213/361/366 214/358/363 205/357/362
s 26
f 220/380/395 223/377/396 212/379/397 210/381/398
s 27
f 226/376/399 215/369/400 214/371/401 213/378/402
s 26
f 219/382/403 222/372/404 221/375/405 218/383/406
f 218/383/406 221/375/405 223/377/396 220/380/395
s 27
f 225/373/407 217/366/408 216/365/409 224/374/410
f 224/374/410 216/365/409 215/369/400 226/376/399
s 22
f 208/355/392 227/354/389 228/349/354 207/348/353
s off
f 222/372/411 229/384/412 230/385/413 225/373/414
f 225/373/415 230/385/416 231/386/417 217/366/418
f 217/366/419 231/386/420 232/387/421 219/367/422
f 219/382/423 232/388/424 229/384/425 222/372/426
g default
v 0.018903 0.036738 0.257425
v 0.006967 0.045410 0.257425
v -0.007788 0.045410 0.257425
v -0.019725 0.036738 0.257425
v -0.024284 0.022705 0.257425
v -0.019725 0.008673 0.257425
v -0.007788 -0.000000 0.257425
v 0.006967 -0.000000 0.257425
v 0.018903 0.008673 0.257425
v 0.023463 0.022705 0.257425
v 0.018903 0.036738 0.279497
v 0.006967 0.045410 0.279497
v -0.007788 0.045410 0.279497
v -0.019725 0.036738 0.279497
v -0.024284 0.022705 0.279497
v -0.019725 0.008673 0.279497
v -0.007788 -0.000000 0.279497
v 0.006967 -0.000000 0.279497
v 0.018903 0.008673 0.279497
v 0.023463 0.022705 0.279497
v -0.000411 0.022705 0.257425
v -0.000411 0.022705 0.279497
v -0.232389 0.036738 -0.112342
v -0.226420 0.045410 -0.122680
v -0.219043 0.045410 -0.135458
v -0.213074 0.036738 -0.145795
v -0.210795 0.022705 -0.149744
v -0.213074 0.008673 -0.145795
v -0.219043 -0.000000 -0.135458
v -0.226420 -0.000000 -0.122680
v -0.232389 0.008673 -0.112342
v -0.234668 0.022705 -0.108393
v -0.251503 0.036738 -0.123378
v -0.245535 0.045410 -0.133715
v -0.238157 0.045410 -0.146493
v -0.232189 0.036738 -0.156831
v -0.229909 0.022705 -0.160780
v -0.232189 0.008673 -0.156831
v -0.238157 -0.000000 -0.146493
v -0.245535 -0.000000 -0.133715
v -0.251503 0.008673 -0.123378
v -0.253783 0.022705 -0.119429
v -0.222732 0.022705 -0.129068
v -0.241846 0.022705 -0.140104
v 0.232389 0.036738 0.112342
v 0.226420 0.045410 0.122679
v 0.219043 0.045410 0.135458
v 0.213074 0.036738 0.145795
v 0.210795 0.022705 0.149744
v 0.213074 0.008673 0.145795
v 0.219043 -0.000000 0.135458
v 0.226420 -0.000000 0.122680
v 0.232389 0.008673 0.112342
v 0.234668 0.022705 0.108393
v 0.251503 0.036738 0.123378
v 0.245535 0.045410 0.133715
v 0.238157 0.045410 0.146493
v 0.232189 0.036738 0.156831
v 0.229909 0.022705 0.160780
v 0.232189 0.008673 0.156831
v 0.238157 -0.000000 0.146493
v 0.245535 -0.000000 0.133715
v 0.251503 0.008673 0.123378
v 0.253783 0.022705 0.119429
v 0.222732 0.022705 0.129069
v 0.241846 0.022705 0.140104
v 0.213485 0.036738 -0.145083
v 0.219454 0.045410 -0.134746
v 0.226831 0.045410 -0.121968
v 0.232799 0.036738 -0.111630
v 0.235079 0.022705 -0.107682
v 0.232799 0.008673 -0.111630
v 0.226831 -0.000000 -0.121968
v 0.219454 -0.000000 -0.134746
v 0.213485 0.008673 -0.145083
v 0.211206 0.022705 -0.149032
v 0.232600 0.036738 -0.156119
v 0.238568 0.045410 -0.145782
v 0.245946 0.045410 -0.133004
v 0.251914 0.036738 -0.122666
v 0.254194 0.022705 -0.118718
v 0.251914 0.008673 -0.122666
v 0.245946 -0.000000 -0.133004
v 0.238568 -0.000000 -0.145782
v 0.232600 0.008673 -0.156119
v 0.230320 0.022705 -0.160068
v 0.223142 0.022705 -0.128357
v 0.242257 0.022705 -0.139393
v -0.018903 0.036738 -0.257425
v -0.006967 0.045410 -0.257425
v 0.007788 0.045410 -0.257425
v 0.019725 0.036738 -0.257425
v 0.024284 0.022705 -0.257425
v 0.019725 0.008673 -0.257425
v 0.007788 -0.000000 -0.257425
v -0.006967 -0.000000 -0.257425
v -0.018903 0.008673 -0.257425
v -0.023463 0.022705 -0.257425
v -0.018903 0.036738 -0.279497
v -0.006967 0.045410 -0.279497
v 0.007788 0.045410 -0.279497
v 0.019725 0.036738 -0.279497
v 0.024284 0.022705 -0.279497
v 0.019725 0.008673 -0.279497
v 0.007788 -0.000000 -0.279497
v -0.006967 -0.000000 -0.279497
v -0.018903 0.008673 -0.279497
v -0.023463 0.022705 -0.279497
v 0.000411 0.022705 -0.257425
v 0.000411 0.022705 -0.279497
v -0.213485 0.036738 0.145083
v -0.219454 0.045410 0.134746
v -0.226831 0.045410 0.121968
v -0.232799 0.036738 0.111630
v -0.235079 0.022705 0.107682
v -0.232799 0.008673 0.111630
v -0.226831 -0.000000 0.121968
v -0.219454 -0.000000 0.134746
v -0.213485 0.008673 0.145083
v -0.211205 0.022705 0.149032
v -0.232600 0.036738 0.156119
v -0.238568 0.045410 0.145782
v -0.245946 0.045410 0.133004
v -0.251914 0.036738 0.122666
v -0.254194 0.022705 0.118718
v -0.251914 0.008673 0.122666
v -0.245946 -0.000000 0.133004
v -0.238568 -0.000000 0.145782
v -0.232600 0.008673 0.156119
v -0.230320 0.022705 0.160068
v -0.223142 0.022705 0.128357
v -0.242257 0.022705 0.139393
v -0.211230 0.038385 0.146399
v -0.217899 0.048076 0.134848
v -0.226142 0.048076 0.120570
v -0.232811 0.038385 0.109019
v -0.235358 0.022705 0.104607
v -0.208682 0.022705 0.150811
v -0.232588 0.038385 0.158731
v -0.239257 0.048076 0.147179
v -0.247501 0.048076 0.132902
v -0.254170 0.038385 0.121350
v -0.256717 0.022705 0.116938
v -0.230041 0.022705 0.163143
v -0.222020 0.022705 0.127709
v -0.243379 0.022705 0.140041
v -0.217899 0.082562 0.134848
v -0.226142 0.082562 0.120570
v -0.247501 0.082563 0.132901
v -0.239257 0.082563 0.147180
v -0.232400 0.038385 -0.109731
v -0.225731 0.048076 -0.121282
v -0.217488 0.048076 -0.135560
v -0.210819 0.038385 -0.147111
v -0.208271 0.022705 -0.151523
v -0.234948 0.022705 -0.105318
v -0.253759 0.038385 -0.122062
v -0.247090 0.048076 -0.133613
v -0.238846 0.048076 -0.147891
v -0.232177 0.038385 -0.159442
v -0.229630 0.022705 -0.163854
v -0.256306 0.022705 -0.117650
v -0.221610 0.022705 -0.128421
v -0.242968 0.022705 -0.140752
v -0.225731 0.082562 -0.121282
v -0.217488 0.082562 -0.135560
v -0.238846 0.082563 -0.147891
v -0.247090 0.082563 -0.133613
v -0.021171 0.038385 -0.256130
v -0.007833 0.048076 -0.256130
v 0.008654 0.048076 -0.256130
v 0.021992 0.038385 -0.256130
v 0.027087 0.022705 -0.256130
v -0.026265 0.022705 -0.256130
v -0.021171 0.038385 -0.280793
v -0.007833 0.048076 -0.280793
v 0.008654 0.048076 -0.280793
v 0.021992 0.038385 -0.280793
v 0.027087 0.022705 -0.280793
v -0.026265 0.022705 -0.280793
v 0.000411 0.022705 -0.256130
v 0.000411 0.022705 -0.280793
v -0.007833 0.082562 -0.256130
v 0.008654 0.082562 -0.256130
v 0.008654 0.082563 -0.280793
v -0.007833 0.082563 -0.280793
v 0.211230 0.038385 -0.146399
v 0.217899 0.048076 -0.134848
v 0.226142 0.048076 -0.120570
v 0.232811 0.038385 -0.109019
v 0.235358 0.022705 -0.104607
v 0.208682 0.022705 -0.150811
v 0.232588 0.038385 -0.158731
v 0.239257 0.048076 -0.147179
v 0.247501 0.048076 -0.132902
v 0.254170 0.038385 -0.121350
v 0.256717 0.022705 -0.116938
v 0.230041 0.022705 -0.163143
v 0.222020 0.022705 -0.127709
v 0.243379 0.022705 -0.140041
v 0.217899 0.082562 -0.134848
v 0.226142 0.082562 -0.120570
v 0.247501 0.082563 -0.132902
v 0.239257 0.082563 -0.147179
v 0.232400 0.038385 0.109731
v 0.225731 0.048076 0.121282
v 0.217488 0.048076 0.135560
v 0.210819 0.038385 0.147111
v 0.208272 0.022705 0.151523
v 0.234948 0.022705 0.105318
v 0.253759 0.038385 0.122062
v 0.247090 0.048076 0.133613
v 0.238846 0.048076 0.147891
v 0.232177 0.038385 0.159442
v 0.229630 0.022705 0.163854
v 0.256306 0.022705 0.117650
v 0.221610 0.022705 0.128421
v 0.242968 0.022705 0.140752
v 0.225731 0.082562 0.121282
v 0.217488 0.082562 0.135560
v 0.238846 0.082563 0.147891
v 0.247090 0.082563 0.133613
v 0.021171 0.038385 0.256130
v 0.007833 0.048076 0.256130
v -0.008654 0.048076 0.256130
v -0.021992 0.038385 0.256130
v -0.027087 0.022705 0.256130
v 0.026265 0.022705 0.256130
v 0.021171 0.038385 0.280793
v 0.007833 0.048076 0.280793
v -0.008654 0.048076 0.280793
v -0.021992 0.038385 0.280793
v -0.027087 0.022705 0.280793
v 0.026265 0.022705 0.280793
v -0.000411 0.022705 0.256130
v -0.000411 0.022705 0.280793
v 0.007833 0.082562 0.256130
v -0.008654 0.082562 0.256130
v -0.008654 0.082563 0.280793
v 0.007833 0.082563 0.280793
vt 0.122063 0.684844
vt 0.107795 0.593238
vt 0.244827 0.571893
vt 0.259096 0.663499
vt 0.093526 0.501633
vt 0.230559 0.480288
vt 0.079257 0.410028
vt 0.216290 0.388683
vt 0.064988 0.318423
vt 0.202021 0.297078
vt 0.050719 0.226818
vt 0.187752 0.205473
vt 0.036450 0.135213
vt 0.173483 0.113868
vt 0.022181 0.043607
vt 0.159214 0.022262
vt 0.164868 0.959660
vt 0.150600 0.868054
vt 0.287633 0.846709
vt 0.301901 0.938315
vt 0.136331 0.776449
vt 0.273364 0.755104
vt 0.735635 0.904005
vt 0.684821 0.826461
vt 0.829556 0.787038
vt 0.822324 0.936872
vt 0.911774 0.912507
vt 0.969821 0.840218
vt 0.974291 0.747616
vt 0.923477 0.670072
vt 0.836789 0.637205
vt 0.747337 0.661569
vt 0.689291 0.733859
vt 0.739018 0.667018
vt 0.672671 0.731773
vt 0.606197 0.597298
vt 0.580933 0.745163
vt 0.498846 0.702073
vt 0.457762 0.618963
vt 0.473376 0.527577
vt 0.539723 0.462822
vt 0.631461 0.449433
vt 0.713549 0.492522
vt 0.754632 0.575633
vt 0.122063 0.684844
vt 0.107795 0.593238
vt 0.244827 0.571893
vt 0.259096 0.663499
vt 0.093526 0.501633
vt 0.230559 0.480288
vt 0.079257 0.410028
vt 0.216290 0.388683
vt 0.064988 0.318423
vt 0.202021 0.297078
vt 0.050719 0.226818
vt 0.187752 0.205473
vt 0.036450 0.135213
vt 0.173483 0.113868
vt 0.022181 0.043607
vt 0.159214 0.022262
vt 0.164868 0.959660
vt 0.150600 0.868054
vt 0.287633 0.846709
vt 0.301901 0.938315
vt 0.136331 0.776449
vt 0.273364 0.755104
vt 0.735635 0.904005
vt 0.684821 0.826461
vt 0.829556 0.787038
vt 0.822324 0.936872
vt 0.911774 0.912507
vt 0.969821 0.840218
vt 0.974291 0.747616
vt 0.923477 0.670072
vt 0.836789 0.637205
vt 0.747337 0.661569
vt 0.689291 0.733859
vt 0.739018 0.667018
vt 0.672671 0.731773
vt 0.606197 0.597298
vt 0.580933 0.745163
vt 0.498846 0.702073
vt 0.457762 0.618963
vt 0.473376 0.527577
vt 0.539723 0.462822
vt 0.631461 0.449433
vt 0.713549 0.492522
vt 0.754632 0.575633
vt 0.122063 0.684844
vt 0.107795 0.593238
vt 0.244827 0.571893
vt 0.259096 0.663499
vt 0.093526 0.501633
vt 0.230559 0.480288
vt 0.079257 0.410028
vt 0.216290 0.388683
vt 0.064988 0.318423
vt 0.202021 0.297078
vt 0.050719 0.226818
vt 0.187752 0.205473
vt 0.036450 0.135213
vt 0.173483 0.113868
vt 0.022181 0.043607
vt 0.159214 0.022262
vt 0.164868 0.959660
vt 0.150600 0.868054
vt 0.287633 0.846709
vt 0.301901 0.938315
vt 0.136331 0.776449
vt 0.273364 0.755104
vt 0.735635 0.904005
vt 0.684821 0.826461
vt 0.829556 0.787038
vt 0.822324 0.936872
vt 0.911774 0.912507
vt 0.969821 0.840218
vt 0.974291 0.747616
vt 0.923477 0.670072
vt 0.836789 0.637205
vt 0.747337 0.661569
vt 0.689291 0.733859
vt 0.739018 0.667018
vt 0.672671 0.731773
vt 0.606197 0.597298
vt 0.580933 0.745163
vt 0.498846 0.702073
vt 0.457762 0.618963
vt 0.473376 0.527577
vt 0.539723 0.462822
vt 0.631461 0.449433
vt 0.713549 0.492522
vt 0.754632 0.575633
vt 0.122063 0.684844
vt 0.107795 0.593238
vt 0.244827 0.571893
vt 0.259096 0.663499
vt 0.093526 0.501633
vt 0.230559 0.480288
vt 0.079257 0.410028
vt 0.216290 0.388683
vt 0.064988 0.318423
vt 0.202021 0.297078
vt 0.050719 0.226818
vt 0.187752 0.205473
vt 0.036450 0.135213
vt 0.173483 0.113868
vt 0.022181 0.043607
vt 0.159214 0.022262
vt 0.164868 0.959660
vt 0.150600 0.868054
vt 0.287633 0.846709
vt 0.301901 0.938315
vt 0.136331 0.776449
vt 0.273364 0.755104
vt 0.735635 0.904005
vt 0.684821 0.826461
vt 0.829556 0.787038
vt 0.822324 0.936872
vt 0.911774 0.912507
vt 0.969821 0.840218
vt 0.974291 0.747616
vt 0.923477 0.670072
vt 0.836789 0.637205
vt 0.747337 0.661569
vt 0.689291 0.733859
vt 0.739018 0.667018
vt 0.672671 0.731773
vt 0.606197 0.597298
vt 0.580933 0.745163
vt 0.498846 0.702073
vt 0.457762 0.618963
vt 0.473376 0.527577
vt 0.539723 0.462822
vt 0.631461 0.449433
vt 0.713549 0.492522
vt 0.754632 0.575633
vt 0.122063 0.684844
vt 0.107795 0.593238
vt 0.244827 0.571893
vt 0.259096 0.663499
vt 0.093526 0.501633
vt 0.230559 0.480288
vt 0.079257 0.410028
vt 0.216290 0.388683
vt 0.064988 0.318423
vt 0.202021 0.297078
vt 0.050719 0.226818
vt 0.187752 0.205473
vt 0.036450 0.135213
vt 0.173483 0.113868
vt 0.022181 0.043607
vt 0.159214 0.022262
vt 0.164868 0.959660
vt 0.150600 0.868054
vt 0.287633 0.846709
vt 0.301901 0.938315
vt 0.136331 0.776449
vt 0.273364 0.755104
vt 0.735635 0.904005
vt 0.684821 0.826461
vt 0.829556 0.787038
vt 0.822324 0.936872
vt 0.911774 0.912507
vt 0.969821 0.840218
vt 0.974291 0.747616
vt 0.923477 0.670072
vt 0.836789 0.637205
vt 0.747337 0.661569
vt 0.689291 0.733859
vt 0.739018 0.667018
vt 0.672671 0.731773
vt 0.606197 0.597298
vt 0.580933 0.745163
vt 0.498846 0.702073
vt 0.457762 0.618963
vt 0.473376 0.527577
vt 0.539723 0.462822
vt 0.631461 0.449433
vt 0.713549 0.492522
vt 0.754632 0.575633
vt 0.122063 0.684844
vt 0.107795 0.593238
vt 0.244827 0.571893
vt 0.259096 0.663499
vt 0.093526 0.501633
vt 0.230559 0.480288
vt 0.079257 0.410028
vt 0.216290 0.388683
vt 0.064988 0.318423
vt 0.202021 0.297078
vt 0.050719 0.226818
vt 0.187752 0.205473
vt 0.036450 0.135213
vt 0.173483 0.113868
vt 0.022181 0.043607
vt 0.159214 0.022262
vt 0.164868 0.959660
vt 0.150600 0.868054
vt 0.287633 0.846709
vt 0.301901 0.938315
vt 0.136331 0.776449
vt 0.273364 0.755104
vt 0.735635 0.904005
vt 0.684821 0.826461
vt 0.829556 0.787038
vt 0.822324 0.936872
vt 0.911774 0.912507
vt 0.969821 0.840218
vt 0.974291 0.747616
vt 0.923477 0.670072
vt 0.836789 0.637205
vt 0.747337 0.661569
vt 0.689291 0.733859
vt 0.739018 0.667018
vt 0.672671 0.731773
vt 0.606197 0.597298
vt 0.580933 0.745163
vt 0.498846 0.702073
vt 0.457762 0.618963
vt 0.473376 0.527577
vt 0.539723 0.462822
vt 0.631461 0.449433
vt 0.713549 0.492522
vt 0.754632 0.575633
vt 0.306480 0.874192
vt 0.303449 0.770643
vt 0.458349 0.766109
vt 0.461379 0.869658
vt 0.297109 0.554042
vt 0.294078 0.450494
vt 0.448979 0.445960
vt 0.452010 0.549509
vt 0.287738 0.233893
vt 0.284708 0.130344
vt 0.439607 0.125810
vt 0.442638 0.229359
vt 0.281676 0.026796
vt 0.436576 0.022262
vt 0.309510 0.977741
vt 0.464410 0.973207
vt 0.756323 0.364778
vt 0.671746 0.304958
vt 0.806086 0.204718
vt 0.859907 0.363460
vt 0.942934 0.301507
vt 0.973690 0.202585
vt 0.638483 0.206851
vt 0.728059 0.157266
vt 0.637408 0.207406
vt 0.605576 0.042839
vt 0.534599 0.194686
vt 0.458901 0.123967
vt 0.439227 0.022259
vt 0.771925 0.063418
vt 0.862664 0.580135
vt 0.759080 0.581453
vt 0.610803 0.422459
vt 0.507994 0.409741
vt 0.306480 0.874192
vt 0.303449 0.770643
vt 0.458349 0.766109
vt 0.461379 0.869658
vt 0.297109 0.554042
vt 0.294078 0.450494
vt 0.448979 0.445960
vt 0.452010 0.549509
vt 0.287738 0.233893
vt 0.284708 0.130344
vt 0.439607 0.125810
vt 0.442638 0.229359
vt 0.281676 0.026796
vt 0.436576 0.022262
vt 0.309510 0.977741
vt 0.464410 0.973207
vt 0.756323 0.364778
vt 0.671746 0.304958
vt 0.806086 0.204718
vt 0.859907 0.363460
vt 0.942934 0.301507
vt 0.973690 0.202585
vt 0.638483 0.206851
vt 0.728059 0.157266
vt 0.637408 0.207406
vt 0.605576 0.042839
vt 0.534599 0.194686
vt 0.458901 0.123967
vt 0.439227 0.022259
vt 0.771925 0.063418
vt 0.862664 0.580135
vt 0.759080 0.581453
vt 0.610803 0.422459
vt 0.507994 0.409741
vt 0.306480 0.874192
vt 0.303449 0.770643
vt 0.458349 0.766109
vt 0.461379 0.869658
vt 0.297109 0.554042
vt 0.294078 0.450494
vt 0.448979 0.445960
vt 0.452010 0.549509
vt 0.287738 0.233893
vt 0.284708 0.130344
vt 0.439607 0.125810
vt 0.442638 0.229359
vt 0.281676 0.026796
vt 0.436576 0.022262
vt 0.309510 0.977741
vt 0.464410 0.973207
vt 0.756323 0.364778
vt 0.671746 0.304958
vt 0.806086 0.204718
vt 0.859907 0.363460
vt 0.942934 0.301507
vt 0.973690 0.202585
vt 0.638483 0.206851
vt 0.728059 0.157266
vt 0.637408 0.207406
vt 0.605576 0.042839
vt 0.534599 0.194686
vt 0.458901 0.123967
vt 0.439227 0.022259
vt 0.771925 0.063418
vt 0.862664 0.580135
vt 0.759080 0.581453
vt 0.610803 0.422459
vt 0.507994 0.409741
vt 0.306480 0.874192
vt 0.303449 0.770643
vt 0.458349 0.766109
vt 0.461379 0.869658
vt 0.297109 0.554042
vt 0.294078 0.450494
vt 0.448979 0.445960
vt 0.452010 0.549509
vt 0.287738 0.233893
vt 0.284708 0.130344
vt 0.439607 0.125810
vt 0.442638 0.229359
vt 0.281676 0.026796
vt 0.436576 0.022262
vt 0.309510 0.977741
vt 0.464410 0.973207
vt 0.756323 0.364778
vt 0.671746 0.304958
vt 0.806086 0.204718
vt 0.859907 0.363460
vt 0.942934 0.301507
vt 0.973690 0.202585
vt 0.638483 0.206851
vt 0.728059 0.157266
vt 0.637408 0.207406
vt 0.605576 0.042839
vt 0.534599 0.194686
vt 0.458901 0.123967
vt 0.439227 0.022259
vt 0.771925 0.063418
vt 0.862664 0.580135
vt 0.759080 0.581453
vt 0.610803 0.422459
vt 0.507994 0.409741
vt 0.306480 0.874192
vt 0.303449 0.770643
vt 0.458349 0.766109
vt 0.461379 0.869658
vt 0.297109 0.554042
vt 0.294078 0.450494
vt 0.448979 0.445960
vt 0.452010 0.549509
vt 0.287738 0.233893
vt 0.284708 0.130344
vt 0.439607 0.125810
vt 0.442638 0.229359
vt 0.281676 0.026796
vt 0.436576 0.022262
vt 0.309510 0.977741
vt 0.464410 0.973207
vt 0.756323 0.364778
vt 0.671746 0.304958
vt 0.806086 0.204718
vt 0.859907 0.363460
vt 0.942934 0.301507
vt 0.973690 0.202585
vt 0.638483 0.206851
vt 0.728059 0.157266
vt 0.637408 0.207406
vt 0.605576 0.042839
vt 0.534599 0.194686
vt 0.458901 0.123967
vt 0.439227 0.022259
vt 0.771925 0.063418
vt 0.862664 0.580135
vt 0.759080 0.581453
vt 0.610803 0.422459
vt 0.507994 0.409741
vt 0.306480 0.874192
vt 0.303449 0.770643
vt 0.458349 0.766109
vt 0.461379 0.869658
vt 0.297109 0.554042
vt 0.294078 0.450494
vt 0.448979 0.445960
vt 0.452010 0.549509
vt 0.287738 0.233893
vt 0.284708 0.130344
vt 0.439607 0.125810
vt 0.442638 0.229359
vt 0.281676 0.026796
vt 0.436576 0.022262
vt 0.309510 0.977741
vt 0.464410 0.973207
vt 0.756323 0.364778
vt 0.671746 0.304958
vt 0.806086 0.204718
vt 0.859907 0.363460
vt 0.942934 0.301507
vt 0.973690 0.202585
vt 0.638483 0.206851
vt 0.728059 0.157266
vt 0.637408 0.207406
vt 0.605576 0.042839
vt 0.534599 0.194686
vt 0.458901 0.123967
vt 0.439227 0.022259
vt 0.771925 0.063418
vt 0.862664 0.580135
vt 0.759080 0.581453
vt 0.610803 0.422459
vt 0.507994 0.409741
vn 0.809017 0.587786 -0.000002
vn 0.309016 0.951057 -0.000003
vn 0.309015 0.951057 -0.000003
vn 0.809016 0.587787 -0.000002
vn -0.309018 0.951056 -0.000003
vn -0.309017 0.951057 -0.000003
vn -0.809019 0.587783 -0.000002
vn -0.809018 0.587784 -0.000002
vn -1.000000 -0.000000 0.000000
vn -1.000000 0.000001 -0.000000
vn -0.809018 -0.587784 0.000001
vn -0.809018 -0.587784 0.000001
vn -0.309018 -0.951056 0.000001
vn -0.309018 -0.951056 0.000001
vn 0.309016 -0.951057 0.000001
vn 0.309016 -0.951057 0.000001
vn 0.809016 -0.587786 0.000001
vn 0.809017 -0.587785 0.000001
vn 1.000000 -0.000000 0.000000
vn 1.000000 0.000000 -0.000000
vn -0.000004 0.000002 -1.000000
vn -0.000004 0.000000 -1.000000
vn -0.000000 0.000001 -1.000000
vn 0.000003 0.000002 -1.000000
vn 0.000003 0.000000 -1.000000
vn 0.000000 -0.000001 -1.000000
vn -0.000001 0.000001 -1.000000
vn -0.000001 0.000002 -1.000000
vn 0.000001 0.000002 -1.000000
vn 0.000001 0.000001 -1.000000
vn 0.000000 -0.000001 -1.000000
vn 0.000004 -0.000000 1.000000
vn 0.000004 -0.000002 1.000000
vn 0.000001 -0.000000 1.000000
vn -0.000001 -0.000001 1.000000
vn -0.000001 -0.000002 1.000000
vn 0.000000 -0.000001 1.000000
vn -0.000001 0.000001 1.000000
vn 0.000003 0.000001 1.000000
vn 0.000003 -0.000001 1.000000
vn -0.000001 -0.000001 1.000000
vn 0.000000 0.000001 1.000000
vn -0.404507 0.587786 0.700630
vn -0.154505 0.951057 0.267617
vn -0.154506 0.951057 0.267618
vn -0.404506 0.587786 0.700630
vn 0.154510 0.951057 -0.267615
vn 0.154510 0.951057 -0.267614
vn 0.404511 0.587784 -0.700629
vn 0.404511 0.587784 -0.700629
vn 0.500000 -0.000001 -0.866025
vn 0.500000 0.000000 -0.866025
vn 0.404507 -0.587785 -0.700630
vn 0.404507 -0.587785 -0.700631
vn 0.154508 -0.951056 -0.267618
vn 0.154507 -0.951057 -0.267617
vn -0.154509 -0.951057 0.267616
vn -0.154510 -0.951056 0.267617
vn -0.404511 -0.587785 0.700628
vn -0.404511 -0.587785 0.700629
vn -0.500001 0.000000 0.866025
vn -0.500001 0.000001 0.866025
vn 0.866026 -0.000001 0.500000
vn 0.866025 -0.000002 0.500001
vn 0.866025 -0.000001 0.500000
vn 0.866026 -0.000001 0.499999
vn 0.866026 -0.000001 0.499999
vn 0.866026 0.000000 0.500000
vn 0.866026 -0.000000 0.499999
vn 0.866026 -0.000000 0.499999
vn 0.866025 0.000000 0.500001
vn 0.866024 0.000000 0.500002
vn 0.866025 -0.000001 0.500001
vn -0.866025 -0.000004 -0.500001
vn -0.866024 -0.000002 -0.500002
vn -0.866025 -0.000001 -0.500001
vn -0.866024 -0.000001 -0.500002
vn -0.866025 -0.000000 -0.500001
vn -0.866026 -0.000001 -0.499999
vn -0.866025 -0.000001 -0.500000
vn -0.866025 -0.000000 -0.500001
vn -0.866025 -0.000000 -0.500001
vn -0.866025 0.000001 -0.500001
vn -0.866026 -0.000001 -0.500000
vn 0.404507 0.587785 -0.700630
vn 0.154506 0.951057 -0.267618
vn 0.154506 0.951057 -0.267617
vn 0.404507 0.587785 -0.700630
vn -0.154510 0.951057 0.267615
vn -0.154509 0.951057 0.267614
vn -0.404510 0.587785 0.700628
vn -0.404510 0.587786 0.700628
vn -0.500001 -0.000001 0.866025
vn -0.500002 0.000000 0.866025
vn -0.404509 -0.587785 0.700629
vn -0.404509 -0.587784 0.700630
vn -0.154508 -0.951057 0.267617
vn -0.154508 -0.951057 0.267617
vn 0.154509 -0.951057 -0.267616
vn 0.154509 -0.951057 -0.267616
vn 0.404510 -0.587785 -0.700629
vn 0.404510 -0.587785 -0.700629
vn 0.500000 -0.000001 -0.866025
vn 0.500000 0.000000 -0.866025
vn -0.866025 -0.000000 -0.500001
vn -0.866024 -0.000001 -0.500002
vn -0.866026 -0.000000 -0.500000
vn -0.866027 -0.000001 -0.499998
vn -0.866026 0.000001 -0.499999
vn -0.866026 0.000000 -0.500000
vn -0.866026 -0.000000 -0.499999
vn -0.866026 0.000001 -0.499999
vn -0.866025 -0.000001 -0.500001
vn -0.866025 0.000001 -0.500001
vn -0.866025 0.000001 -0.500001
vn 0.866026 0.000000 0.499999
vn 0.866025 0.000000 0.500001
vn 0.866025 0.000001 0.500000
vn 0.866025 0.000001 0.500001
vn 0.866025 -0.000000 0.500000
vn 0.866024 -0.000000 0.500002
vn 0.866025 0.000001 0.500001
vn 0.866025 0.000000 0.500000
vn 0.866025 0.000000 0.500001
vn 0.866026 0.000001 0.500000
vn 0.866026 0.000001 0.499999
vn -0.404510 0.587785 -0.700629
vn -0.154510 0.951057 -0.267614
vn -0.154511 0.951057 -0.267615
vn -0.404510 0.587786 -0.700628
vn 0.154505 0.951057 0.267618
vn 0.154506 0.951057 0.267618
vn 0.404506 0.587784 0.700631
vn 0.404506 0.587785 0.700631
vn 0.499999 -0.000001 0.866026
vn 0.499999 0.000001 0.866026
vn 0.404508 -0.587784 0.700630
vn 0.404509 -0.587783 0.700631
vn 0.154509 -0.951056 0.267617
vn 0.154509 -0.951056 0.267618
vn -0.154508 -0.951056 -0.267618
vn -0.154508 -0.951057 -0.267617
vn -0.404507 -0.587785 -0.700630
vn -0.404508 -0.587784 -0.700631
vn -0.500000 -0.000000 -0.866025
vn -0.500000 0.000001 -0.866026
vn -0.866025 0.000000 0.500001
vn -0.866026 -0.000000 0.500000
vn -0.866026 -0.000000 0.500000
vn -0.866026 0.000001 0.500000
vn -0.866026 0.000000 0.499999
vn -0.866026 -0.000001 0.500000
vn -0.866026 -0.000000 0.499999
vn -0.866026 -0.000001 0.499999
vn -0.866025 -0.000001 0.500000
vn -0.866026 0.000001 0.500000
vn -0.866026 0.000001 0.499999
vn 0.866025 0.000000 -0.500000
vn 0.866026 0.000000 -0.500000
vn 0.866025 -0.000000 -0.500000
vn 0.866026 0.000001 -0.500000
vn 0.866025 0.000001 -0.500001
vn 0.866025 0.000000 -0.500001
vn 0.866025 0.000000 -0.500002
vn 0.866025 -0.000000 -0.500001
vn 0.866026 -0.000001 -0.500000
vn 0.866026 -0.000000 -0.500000
vn 0.866026 0.000000 -0.500000
vn -0.809017 0.587785 0.000002
vn -0.309016 0.951057 0.000003
vn -0.309016 0.951057 0.000003
vn -0.809017 0.587785 0.000002
vn 0.309017 0.951057 0.000003
vn 0.309017 0.951057 0.000003
vn 0.809018 0.587784 0.000002
vn 0.809018 0.587784 0.000002
vn 1.000000 -0.000001 -0.000000
vn 1.000000 0.000001 0.000000
vn 0.809018 -0.587783 -0.000001
vn 0.809019 -0.587783 -0.000001
vn 0.309018 -0.951056 -0.000001
vn 0.309018 -0.951056 -0.000001
vn -0.309017 -0.951056 -0.000001
vn -0.309017 -0.951056 -0.000001
vn -0.809017 -0.587785 -0.000001
vn -0.809018 -0.587784 -0.000001
vn -1.000000 -0.000001 0.000000
vn -1.000000 0.000001 0.000000
vn 0.000000 0.000000 1.000000
vn 0.000000 0.000000 1.000000
vn 0.000000 -0.000000 1.000000
vn 0.000000 0.000000 1.000000
vn 0.000000 0.000000 1.000000
vn 0.000000 0.000000 1.000000
vn -0.000001 -0.000002 1.000000
vn -0.000000 -0.000002 1.000000
vn 0.000001 -0.000001 1.000000
vn 0.000000 0.000000 1.000000
vn 0.000000 0.000000 1.000000
vn 0.000000 0.000000 -1.000000
vn 0.000000 0.000000 -1.000000
vn 0.000000 -0.000000 -1.000000
vn 0.000000 0.000000 -1.000000
vn 0.000000 0.000000 -1.000000
vn 0.000000 0.000000 -1.000000
vn 0.000000 -0.000002 -1.000000
vn 0.000001 -0.000002 -1.000000
vn 0.000001 -0.000001 -1.000000
vn 0.000000 0.000000 -1.000000
vn 0.000000 0.000000 -1.000000
vn 0.404510 0.587786 0.700628
vn 0.154511 0.951057 0.267614
vn 0.154511 0.951057 0.267614
vn 0.404510 0.587786 0.700628
vn -0.154505 0.951057 -0.267617
vn -0.154506 0.951057 -0.267618
vn -0.404507 0.587784 -0.700631
vn -0.404507 0.587784 -0.700631
vn -0.500000 -0.000001 -0.866025
vn -0.500000 0.000001 -0.866025
vn -0.404510 -0.587785 -0.700629
vn -0.404510 -0.587784 -0.700629
vn -0.154509 -0.951057 -0.267616
vn -0.154509 -0.951057 -0.267616
vn 0.154508 -0.951057 0.267617
vn 0.154508 -0.951057 0.267617
vn 0.404508 -0.587785 0.700630
vn 0.404508 -0.587784 0.700631
vn 0.500000 -0.000001 0.866025
vn 0.500000 -0.000001 0.866025
vn 0.866025 0.000000 -0.500001
vn 0.866025 0.000001 -0.500001
vn 0.866025 -0.000000 -0.500000
vn 0.866025 -0.000001 -0.500001
vn 0.866025 -0.000001 -0.500000
vn 0.866026 0.000000 -0.499999
vn 0.866025 0.000001 -0.500000
vn 0.866025 0.000001 -0.500001
vn 0.866026 0.000001 -0.499999
vn 0.866026 -0.000002 -0.500000
vn 0.866024 -0.000002 -0.500002
vn -0.866025 0.000001 0.500002
vn -0.866025 -0.000003 0.500001
vn -0.866025 0.000000 0.500000
vn -0.866026 0.000000 0.500000
vn -0.866025 0.000000 0.500001
vn -0.866025 0.000000 0.500000
vn -0.866025 0.000000 0.500001
vn -0.866025 0.000000 0.500001
vn -0.866025 0.000001 0.500000
vn -0.866026 -0.000000 0.500000
vn -0.866026 0.000003 0.499999
vn 0.404510 0.587785 0.700629
vn 0.478660 0.289035 0.829062
vn 0.478661 0.289033 0.829062
vn 0.404509 0.587786 0.700628
vn 0.000002 1.000000 -0.000001
vn 0.000002 1.000000 -0.000001
vn 0.000002 1.000000 -0.000001
vn 0.000002 1.000000 -0.000001
vn -0.478659 0.289034 -0.829063
vn -0.404508 0.587785 -0.700630
vn -0.404508 0.587785 -0.700630
vn -0.478659 0.289034 -0.829063
vn -0.475527 0.309018 -0.823639
vn -0.475527 0.309018 -0.823640
vn 0.475528 0.309018 0.823639
vn 0.475528 0.309018 0.823639
vn 0.866026 0.000001 -0.499999
vn 0.866025 -0.000000 -0.500001
vn 0.866025 -0.000001 -0.500000
vn 0.866026 -0.000000 -0.499999
vn 0.866025 -0.000001 -0.500001
vn 0.866026 0.000002 -0.499999
vn 0.866025 -0.000002 -0.500000
vn -0.866025 0.000001 0.500000
vn -0.866026 -0.000000 0.499998
vn -0.866025 -0.000001 0.500000
vn -0.866026 -0.000001 0.499998
vn -0.866025 -0.000003 0.500000
vn -0.866025 -0.000004 0.500000
vn -0.866026 0.000002 0.500000
vn 0.866027 0.000001 -0.499998
vn 0.866027 0.000001 -0.499998
vn -0.500000 -0.000000 -0.866026
vn -0.500000 -0.000000 -0.866026
vn -0.866027 -0.000001 0.499997
vn -0.866027 -0.000001 0.499997
vn 0.500001 -0.000002 0.866025
vn 0.500001 -0.000002 0.866025
vn -0.404506 0.587785 0.700631
vn -0.478657 0.289035 0.829063
vn -0.478657 0.289035 0.829063
vn -0.404506 0.587785 0.700631
vn 0.000002 1.000000 0.000001
vn 0.000002 1.000000 0.000001
vn 0.000002 1.000000 0.000001
vn 0.000002 1.000000 0.000001
vn 0.478660 0.289034 -0.829062
vn 0.404509 0.587785 -0.700629
vn 0.404509 0.587786 -0.700629
vn 0.478660 0.289034 -0.829062
vn 0.475528 0.309018 -0.823639
vn 0.475528 0.309018 -0.823639
vn -0.475527 0.309017 0.823640
vn -0.475527 0.309017 0.823640
vn 0.866025 -0.000000 0.500000
vn 0.866024 0.000000 0.500002
vn 0.866025 0.000000 0.500000
vn 0.866026 -0.000000 0.500000
vn 0.866026 0.000000 0.499999
vn 0.866025 0.000002 0.500000
vn 0.866025 0.000002 0.500000
vn -0.866024 0.000000 -0.500002
vn -0.866026 0.000000 -0.499999
vn -0.866025 -0.000000 -0.500001
vn -0.866026 -0.000000 -0.499999
vn -0.866025 -0.000001 -0.500001
vn -0.866025 0.000000 -0.500000
vn -0.866025 0.000000 -0.500000
vn 0.866026 0.000000 0.500000
vn 0.866026 0.000000 0.500000
vn 0.500000 -0.000001 -0.866025
vn 0.500000 -0.000001 -0.866025
vn -0.866026 0.000000 -0.499999
vn -0.866026 0.000000 -0.499999
vn -0.499999 0.000000 0.866026
vn -0.499999 0.000000 0.866026
vn -0.809017 0.587786 0.000002
vn -0.957318 0.289035 0.000001
vn -0.957319 0.289035 0.000001
vn -0.809016 0.587787 0.000002
vn 0.000000 1.000000 0.000003
vn 0.000000 1.000000 0.000003
vn 0.000000 1.000000 0.000003
vn 0.000000 1.000000 0.000003
vn 0.957319 0.289033 0.000000
vn 0.809017 0.587786 0.000001
vn 0.809016 0.587786 0.000001
vn 0.957319 0.289033 0.000000
vn 0.951055 0.309022 0.000001
vn 0.951055 0.309022 0.000001
vn -0.951056 0.309018 0.000001
vn -0.951056 0.309018 0.000001
vn -0.000001 -0.000001 1.000000
vn -0.000003 -0.000000 1.000000
vn -0.000000 -0.000000 1.000000
vn 0.000001 -0.000001 1.000000
vn 0.000002 -0.000000 1.000000
vn 0.000000 0.000002 1.000000
vn 0.000000 0.000002 1.000000
vn 0.000000 0.000000 -1.000000
vn 0.000000 -0.000001 -1.000000
vn 0.000000 0.000000 -1.000000
vn 0.000000 -0.000001 -1.000000
vn 0.000000 0.000000 -1.000000
vn 0.000000 0.000000 -1.000000
vn 0.000000 0.000000 -1.000000
vn 0.000000 0.000000 1.000000
vn 0.000000 0.000000 1.000000
vn 1.000000 0.000000 0.000000
vn 1.000000 0.000000 0.000000
vn 0.000000 -0.000002 -1.000000
vn 0.000000 -0.000002 -1.000000
vn -1.000000 0.000000 0.000000
vn -1.000000 0.000000 0.000000
vn -0.404510 0.587785 -0.700628
vn -0.478659 0.289036 -0.829062
vn -0.478659 0.289035 -0.829062
vn -0.404510 0.587786 -0.700628
vn -0.000002 1.000000 0.000001
vn -0.000002 1.000000 0.000001
vn -0.000002 1.000000 0.000001
vn -0.000002 1.000000 0.000001
vn 0.478660 0.289035 0.829062
vn 0.404509 0.587785 0.700630
vn 0.404509 0.587786 0.700629
vn 0.478660 0.289035 0.829062
vn 0.475529 0.309017 0.823639
vn 0.475529 0.309017 0.823639
vn -0.475529 0.309017 -0.823639
vn -0.475529 0.309017 -0.823639
vn -0.866025 0.000000 0.500000
vn -0.866026 0.000001 0.499998
vn -0.866026 0.000001 0.500000
vn -0.866025 -0.000000 0.500001
vn -0.866025 0.000002 0.500001
vn -0.866026 0.000007 0.499999
vn -0.866026 0.000002 0.500000
vn 0.866026 0.000001 -0.500000
vn 0.866026 0.000000 -0.499999
vn 0.866026 0.000001 -0.500000
vn 0.866026 -0.000000 -0.499999
vn 0.866026 0.000001 -0.500000
vn 0.866025 0.000002 -0.500000
vn 0.866026 0.000002 -0.500000
vn -0.866025 0.000000 0.500001
vn -0.866025 0.000000 0.500001
vn 0.500001 0.000001 0.866025
vn 0.500001 0.000001 0.866025
vn 0.866026 0.000000 -0.499999
vn 0.866026 0.000000 -0.499999
vn -0.499999 0.000000 -0.866026
vn -0.499999 0.000000 -0.866026
vn 0.404507 0.587785 -0.700631
vn 0.478656 0.289037 -0.829063
vn 0.478656 0.289036 -0.829064
vn 0.404506 0.587786 -0.700630
vn -0.000002 1.000000 -0.000001
vn -0.000002 1.000000 -0.000001
vn -0.000002 1.000000 -0.000001
vn -0.000002 1.000000 -0.000001
vn -0.478659 0.289034 0.829062
vn -0.404509 0.587786 0.700628
vn -0.404509 0.587786 0.700628
vn -0.478659 0.289035 0.829062
vn -0.475529 0.309018 0.823638
vn -0.475529 0.309018 0.823638
vn 0.475527 0.309016 -0.823640
vn 0.475527 0.309016 -0.823640
vn -0.866024 0.000001 -0.500003
vn -0.866024 0.000001 -0.500002
vn -0.866025 -0.000001 -0.500001
vn -0.866024 0.000001 -0.500002
vn -0.866026 -0.000003 -0.499999
vn -0.866026 -0.000004 -0.499998
vn -0.866025 0.000002 -0.500001
vn 0.866025 0.000002 0.500001
vn 0.866025 0.000000 0.500001
vn 0.866025 0.000001 0.500001
vn 0.866025 0.000001 0.500001
vn 0.866025 -0.000001 0.500001
vn 0.866025 -0.000002 0.500001
vn 0.866025 0.000004 0.500001
vn -0.866024 0.000002 -0.500003
vn -0.866024 0.000002 -0.500003
vn -0.499999 -0.000000 0.866026
vn -0.499999 -0.000000 0.866026
vn 0.866025 0.000001 0.500001
vn 0.866025 0.000001 0.500001
vn 0.499997 0.000001 -0.866027
vn 0.499997 0.000001 -0.866027
vn 0.809016 0.587786 -0.000002
vn 0.957319 0.289035 -0.000001
vn 0.957319 0.289034 -0.000001
vn 0.809015 0.587788 -0.000002
vn 0.000000 1.000000 -0.000003
vn 0.000000 1.000000 -0.000003
vn 0.000000 1.000000 -0.000003
vn 0.000000 1.000000 -0.000003
vn -0.957319 0.289032 -0.000000
vn -0.809017 0.587785 -0.000001
vn -0.809017 0.587786 -0.000001
vn -0.957319 0.289032 -0.000000
vn -0.951056 0.309018 -0.000001
vn -0.951056 0.309018 -0.000001
vn 0.951056 0.309018 -0.000001
vn 0.951056 0.309018 -0.000001
vn 0.000001 -0.000003 -1.000000
vn 0.000003 -0.000000 -1.000000
vn 0.000000 -0.000000 -1.000000
vn -0.000001 -0.000003 -1.000000
vn -0.000002 -0.000000 -1.000000
vn 0.000000 0.000002 -1.000000
vn 0.000000 0.000002 -1.000000
vn 0.000001 -0.000002 1.000000
vn 0.000000 -0.000001 1.000000
vn 0.000000 -0.000002 1.000000
vn -0.000000 -0.000001 1.000000
vn -0.000001 -0.000002 1.000000
vn 0.000000 0.000000 1.000000
vn 0.000000 0.000000 1.000000
vn 0.000000 -0.000003 -1.000000
vn 0.000000 -0.000003 -1.000000
vn -1.000000 -0.000000 0.000000
vn -1.000000 -0.000000 0.000000
vn 0.000000 0.000000 1.000000
vn 0.000000 0.000000 1.000000
vn 1.000000 -0.000000 0.000000
vn 1.000000 -0.000000 0.000000
s 1
g Silla6 polySurface36
usemtl lambert5SG
f 233/389/427 234/390/428 244/391/429 243/392/430
f 234/390/428 235/393/431 245/394/432 244/391/429
f 235/393/431 236/395/433 246/396/434 245/394/432
f 236/395/433 237/397/435 247/398/436 246/396/434
f 237/397/435 238/399/437 248/400/438 247/398/436
f 238/399/437 239/401/439 249/402/440 248/400/438
f 239/401/439 240/403/441 250/404/442 249/402/440
f 240/405/441 241/406/443 251/407/444 250/408/442
f 241/406/443 242/409/445 252/410/446 251/407/444
f 242/409/445 233/389/427 243/392/430 252/410/446
s 2
f 234/411/447 233/412/448 253/413/449
f 235/414/450 234/411/447 253/413/449
f 236/415/451 235/414/450 253/413/449
f 237/416/452 236/415/451 253/413/449
f 238/417/453 237/416/452 253/413/449
f 239/418/454 238/417/453 253/413/449
f 240/419/455 239/418/454 253/413/449
f 241/420/456 240/419/455 253/413/449
f 242/421/457 241/420/456 253/413/449
f 233/412/448 242/421/457 253/413/449
s 3
f 243/422/458 244/423/459 254/424/460
f 244/423/459 245/425/461 254/424/460
f 245/425/461 246/426/462 254/424/460
f 246/426/462 247/427/463 254/424/460
f 247/427/463 248/428/464 254/424/460
f 248/428/464 249/429/465 254/424/460
f 249/429/465 250/430/466 254/424/460
f 250/430/466 251/431/467 254/424/460
f 251/431/467 252/432/468 254/424/460
f 252/432/468 243/422/458 254/424/460
s 4
f 255/433/469 256/434/470 266/435/471 265/436/472
f 256/434/470 257/437/473 267/438/474 266/435/471
f 257/437/473 258/439/475 268/440/476 267/438/474
f 258/439/475 259/441/477 269/442/478 268/440/476
f 259/441/477 260/443/479 270/444/480 269/442/478
f 260/443/479 261/445/481 271/446/482 270/444/480
f 261/445/481 262/447/483 272/448/484 271/446/482
f 262/449/483 263/450/485 273/451/486 272/452/484
f 263/450/485 264/453/487 274/454/488 273/451/486
f 264/453/487 255/433/469 265/436/472 274/454/488
s 5
f 256/455/489 255/456/490 275/457/491
f 257/458/492 256/455/489 275/457/491
f 258/459/493 257/458/492 275/457/491
f 259/460/494 258/459/493 275/457/491
f 260/461/495 259/460/494 275/457/491
f 261/462/496 260/461/495 275/457/491
f 262/463/497 261/462/496 275/457/491
f 263/464/498 262/463/497 275/457/491
f 264/465/499 263/464/498 275/457/491
f 255/456/490 264/465/499 275/457/491
s 6
f 265/466/500 266/467/501 276/468/502
f 266/467/501 267/469/503 276/468/502
f 267/469/503 268/470/504 276/468/502
f 268/470/504 269/471/505 276/468/502
f 269/471/505 270/472/506 276/468/502
f 270/472/506 271/473/507 276/468/502
f 271/473/507 272/474/508 276/468/502
f 272/474/508 273/475/509 276/468/502
f 273/475/509 274/476/510 276/468/502
f 274/476/510 265/466/500 276/468/502
s 7
f 277/477/511 278/478/512 288/479/513 287/480/514
f 278/478/512 279/481/515 289/482/516 288/479/513
f 279/481/515 280/483/517 290/484/518 289/482/516
f 280/483/517 281/485/519 291/486/520 290/484/518
f 281/485/519 282/487/521 292/488/522 291/486/520
f 282/487/521 283/489/523 293/490/524 292/488/522
f 283/489/523 284/491/525 294/492/526 293/490/524
f 284/493/525 285/494/527 295/495/528 294/496/526
f 285/494/527 286/497/529 296/498/530 295/495/528
f 286/497/529 277/477/511 287/480/514 296/498/530
s 8
f 278/499/531 277/500/532 297/501/533
f 279/502/534 278/499/531 297/501/533
f 280/503/535 279/502/534 297/501/533
f 281/504/536 280/503/535 297/501/533
f 282/505/537 281/504/536 297/501/533
f 283/506/538 282/505/537 297/501/533
f 284/507/539 283/506/538 297/501/533
f 285/508/540 284/507/539 297/501/533
f 286/509/541 285/508/540 297/501/533
f 277/500/532 286/509/541 297/501/533
s 9
f 287/510/542 288/511/543 298/512/544
f 288/511/543 289/513/545 298/512/544
f 289/513/545 290/514/546 298/512/544
f 290/514/546 291/515/547 298/512/544
f 291/515/547 292/516/548 298/512/544
f 292/516/548 293/517/549 298/512/544
f 293/517/549 294/518/550 298/512/544
f 294/518/550 295/519/551 298/512/544
f 295/519/551 296/520/552 298/512/544
f 296/520/552 287/510/542 298/512/544
s 10
f 299/521/553 300/522/554 310/523/555 309/524/556
f 300/522/554 301/525/557 311/526/558 310/523/555
f 301/525/557 302/527/559 312/528/560 311/526/558
f 302/527/559 303/529/561 313/530/562 312/528/560
f 303/529/561 304/531/563 314/532/564 313/530/562
f 304/531/563 305/533/565 315/534/566 314/532/564
f 305/533/565 306/535/567 316/536/568 315/534/566
f 306/537/567 307/538/569 317/539/570 316/540/568
f 307/538/569 308/541/571 318/542/572 317/539/570
f 308/541/571 299/521/553 309/524/556 318/542/572
s 11
f 300/543/573 299/544/574 319/545/575
f 301/546/576 300/543/573 319/545/575
f 302/547/577 301/546/576 319/545/575
f 303/548/578 302/547/577 319/545/575
f 304/549/579 303/548/578 319/545/575
f 305/550/580 304/549/579 319/545/575
f 306/551/581 305/550/580 319/545/575
f 307/552/582 306/551/581 319/545/575
f 308/553/583 307/552/582 319/545/575
f 299/544/574 308/553/583 319/545/575
s 12
f 309/554/584 310/555/585 320/556/586
f 310/555/585 311/557/587 320/556/586
f 311/557/587 312/558/588 320/556/586
f 312/558/588 313/559/589 320/556/586
f 313/559/589 314/560/590 320/556/586
f 314/560/590 315/561/591 320/556/586
f 315/561/591 316/562/592 320/556/586
f 316/562/592 317/563/593 320/556/586
f 317/563/593 318/564/594 320/556/586
f 318/564/594 309/554/584 320/556/586
s 13
f 321/565/595 322/566/596 332/567/597 331/568/598
f 322/566/596 323/569/599 333/570/600 332/567/597
f 323/569/599 324/571/601 334/572/602 333/570/600
f 324/571/601 325/573/603 335/574/604 334/572/602
f 325/573/603 326/575/605 336/576/606 335/574/604
f 326/575/605 327/577/607 337/578/608 336/576/606
f 327/577/607 328/579/609 338/580/610 337/578/608
f 328/581/609 329/582/611 339/583/612 338/584/610
f 329/582/611 330/585/613 340/586/614 339/583/612
f 330/585/613 321/565/595 331/568/598 340/586/614
s 14
f 322/587/615 321/588/616 341/589/617
f 323/590/618 322/587/615 341/589/617
f 324/591/619 323/590/618 341/589/617
f 325/592/620 324/591/619 341/589/617
f 326/593/621 325/592/620 341/589/617
f 327/594/622 326/593/621 341/589/617
f 328/595/623 327/594/622 341/589/617
f 329/596/624 328/595/623 341/589/617
f 330/597/625 329/596/624 341/589/617
f 321/588/616 330/597/625 341/589/617
s 15
f 331/598/626 332/599/627 342/600/628
f 332/599/627 333/601/629 342/600/628
f 333/601/629 334/602/630 342/600/628
f 334/602/630 335/603/631 342/600/628
f 335/603/631 336/604/632 342/600/628
f 336/604/632 337/605/633 342/600/628
f 337/605/633 338/606/634 342/600/628
f 338/606/634 339/607/635 342/600/628
f 339/607/635 340/608/636 342/600/628
f 340/608/636 331/598/626 342/600/628
s 16
f 343/609/637 344/610/638 354/611/639 353/612/640
f 344/610/638 345/613/641 355/614/642 354/611/639
f 345/613/641 346/615/643 356/616/644 355/614/642
f 346/615/643 347/617/645 357/618/646 356/616/644
f 347/617/645 348/619/647 358/620/648 357/618/646
f 348/619/647 349/621/649 359/622/650 358/620/648
f 349/621/649 350/623/651 360/624/652 359/622/650
f 350/625/651 351/626/653 361/627/654 360/628/652
f 351/626/653 352/629/655 362/630/656 361/627/654
f 352/629/655 343/609/637 353/612/640 362/630/656
s 17
f 344/631/657 343/632/658 363/633/659
f 345/634/660 344/631/657 363/633/659
f 346/635/661 345/634/660 363/633/659
f 347/636/662 346/635/661 363/633/659
f 348/637/663 347/636/662 363/633/659
f 349/638/664 348/637/663 363/633/659
f 350/639/665 349/638/664 363/633/659
f 351/640/666 350/639/665 363/633/659
f 352/641/667 351/640/666 363/633/659
f 343/632/658 352/641/667 363/633/659
s 18
f 353/642/668 354/643/669 364/644/670
f 354/643/669 355/645/671 364/644/670
f 355/645/671 356/646/672 364/644/670
f 356/646/672 357/647/673 364/644/670
f 357/647/673 358/648/674 364/644/670
f 358/648/674 359/649/675 364/644/670
f 359/649/675 360/650/676 364/644/670
f 360/650/676 361/651/677 364/644/670
f 361/651/677 362/652/678 364/644/670
f 362/652/678 353/642/668 364/644/670
s 19
f 365/653/679 366/654/680 372/655/681 371/656/682
s off
f 379/657/683 380/658/684 381/659/685 382/660/686
s 20
f 367/661/687 368/662/688 374/663/689 373/664/690
f 368/662/688 369/665/691 375/666/692 374/663/689
s 19
f 370/667/693 365/653/679 371/656/682 376/668/694
s 21
f 366/669/695 365/670/696 377/671/697
f 367/672/698 366/669/695 377/671/697
f 368/673/699 367/672/698 377/671/697
f 369/674/700 368/673/699 377/671/697
f 365/670/696 370/675/701 377/671/697
s 22
f 371/676/702 372/677/703 378/678/704
f 372/677/703 373/679/705 378/678/704
f 373/679/705 374/680/706 378/678/704
f 374/680/706 375/681/707 378/678/704
f 376/682/708 371/676/702 378/678/704
s 21
f 366/669/695 367/672/698 380/683/709 379/684/710
s 20
f 367/661/687 373/664/690 381/659/711 380/658/712
s 22
f 373/679/705 372/677/703 382/685/713 381/686/714
s 19
f 372/655/681 366/654/680 379/657/715 382/660/716
s 23
f 383/687/717 384/688/718 390/689/719 389/690/720
s off
f 397/691/721 398/692/722 399/693/723 400/694/724
s 24
f 385/695/725 386/696/726 392/697/727 391/698/728
f 386/696/726 387/699/729 393/700/730 392/697/727
s 23
f 388/701/731 383/687/717 389/690/720 394/702/732
s 25
f 384/703/733 383/704/734 395/705/735
f 385/706/736 384/703/733 395/705/735
f 386/707/737 385/706/736 395/705/735
f 387/708/738 386/707/737 395/705/735
f 383/704/734 388/709/739 395/705/735
s 26
f 389/710/740 390/711/741 396/712/742
f 390/711/741 391/713/743 396/712/742
f 391/713/743 392/714/744 396/712/742
f 392/714/744 393/715/745 396/712/742
f 394/716/746 389/710/740 396/712/742
s 25
f 384/703/733 385/706/736 398/717/747 397/718/748
s 24
f 385/695/725 391/698/728 399/693/749 398/692/750
s 26
f 391/713/743 390/711/741 400/719/751 399/720/752
s 23
f 390/689/719 384/688/718 397/691/753 400/694/754
s 27
f 401/721/755 402/722/756 408/723/757 407/724/758
s off
f 415/725/759 416/726/760 417/727/761 418/728/762
s 28
f 403/729/763 404/730/764 410/731/765 409/732/766
f 404/730/764 405/733/767 411/734/768 410/731/765
s 27
f 406/735/769 401/721/755 407/724/758 412/736/770
s 29
f 402/737/771 401/738/772 413/739/773
f 403/740/774 402/737/771 413/739/773
f 404/741/775 403/740/774 413/739/773
f 405/742/776 404/741/775 413/739/773
f 401/738/772 406/743/777 413/739/773
s 30
f 407/744/778 408/745/779 414/746/780
f 408/745/779 409/747/781 414/746/780
f 409/747/781 410/748/782 414/746/780
f 410/748/782 411/749/783 414/746/780
f 412/750/784 407/744/778 414/746/780
s 29
f 402/737/771 403/740/774 416/751/785 415/752/786
s 28
f 403/729/763 409/732/766 417/727/787 416/726/788
s 30
f 409/747/781 408/745/779 418/753/789 417/754/790
s 27
f 408/723/757 402/722/756 415/725/791 418/728/792
s 31
f 419/755/793 420/756/794 426/757/795 425/758/796
s off
f 433/759/797 434/760/798 435/761/799 436/762/800
s 32
f 421/763/801 422/764/802 428/765/803 427/766/804
f 422/764/802 423/767/805 429/768/806 428/765/803
s 31
f 424/769/807 419/755/793 425/758/796 430/770/808
s 33
f 420/771/809 419/772/810 431/773/811
f 421/774/812 420/771/809 431/773/811
f 422/775/813 421/774/812 431/773/811
f 423/776/814 422/775/813 431/773/811
f 419/772/810 424/777/815 431/773/811
s 34
f 425/778/816 426/779/817 432/780/818
f 426/779/817 427/781/819 432/780/818
f 427/781/819 428/782/820 432/780/818
f 428/782/820 429/783/821 432/780/818
f 430/784/822 425/778/816 432/780/818
s 33
f 420/771/809 421/774/812 434/785/823 433/786/824
s 32
f 421/763/801 427/766/804 435/761/825 434/760/826
s 34
f 427/781/819 426/779/817 436/787/827 435/788/828
s 31
f 426/757/795 420/756/794 433/759/829 436/762/830
s 35
f 437/789/831 438/790/832 444/791/833 443/792/834
s off
f 451/793/835 452/794/836 453/795/837 454/796/838
s 36
f 439/797/839 440/798/840 446/799/841 445/800/842
f 440/798/840 441/801/843 447/802/844 446/799/841
s 35
f 442/803/845 437/789/831 443/792/834 448/804/846
s 37
f 438/805/847 437/806/848 449/807/849
f 439/808/850 438/805/847 449/807/849
f 440/809/851 439/808/850 449/807/849
f 441/810/852 440/809/851 449/807/849
f 437/806/848 442/811/853 449/807/849
s 38
f 443/812/854 444/813/855 450/814/856
f 444/813/855 445/815/857 450/814/856
f 445/815/857 446/816/858 450/814/856
f 446/816/858 447/817/859 450/814/856
f 448/818/860 443/812/854 450/814/856
s 37
f 438/805/847 439/808/850 452/819/861 451/820/862
s 36
f 439/797/839 445/800/842 453/795/863 452/794/864
s 38
f 445/815/857 444/813/855 454/821/865 453/822/866
s 35
f 444/791/833 438/790/832 451/793/867 454/796/868
s 39
f 455/823/869 456/824/870 462/825/871 461/826/872
s off
f 469/827/873 470/828/874 471/829/875 472/830/876
s 40
f 457/831/877 458/832/878 464/833/879 463/834/880
f 458/832/878 459/835/881 465/836/882 464/833/879
s 39
f 460/837/883 455/823/869 461/826/872 466/838/884
s 41
f 456/839/885 455/840/886 467/841/887
f 457/842/888 456/839/885 467/841/887
f 458/843/889 457/842/888 467/841/887
f 459/844/890 458/843/889 467/841/887
f 455/840/886 460/845/891 467/841/887
s 42
f 461/846/892 462/847/893 468/848/894
f 462/847/893 463/849/895 468/848/894
f 463/849/895 464/850/896 468/848/894
f 464/850/896 465/851/897 468/848/894
f 466/852/898 461/846/892 468/848/894
s 41
f 456/839/885 457/842/888 470/853/899 469/854/900
s 40
f 457/831/877 463/834/880 471/829/901 470/828/902
s 42
f 463/849/895 462/847/893 472/855/903 471/856/904
s 39
f 462/825/871 456/824/870 469/827/905 472/830/906
