# ProBuilder 6.0.5
# https://unity3d.com/unity/features/worldbuilding/probuilder
# 05/08/2025 12:08:44 p. m.

mtllib ./Plane_(4).mtl
o Plane (4)

g Plane (4)
v 3.066626 4.075509 -32.75401
v 1.916326 4.075509 -32.75401
v 3.066626 4.075509 -32.46614
v 1.916326 4.075509 -32.46614
v 3.066626 4.075509 -31.31585
v 1.916326 4.075509 -31.31585
v -0.9594244 4.075509 -31.31585
v -0.9594244 4.075509 -32.46614
v 3.354201 4.075509 -32.46614
v 3.354201 4.075509 -31.31585
v 3.354201 4.075509 -27.86495
v 3.066626 4.075509 -27.86495
v 4.792076 4.075509 -31.31585
v 4.792076 4.075509 -27.86495
v 4.792076 4.075509 -32.46614
v 4.792076 4.075509 -27.57737
v 3.354201 4.075509 -27.57737
v 4.792076 4.075509 -22.40102
v 3.354201 4.075509 -22.40102
v 5.079651 4.075509 -27.57737
v 5.079651 4.075509 -22.40102
v -0.3842744 4.075509 -22.40102
v -0.3842744 4.075509 -27.57737
v 9.968426 4.075509 -31.31585
v 9.968426 4.075509 -27.86495
v 9.968426 4.075509 -32.46614
v 11.11873 4.075509 -31.31585
v 11.11873 4.075509 -27.86495
v 11.11873 4.075509 -32.46614
v 9.968426 4.075509 -32.75372
v 11.11873 4.075509 -32.75372
v 9.968426 4.075509 -37.35492
v 11.11873 4.075509 -37.35492
v 5.079651 4.075509 -32.75372
v 5.079651 4.075509 -37.35492
v 14.8572 4.075509 -37.35492
v 14.8572 4.075509 -32.75372
v 13.7069 4.075509 -31.31585
v 13.7069 4.075509 -27.86495
v 13.7069 4.075509 -32.46614
v 1.916326 3.787934 -31.31585
v -0.9594244 3.787934 -31.31585
v 3.066626 3.787934 -31.31585
v 3.066626 3.787934 -27.86495

vt -2.125 2.75
vt -1.125 2.75
vt -2.125 3.000252
vt -1.125 3.000252
vt -2.125 4.000252
vt -1.125 4.000252
vt 1.375 4.000252
vt 1.375 3.000252
vt -2.375 3.000252
vt -2.375 4.000252
vt -2.375 7.000252
vt -2.125 7.000252
vt -3.625 4.000252
vt -3.625 7.000252
vt -3.625 3.000252
vt -3.625 7.250252
vt -2.375 7.250252
vt -3.625 11.75025
vt -2.375 11.75025
vt -3.875 7.250252
vt -3.875 11.75025
vt 0.875 11.75025
vt 0.875 7.250252
vt -8.125 4.000252
vt -8.125 7.000252
vt -8.125 3.000252
vt -9.125 4.000252
vt -9.125 7.000252
vt -9.125 3.000252
vt -8.125 2.750252
vt -9.125 2.750252
vt -8.125 -1.249748
vt -9.125 -1.249748
vt -3.875 2.750252
vt -3.875 -1.249748
vt -12.375 -1.249748
vt -12.375 2.750252
vt -11.375 4.000252
vt -11.375 7.000252
vt -11.375 3.000252
vt 1.125 0
vt -1.375 0
vt 1.125 -0.25
vt -1.375 -0.25
vt 2.125 0
vt 2.125 -0.25
vt 7.000252 0
vt 4.000252 0
vt 7.000252 -0.25
vt 4.000252 -0.25

vn 0 1.1503 0
vn 0 0 1.1503
vn -1.1503 0 0

usemtl Suelo2
f 4/4/1 3/3/1 1/1/1 2/2/1
f 6/6/1 5/5/1 3/3/1 4/4/1
f 8/8/1 7/7/1 6/6/1 4/4/1
f 10/10/1 9/9/1 3/3/1 5/5/1
f 12/12/1 11/11/1 10/10/1 5/5/1
f 14/14/1 13/13/1 10/10/1 11/11/1
f 13/13/1 15/15/1 9/9/1 10/10/1
f 17/17/1 16/16/1 14/14/1 11/11/1
f 19/19/1 18/18/1 16/16/1 17/17/1
f 21/21/1 20/20/1 16/16/1 18/18/1
f 23/23/1 22/22/1 19/19/1 17/17/1
f 25/25/1 24/24/1 13/13/1 14/14/1
f 24/24/1 26/26/1 15/15/1 13/13/1
f 28/28/1 27/27/1 24/24/1 25/25/1
f 27/27/1 29/29/1 26/26/1 24/24/1
f 31/31/1 30/30/1 26/26/1 29/29/1
f 33/33/1 32/32/1 30/30/1 31/31/1
f 35/35/1 34/34/1 30/30/1 32/32/1
f 37/37/1 36/36/1 33/33/1 31/31/1
f 39/39/1 38/38/1 27/27/1 28/28/1
f 38/38/1 40/40/1 29/29/1 27/27/1
f 42/44/2 41/43/2 6/41/2 7/42/2
f 41/43/2 43/46/2 5/45/2 6/41/2
f 43/50/3 44/49/3 12/47/3 5/48/3

