# This file uses millimeters as units for non-parametric coordinates.

mtllib Cube (1).mtl
g default
v 0.453970 0.030208 0.399904
v -0.453970 0.030208 0.399904
v 0.453970 1.901238 0.399904
v -0.453970 1.901238 0.399904
v -0.453970 0.030208 -0.399904
v -0.453970 1.901238 -0.399904
v 0.453970 0.030208 -0.399904
v 0.453970 1.901238 -0.399904
vt 0.907939 1.000000
vt 0.000000 1.000000
vt 0.000000 -0.871030
vt 0.907939 -0.871030
vt 0.799809 1.000000
vt 0.799809 -0.871030
vt 0.000000 0.200191
vt 0.907939 0.200191
vt 0.000000 1.000000
vt 0.000000 -0.871030
vt 0.907939 1.000000
vt 0.000000 1.000000
vt 0.000000 -0.871030
vt 0.907939 -0.871030
vt 0.799809 1.000000
vt 0.000000 1.000000
vt 0.000000 -0.871030
vt 0.799809 -0.871030
vt 0.907939 1.000000
vt 0.000000 1.000000
vt 0.907939 1.000000
vt 0.000000 1.000000
vt 0.000000 0.200191
vt 0.907939 0.200191
vn 0.000000 0.000000 1.000000
vn 0.000000 0.000000 1.000000
vn 0.000000 0.000000 1.000000
vn 0.000000 0.000000 1.000000
vn -1.000000 0.000000 0.000000
vn -1.000000 0.000000 0.000000
vn -1.000000 0.000000 0.000000
vn -1.000000 0.000000 0.000000
vn 0.000000 0.000000 -1.000000
vn 0.000000 0.000000 -1.000000
vn 0.000000 0.000000 -1.000000
vn 0.000000 0.000000 -1.000000
vn 1.000000 0.000000 0.000000
vn 1.000000 0.000000 0.000000
vn 1.000000 0.000000 0.000000
vn 1.000000 0.000000 0.000000
vn 0.000000 1.000000 0.000000
vn 0.000000 1.000000 0.000000
vn 0.000000 1.000000 0.000000
vn 0.000000 1.000000 0.000000
vn 0.000000 -1.000000 0.000000
vn 0.000000 -1.000000 0.000000
vn 0.000000 -1.000000 0.000000
vn 0.000000 -1.000000 0.000000
s off
g Cube__1_:Cube_1_
usemtl Cube__1_:ProBuilderDefault
f 3/1/1 4/2/2 2/3/3 1/4/4
f 4/5/5 6/9/6 5/10/7 2/6/8
f 6/11/9 8/12/10 7/13/11 5/14/12
f 8/15/13 3/16/14 1/17/15 7/18/16
f 8/7/17 6/8/18 4/19/19 3/20/20
f 1/21/21 2/22/22 5/23/23 7/24/24
