# ProBuilder 6.0.5
# https://unity3d.com/unity/features/worldbuilding/probuilder
# 31/07/2025 10:18:26 p. m.

mtllib ./Plane_(1).mtl
o Plane (1)

g Plane (1)
v 14.72 8.101995 -24.38991
v 14.72 8.101995 -23.57247
v 14.72 6.673388 -24.38991
v 14.72 6.673388 -23.57247
v 14.72 8.101995 -22.75503
v 14.72 6.673388 -22.75503
v 14.72 5.244781 -24.38991
v 14.72 5.244781 -23.57247
v 14.72 5.244781 -22.75503

vt -1.428607 -0.81744
vt -1.428607 0
vt 0 -0.81744
vt 0 0
vt -1.428607 0.81744
vt 0 0.81744
vt 1.428607 -0.81744
vt 1.428607 0
vt 1.428607 0.81744

vn -1 -1.192093E-07 0

usemtl ProBuilderDefault
f 3/3/1 4/4/1 2/2/1 1/1/1
f 4/4/1 6/6/1 5/5/1 2/2/1
f 7/7/1 8/8/1 4/4/1 3/3/1
f 8/8/1 9/9/1 6/6/1 4/4/1

