# ProBuilder 6.0.5
# https://unity3d.com/unity/features/worldbuilding/probuilder
# 31/07/2025 10:18:26 p. m.

mtllib ./Plane.mtl
o Plane

g Plane
v 11.1163 8.300477 -22.41
v 10.24842 8.300477 -22.41
v 11.1163 6.16818 -22.41
v 10.24842 6.16818 -22.41
v 9.380539 8.300477 -22.41
v 9.380539 6.16818 -22.41
v 11.1163 4.035884 -22.41
v 10.24842 4.035884 -22.41
v 9.380539 4.035884 -22.41

vt -2.132297 -0.8678789
vt -2.132297 0
vt 0 -0.8678789
vt 0 0
vt -2.132297 0.8678789
vt 0 0.8678789
vt 2.132297 -0.8678789
vt 2.132297 0
vt 2.132297 0.8678789

vn 0 0 -1

usemtl ProBuilderDefault
f 3/3/1 4/4/1 2/2/1 1/1/1
f 4/4/1 6/6/1 5/5/1 2/2/1
f 7/7/1 8/8/1 4/4/1 3/3/1
f 8/8/1 9/9/1 6/6/1 4/4/1

