# ProBuilder 6.0.5
# https://unity3d.com/unity/features/worldbuilding/probuilder
# 31/07/2025 10:18:26 p. m.

mtllib ./Plane_(2).mtl
o Plane (2)

g Plane (2)
v 13.691 7.098663 -32.25598
v 13.691 7.098663 -31.742
v 13.691 6.101 -32.25598
v 13.691 6.101 -31.742
v 13.691 7.098663 -31.22802
v 13.691 6.101 -31.22802
v 13.691 5.103336 -32.25598
v 13.691 5.103336 -31.742
v 13.691 5.103336 -31.22802

vt -1.428607 -0.81744
vt -1.428607 0
vt 0 -0.81744
vt 0 0
vt -1.428607 0.81744
vt 0 0.81744
vt 1.428607 -0.81744
vt 1.428607 0
vt 1.428607 0.81744

vn -0.6287701 -7.495522E-08 0

usemtl ProBuilderDefault
f 3/3/1 4/4/1 2/2/1 1/1/1
f 4/4/1 6/6/1 5/5/1 2/2/1
f 7/7/1 8/8/1 4/4/1 3/3/1
f 8/8/1 9/9/1 6/6/1 4/4/1

