# This file uses centimeters as units for non-parametric coordinates.

mtllib PilayLlave.mtl
g default
v 0.053093 -0.123331 -0.021992
v 0.040636 -0.123331 -0.040636
v 0.021992 -0.123331 -0.053093
v -0.000000 -0.123331 -0.057468
v -0.021992 -0.123331 -0.053093
v -0.040636 -0.123331 -0.040636
v -0.053094 -0.123331 -0.021992
v -0.057468 -0.123331 -0.000000
v -0.053094 -0.123331 0.021992
v -0.040636 -0.123331 0.040636
v -0.021992 -0.123331 0.053093
v -0.000000 -0.123331 0.057468
v 0.021992 -0.123331 0.053093
v 0.040636 -0.123331 0.040636
v 0.053093 -0.123331 0.021992
v 0.057468 -0.123331 -0.000000
v 0.053093 0.100250 -0.021992
v 0.040636 0.100250 -0.040636
v 0.021992 0.100250 -0.053093
v -0.000000 0.100250 -0.057468
v -0.021992 0.100250 -0.053093
v -0.040636 0.100250 -0.040636
v -0.053094 0.100250 -0.021992
v -0.057468 0.100250 -0.000000
v -0.053094 0.100250 0.021992
v -0.040636 0.100250 0.040636
v -0.021992 0.100250 0.053093
v -0.000000 0.100250 0.057468
v 0.021992 0.100250 0.053093
v 0.040636 0.100250 0.040636
v 0.053093 0.100250 0.021992
v 0.057468 0.100250 -0.000000
v 0.044001 -0.123331 -0.018226
v 0.033677 -0.123331 -0.033677
v 0.018226 -0.123331 -0.044001
v -0.000000 -0.123331 -0.047627
v -0.018226 -0.123331 -0.044001
v -0.033677 -0.123331 -0.033677
v -0.044001 -0.123331 -0.018226
v -0.047627 -0.123331 -0.000000
v -0.044001 -0.123331 0.018226
v -0.033677 -0.123331 0.033677
v -0.018226 -0.123331 0.044001
v -0.000000 -0.123331 0.047627
v 0.018226 -0.123331 0.044001
v 0.033677 -0.123331 0.033677
v 0.044001 -0.123331 0.018226
v 0.047627 -0.123331 -0.000000
v 0.044001 0.100250 -0.018226
v 0.033677 0.100250 -0.033677
v 0.018226 0.100250 -0.044001
v -0.000000 0.100250 -0.047627
v -0.018226 0.100250 -0.044001
v -0.033677 0.100250 -0.033677
v -0.044001 0.100250 -0.018226
v -0.047627 0.100250 -0.000000
v -0.044001 0.100250 0.018226
v -0.033677 0.100250 0.033677
v -0.018226 0.100250 0.044001
v -0.000000 0.100250 0.047627
v 0.018226 0.100250 0.044001
v 0.033677 0.100250 0.033677
v 0.044001 0.100250 0.018226
v 0.047627 0.100250 -0.000000
v 0.044001 -0.117544 -0.018226
v 0.033677 -0.117544 -0.033677
v 0.018226 -0.117544 -0.044001
v -0.000000 -0.117544 -0.047627
v -0.018226 -0.117544 -0.044001
v -0.033677 -0.117544 -0.033677
v -0.044001 -0.117544 -0.018226
v -0.047627 -0.117544 -0.000000
v -0.044001 -0.117544 0.018226
v -0.033677 -0.117544 0.033677
v -0.018226 -0.117544 0.044001
v -0.000000 -0.117544 0.047627
v 0.018226 -0.117544 0.044001
v 0.033677 -0.117544 0.033677
v 0.044001 -0.117544 0.018226
v 0.047627 -0.117544 -0.000000
v 0.044001 0.094463 -0.018226
v 0.033677 0.094463 -0.033677
v 0.018226 0.094463 -0.044001
v -0.000000 0.094463 -0.047627
v -0.018226 0.094463 -0.044001
v -0.033677 0.094463 -0.033677
v -0.044001 0.094463 -0.018226
v -0.047627 0.094463 -0.000000
v -0.044001 0.094463 0.018226
v -0.033677 0.094463 0.033677
v -0.018226 0.094463 0.044001
v -0.000000 0.094463 0.047627
v 0.018226 0.094463 0.044001
v 0.033677 0.094463 0.033677
v 0.044001 0.094463 0.018226
v 0.047627 0.094463 -0.000000
v 0.021525 -0.117544 -0.008916
v 0.016475 -0.117544 -0.016475
v 0.008916 -0.117544 -0.021525
v -0.000000 -0.117544 -0.023299
v -0.008916 -0.117544 -0.021525
v -0.016475 -0.117544 -0.016475
v -0.021525 -0.117544 -0.008916
v -0.023299 -0.117544 -0.000000
v -0.021525 -0.117544 0.008916
v -0.016475 -0.117544 0.016475
v -0.008916 -0.117544 0.021525
v -0.000000 -0.117544 0.023299
v 0.008916 -0.117544 0.021525
v 0.016475 -0.117544 0.016475
v 0.021525 -0.117544 0.008916
v 0.023299 -0.117544 -0.000000
v 0.021525 0.094463 -0.008916
v 0.016475 0.094463 -0.016475
v 0.008916 0.094463 -0.021525
v -0.000000 0.094463 -0.023299
v -0.008916 0.094463 -0.021525
v -0.016475 0.094463 -0.016475
v -0.021525 0.094463 -0.008916
v -0.023299 0.094463 -0.000000
v -0.021525 0.094463 0.008916
v -0.016475 0.094463 0.016475
v -0.008916 0.094463 0.021525
v -0.000000 0.094463 0.023299
v 0.008916 0.094463 0.021525
v 0.016475 0.094463 0.016475
v 0.021525 0.094463 0.008916
v 0.023299 0.094463 -0.000000
v 0.021525 0.123331 -0.008916
v 0.016475 0.123331 -0.016475
v -0.000000 0.123331 -0.000000
v 0.008916 0.123331 -0.021525
v -0.000000 0.123331 -0.023299
v -0.008916 0.123331 -0.021525
v -0.016475 0.123331 -0.016475
v -0.021525 0.123331 -0.008916
v -0.023299 0.123331 -0.000000
v -0.021525 0.123331 0.008916
v -0.016475 0.123331 0.016475
v -0.008916 0.123331 0.021525
v -0.000000 0.123331 0.023299
v 0.008916 0.123331 0.021525
v 0.016475 0.123331 0.016475
v 0.021525 0.123331 0.008916
v 0.023299 0.123331 -0.000000
v 0.021525 -0.114138 -0.008916
v 0.016475 -0.114138 -0.016475
v -0.000000 -0.114138 -0.000000
v 0.008916 -0.114138 -0.021525
v -0.000000 -0.114138 -0.023299
v -0.008916 -0.114138 -0.021525
v -0.016475 -0.114138 -0.016475
v -0.021525 -0.114138 -0.008916
v -0.023299 -0.114138 -0.000000
v -0.021525 -0.114138 0.008916
v -0.016475 -0.114138 0.016475
v -0.008916 -0.114138 0.021525
v -0.000000 -0.114138 0.023299
v 0.008916 -0.114138 0.021525
v 0.016475 -0.114138 0.016475
v 0.021525 -0.114138 0.008916
v 0.023299 -0.114138 -0.000000
vt 0.889998 0.589875
vt 0.905197 0.553181
vt 0.413021 0.866502
vt 0.452738 0.866502
vt 0.905197 0.513465
vt 0.376328 0.851303
vt 0.889998 0.476771
vt 0.348244 0.823219
vt 0.861914 0.448687
vt 0.333045 0.786525
vt 0.825220 0.433488
vt 0.333045 0.746808
vt 0.785503 0.433488
vt 0.348243 0.710114
vt 0.748809 0.448688
vt 0.376328 0.682031
vt 0.720725 0.476772
vt 0.413021 0.666831
vt 0.705526 0.513466
vt 0.452738 0.666831
vt 0.705527 0.553183
vt 0.489432 0.682030
vt 0.720726 0.589876
vt 0.517516 0.710114
vt 0.748810 0.617960
vt 0.532715 0.746808
vt 0.785504 0.633159
vt 0.532715 0.786525
vt 0.825221 0.633159
vt 0.517516 0.823218
vt 0.861914 0.617960
vt 0.489432 0.851303
vt 0.726100 0.097700
vt 0.875544 0.234178
vt 0.703173 0.063386
vt 0.737486 0.086313
vt 0.743648 0.071437
vt 0.743648 0.055335
vt 0.737486 0.040459
vt 0.726100 0.029073
vt 0.711224 0.022911
vt 0.695122 0.022911
vt 0.680245 0.029073
vt 0.668859 0.040459
vt 0.662698 0.055335
vt 0.662698 0.071437
vt 0.668860 0.086314
vt 0.680246 0.097699
vt 0.695122 0.103862
vt 0.564546 0.100441
vt 0.882034 0.372608
vt 0.524070 0.092391
vt 0.882034 0.388710
vt 0.882034 0.404812
vt 0.882034 0.163280
vt 0.882034 0.179383
vt 0.882034 0.195485
vt 0.882034 0.211587
vt 0.882034 0.227689
vt 0.882034 0.243791
vt 0.882034 0.259893
vt 0.882034 0.275995
vt 0.882034 0.292097
vt 0.882034 0.308200
vt 0.882034 0.324301
vt 0.882034 0.340404
vt 0.962367 0.154573
vt 0.962367 0.121657
vt 0.962367 0.088742
vt 0.962367 0.055826
vt 0.962367 0.022911
vt 0.962367 0.516645
vt 0.962367 0.483729
vt 0.962367 0.450814
vt 0.962367 0.417898
vt 0.962367 0.384983
vt 0.962367 0.352067
vt 0.962367 0.319151
vt 0.962367 0.286236
vt 0.962367 0.253320
vt 0.962367 0.220404
vt 0.962367 0.187489
vt 0.195613 0.837603
vt 0.221488 0.811546
vt 0.161662 0.851764
vt 0.124788 0.851809
vt 0.090722 0.837725
vt 0.064760 0.811694
vt 0.050763 0.777745
vt 0.050763 0.741038
vt 0.064732 0.707094
vt 0.090608 0.681038
vt 0.124558 0.666877
vt 0.161431 0.666832
vt 0.195498 0.680916
vt 0.221460 0.706947
vt 0.235457 0.740895
vt 0.235457 0.777603
vt 0.892801 0.152518
vt 0.905397 0.122108
vt 0.905397 0.089192
vt 0.892801 0.058782
vt 0.869527 0.035508
vt 0.839117 0.022911
vt 0.806201 0.022911
vt 0.775791 0.035507
vt 0.752516 0.058782
vt 0.739919 0.089192
vt 0.739919 0.122107
vt 0.752515 0.152517
vt 0.775790 0.175792
vt 0.806200 0.188389
vt 0.839116 0.188389
vt 0.869526 0.175793
vt 0.933301 0.747375
vt 0.920705 0.716965
vt 0.933301 0.780291
vt 0.920705 0.810701
vt 0.897430 0.833976
vt 0.867020 0.846572
vt 0.834105 0.846573
vt 0.803694 0.833976
vt 0.780419 0.810702
vt 0.767823 0.780292
vt 0.767823 0.747376
vt 0.780419 0.716966
vt 0.803694 0.693691
vt 0.834104 0.681094
vt 0.867020 0.681094
vt 0.897430 0.693690
vt 0.881577 0.234178
vt 0.881577 0.218076
vt 0.881577 0.201974
vt 0.881577 0.185871
vt 0.881577 0.169770
vt 0.881578 0.411301
vt 0.881577 0.395199
vt 0.881577 0.379097
vt 0.881577 0.362995
vt 0.881577 0.346893
vt 0.881577 0.330790
vt 0.881577 0.314689
vt 0.881577 0.298586
vt 0.881578 0.282484
vt 0.881578 0.266382
vt 0.881577 0.250280
vt 0.933166 0.372608
vt 0.933166 0.356506
vt 0.933166 0.388710
vt 0.933166 0.404812
vt 0.933166 0.163280
vt 0.933166 0.179383
vt 0.933166 0.195485
vt 0.933166 0.211587
vt 0.933166 0.227689
vt 0.933166 0.243791
vt 0.933166 0.259893
vt 0.933166 0.275995
vt 0.933166 0.292097
vt 0.933166 0.308200
vt 0.933166 0.324301
vt 0.933166 0.340404
vt 0.875544 0.250280
vt 0.711224 0.103861
vt 0.875544 0.266382
vt 0.875544 0.282484
vt 0.875544 0.298586
vt 0.875544 0.314689
vt 0.875544 0.330791
vt 0.875544 0.346893
vt 0.875544 0.362995
vt 0.875544 0.379097
vt 0.875544 0.395199
vt 0.875544 0.411301
vt 0.875544 0.169770
vt 0.875544 0.427403
vt 0.875544 0.185871
vt 0.845586 0.071337
vt 0.881578 0.427403
vt 0.875544 0.201974
vt 0.875544 0.218076
vt 0.564546 0.084339
vt 0.882034 0.356506
vt 0.558383 0.069463
vt 0.546997 0.058077
vt 0.532120 0.051915
vt 0.516018 0.051916
vt 0.501142 0.058078
vt 0.489756 0.069464
vt 0.483595 0.084340
vt 0.483595 0.100443
vt 0.489757 0.115319
vt 0.501143 0.126705
vt 0.882034 0.420914
vt 0.516020 0.132866
vt 0.532122 0.132866
vt 0.873490 0.798147
vt 0.933166 0.420914
vt 0.546998 0.126704
vt 0.558384 0.115318
vt 0.873489 0.729520
vt 0.884875 0.740906
vt 0.858613 0.723358
vt 0.842511 0.723358
vt 0.827635 0.729520
vt 0.816249 0.740906
vt 0.810087 0.755782
vt 0.810087 0.771885
vt 0.816249 0.786761
vt 0.827635 0.798147
vt 0.842511 0.804309
vt 0.858613 0.804309
vt 0.884875 0.786761
vt 0.891037 0.771884
vt 0.891038 0.755782
vt 0.845586 0.139963
vt 0.856972 0.128577
vt 0.830709 0.146125
vt 0.814607 0.146125
vt 0.799731 0.139963
vt 0.788345 0.128577
vt 0.782183 0.113701
vt 0.782183 0.097598
vt 0.788345 0.082722
vt 0.799731 0.071336
vt 0.814608 0.065175
vt 0.830710 0.065174
vt 0.856972 0.082722
vt 0.863134 0.097599
vt 0.863134 0.113701
vt 0.225477 0.775683
vt 0.212971 0.806003
vt 0.225488 0.742878
vt 0.212988 0.712568
vt 0.189846 0.689367
vt 0.159489 0.676815
vt 0.126636 0.676831
vt 0.096367 0.689412
vt 0.073250 0.712637
vt 0.060743 0.742957
vt 0.060732 0.775763
vt 0.073232 0.806072
vt 0.096375 0.829273
vt 0.126731 0.841826
vt 0.159584 0.841810
vt 0.189853 0.829228
vt 0.952117 0.187489
vt 0.952117 0.154573
vt 0.952117 0.220404
vt 0.952117 0.253320
vt 0.952117 0.286236
vt 0.952117 0.319151
vt 0.952117 0.352067
vt 0.952117 0.384983
vt 0.952117 0.417898
vt 0.952117 0.450814
vt 0.952117 0.483729
vt 0.952117 0.516645
vt 0.952117 0.022911
vt 0.952117 0.549561
vt 0.952117 0.055826
vt 0.852229 0.463181
vt 0.962367 0.549561
vt 0.952117 0.088742
vt 0.952117 0.121657
vt 0.479748 0.836809
vt 0.449338 0.849406
vt 0.503023 0.813534
vt 0.515619 0.783124
vt 0.515619 0.750209
vt 0.503022 0.719798
vt 0.479748 0.696524
vt 0.449337 0.683928
vt 0.416422 0.683928
vt 0.386012 0.696524
vt 0.362737 0.719799
vt 0.350141 0.750209
vt 0.350141 0.783125
vt 0.362737 0.813534
vt 0.386012 0.836809
vt 0.416422 0.849406
vt 0.852230 0.603466
vt 0.875505 0.580191
vt 0.821820 0.616063
vt 0.788904 0.616063
vt 0.758494 0.603466
vt 0.735219 0.580192
vt 0.722623 0.549782
vt 0.722623 0.516866
vt 0.735219 0.486456
vt 0.758493 0.463181
vt 0.788903 0.450585
vt 0.821819 0.450584
vt 0.875504 0.486455
vt 0.888101 0.516865
vt 0.888101 0.549781
vt 0.420828 0.658382
vt 0.420828 0.022911
vt 0.024806 0.022911
vt 0.024806 0.658382
vt 0.024806 0.459797
vt 0.024806 0.499514
vt 0.024806 0.420080
vt 0.024806 0.380363
vt 0.024806 0.340646
vt 0.024806 0.300929
vt 0.024806 0.261213
vt 0.024806 0.221496
vt 0.024806 0.181778
vt 0.024806 0.142062
vt 0.024806 0.102345
vt 0.024806 0.062628
vt 0.024806 0.618665
vt 0.024806 0.578948
vt 0.024806 0.539231
vt 0.420828 0.459797
vt 0.420828 0.499514
vt 0.420828 0.420080
vt 0.420828 0.380363
vt 0.420828 0.340646
vt 0.420828 0.300929
vt 0.420828 0.261213
vt 0.420828 0.221496
vt 0.420828 0.181778
vt 0.420828 0.142062
vt 0.420828 0.102345
vt 0.420828 0.062628
vt 0.420828 0.618665
vt 0.420828 0.578948
vt 0.420828 0.539231
vn 0.923877 0.000000 -0.382689
vn 0.707107 0.000000 -0.707106
vn 0.707107 0.000000 -0.707106
vn 0.923877 0.000000 -0.382689
vn 0.382684 0.000000 -0.923879
vn 0.382684 0.000000 -0.923879
vn 0.000000 0.000000 -1.000000
vn 0.000000 0.000000 -1.000000
vn -0.382685 0.000000 -0.923879
vn -0.382685 0.000000 -0.923879
vn -0.707103 0.000000 -0.707111
vn -0.707103 0.000000 -0.707111
vn -0.923880 0.000000 -0.382683
vn -0.923880 0.000000 -0.382683
vn -1.000000 0.000000 0.000000
vn -1.000000 0.000000 0.000000
vn -0.923880 0.000000 0.382683
vn -0.923880 0.000000 0.382683
vn -0.707103 0.000000 0.707110
vn -0.707103 0.000000 0.707110
vn -0.382685 0.000000 0.923879
vn -0.382685 0.000000 0.923879
vn -0.000000 0.000000 1.000000
vn -0.000000 0.000000 1.000000
vn 0.382683 0.000000 0.923880
vn 0.382683 0.000000 0.923880
vn 0.707107 0.000000 0.707106
vn 0.707107 0.000000 0.707106
vn 0.923877 0.000000 0.382688
vn 0.923877 0.000000 0.382688
vn 1.000000 0.000000 0.000000
vn 1.000000 0.000000 0.000000
vn 0.000000 -1.000000 0.000000
vn 0.000000 -1.000000 0.000000
vn 0.000000 -1.000000 0.000000
vn 0.000000 -1.000000 0.000000
vn 0.000000 -1.000000 0.000000
vn 0.000000 -1.000000 0.000000
vn 0.000000 -1.000000 0.000000
vn 0.000000 -1.000000 0.000000
vn 0.000000 -1.000000 0.000000
vn 0.000000 -1.000000 0.000000
vn 0.000000 -1.000000 0.000000
vn 0.000000 -1.000000 0.000000
vn 0.000000 -1.000000 0.000000
vn 0.000000 -1.000000 0.000000
vn 0.000000 -1.000000 0.000000
vn 0.000000 -1.000000 0.000000
vn 0.000000 -1.000000 0.000000
vn 0.000000 1.000000 0.000001
vn 0.000000 1.000000 0.000000
vn 0.000000 1.000000 -0.000000
vn 0.000000 1.000000 0.000000
vn 0.000000 1.000000 0.000000
vn 0.000000 1.000000 0.000000
vn 0.000000 1.000000 0.000000
vn 0.000000 1.000000 0.000001
vn 0.000000 1.000000 0.000000
vn 0.000000 1.000000 -0.000001
vn 0.000000 1.000000 0.000000
vn 0.000000 1.000000 0.000000
vn 0.000000 1.000000 0.000000
vn 0.000000 1.000000 -0.000001
vn 0.000000 1.000000 -0.000001
vn 0.000000 1.000000 -0.000001
vn 0.000000 1.000000 -0.000000
vn 0.000000 -1.000000 0.000000
vn 0.000000 -1.000000 0.000000
vn 0.000000 -1.000000 0.000000
vn 0.000000 -1.000000 0.000000
vn 0.000000 -1.000000 -0.000001
vn 0.000000 -1.000000 -0.000001
vn 0.000000 -1.000000 -0.000001
vn 0.000000 -1.000000 -0.000001
vn 0.000000 -1.000000 0.000000
vn 0.000000 -1.000000 0.000000
vn 0.000000 -1.000000 0.000000
vn 0.000000 -1.000000 0.000000
vn 0.000000 -1.000000 -0.000000
vn 0.000000 -1.000000 -0.000000
vn 0.000000 -1.000000 -0.000000
vn 0.000000 -1.000000 -0.000000
vn 0.000000 -1.000000 -0.000001
vn 0.000000 -1.000000 -0.000001
vn 0.000000 -1.000000 -0.000001
vn 0.000000 -1.000000 -0.000001
vn 0.000000 -1.000000 -0.000001
vn 0.000000 -1.000000 -0.000001
vn 0.000000 -1.000000 -0.000001
vn 0.000000 -1.000000 -0.000001
vn 0.000000 -1.000000 0.000000
vn 0.000000 -1.000000 0.000000
vn 0.000000 -1.000000 0.000000
vn 0.000000 -1.000000 0.000000
vn 0.000000 -1.000000 0.000000
vn 0.000000 -1.000000 0.000000
vn 0.000000 -1.000000 0.000000
vn 0.000000 -1.000000 0.000000
vn 0.000000 -1.000000 0.000001
vn 0.000000 -1.000000 0.000001
vn 0.000000 -1.000000 0.000001
vn 0.000000 -1.000000 0.000001
vn 0.000000 -1.000000 0.000000
vn 0.000000 -1.000000 0.000000
vn 0.000000 -1.000000 0.000000
vn 0.000000 -1.000000 0.000000
vn 0.000000 -1.000000 0.000000
vn 0.000000 -1.000000 0.000000
vn 0.000000 -1.000000 0.000000
vn 0.000000 -1.000000 0.000000
vn 0.000000 -1.000000 -0.000000
vn 0.000000 -1.000000 -0.000000
vn 0.000000 -1.000000 -0.000000
vn 0.000000 -1.000000 -0.000000
vn 0.000000 -1.000000 0.000001
vn 0.000000 -1.000000 0.000001
vn 0.000000 -1.000000 0.000001
vn 0.000000 -1.000000 0.000001
vn 0.000000 -1.000000 -0.000001
vn 0.000000 -1.000000 -0.000001
vn 0.000000 -1.000000 -0.000001
vn 0.000000 -1.000000 -0.000001
vn 0.000000 -1.000000 0.000000
vn 0.000000 -1.000000 0.000000
vn 0.000000 -1.000000 0.000000
vn 0.000000 -1.000000 0.000000
vn 0.000000 -1.000000 0.000000
vn 0.000000 -1.000000 0.000000
vn 0.000000 -1.000000 0.000000
vn 0.000000 -1.000000 0.000000
vn 0.000000 1.000000 0.000000
vn 0.000000 1.000000 0.000000
vn 0.000000 1.000000 0.000000
vn 0.000000 1.000000 0.000000
vn 0.000000 1.000000 -0.000001
vn 0.000000 1.000000 -0.000001
vn 0.000000 1.000000 -0.000001
vn 0.000000 1.000000 -0.000001
vn 0.000000 1.000000 0.000001
vn 0.000000 1.000000 0.000001
vn 0.000000 1.000000 0.000001
vn 0.000000 1.000000 0.000001
vn 0.000000 1.000000 -0.000001
vn 0.000000 1.000000 -0.000001
vn 0.000000 1.000000 -0.000001
vn 0.000000 1.000000 -0.000001
vn 0.000000 1.000000 -0.000000
vn 0.000000 1.000000 -0.000000
vn 0.000000 1.000000 -0.000000
vn 0.000000 1.000000 -0.000000
vn 0.000000 1.000000 0.000000
vn 0.000000 1.000000 0.000000
vn 0.000000 1.000000 0.000000
vn 0.000000 1.000000 0.000000
vn 0.000000 1.000000 0.000000
vn 0.000000 1.000000 0.000000
vn 0.000000 1.000000 0.000000
vn 0.000000 1.000000 0.000000
vn 0.000000 1.000000 -0.000001
vn 0.000000 1.000000 -0.000001
vn 0.000000 1.000000 -0.000001
vn 0.000000 1.000000 -0.000001
vn 0.000000 1.000000 -0.000000
vn 0.000000 1.000000 -0.000000
vn 0.000000 1.000000 -0.000000
vn 0.000000 1.000000 -0.000000
vn 0.000000 1.000000 0.000001
vn 0.000000 1.000000 0.000001
vn 0.000000 1.000000 0.000001
vn 0.000000 1.000000 0.000001
vn 0.000000 1.000000 0.000000
vn 0.000000 1.000000 0.000000
vn 0.000000 1.000000 0.000000
vn 0.000000 1.000000 0.000000
vn 0.000000 1.000000 -0.000001
vn 0.000000 1.000000 -0.000001
vn 0.000000 1.000000 -0.000001
vn 0.000000 1.000000 -0.000001
vn 0.000000 1.000000 0.000000
vn 0.000000 1.000000 0.000000
vn 0.000000 1.000000 0.000000
vn 0.000000 1.000000 0.000000
vn 0.000000 1.000000 0.000000
vn 0.000000 1.000000 0.000000
vn 0.000000 1.000000 0.000000
vn 0.000000 1.000000 0.000000
vn 0.000000 1.000000 0.000000
vn 0.000000 1.000000 0.000000
vn 0.000000 1.000000 0.000000
vn 0.000000 1.000000 0.000000
vn 0.000000 1.000000 0.000000
vn 0.000000 1.000000 0.000000
vn 0.000000 1.000000 0.000000
vn 0.000000 1.000000 0.000000
vn -0.707105 0.000000 0.707109
vn -0.923879 0.000000 0.382685
vn -0.923879 0.000000 0.382685
vn -0.707105 0.000000 0.707109
vn -0.382682 0.000000 0.923880
vn -0.382682 0.000000 0.923880
vn -0.000000 0.000000 1.000000
vn -0.000000 0.000000 1.000000
vn 0.382683 0.000000 0.923880
vn 0.382683 0.000000 0.923880
vn 0.707104 0.000000 0.707109
vn 0.707104 0.000000 0.707109
vn 0.923879 0.000000 0.382684
vn 0.923879 0.000000 0.382684
vn 1.000000 0.000000 0.000000
vn 1.000000 0.000000 0.000000
vn 0.923879 0.000000 -0.382684
vn 0.923879 0.000000 -0.382684
vn 0.707104 0.000000 -0.707109
vn 0.707104 0.000000 -0.707109
vn 0.382684 0.000000 -0.923879
vn 0.382684 0.000000 -0.923879
vn 0.000000 0.000000 -1.000000
vn 0.000000 0.000000 -1.000000
vn -0.382682 0.000000 -0.923880
vn -0.382682 0.000000 -0.923880
vn -0.707104 0.000000 -0.707109
vn -0.707104 0.000000 -0.707109
vn -0.923879 0.000000 -0.382684
vn -0.923879 0.000000 -0.382684
vn -1.000000 0.000000 0.000000
vn -1.000000 0.000000 0.000000
vn -0.831469 0.000000 0.555571
vn -0.831469 0.000000 0.555571
vn -0.831469 0.000000 0.555571
vn -0.831469 0.000000 0.555571
vn -0.555567 0.000000 0.831472
vn -0.555567 0.000000 0.831472
vn -0.555567 0.000000 0.831472
vn -0.555567 0.000000 0.831472
vn -0.195090 0.000000 0.980785
vn -0.195090 0.000000 0.980785
vn -0.195090 0.000000 0.980785
vn -0.195090 0.000000 0.980785
vn 0.195092 0.000000 0.980785
vn 0.195092 0.000000 0.980785
vn 0.195092 0.000000 0.980785
vn 0.195092 0.000000 0.980785
vn 0.555566 0.000000 0.831473
vn 0.555566 0.000000 0.831473
vn 0.555566 0.000000 0.831473
vn 0.555566 0.000000 0.831473
vn 0.831469 0.000000 0.555571
vn 0.831469 0.000000 0.555571
vn 0.831469 0.000000 0.555571
vn 0.831469 0.000000 0.555571
vn 0.980785 0.000000 0.195092
vn 0.980785 0.000000 0.195092
vn 0.980785 0.000000 0.195092
vn 0.980785 0.000000 0.195092
vn 0.980785 0.000000 -0.195092
vn 0.980785 0.000000 -0.195092
vn 0.980785 0.000000 -0.195092
vn 0.980785 0.000000 -0.195092
vn 0.831470 0.000000 -0.555570
vn 0.831470 0.000000 -0.555570
vn 0.831470 0.000000 -0.555570
vn 0.831470 0.000000 -0.555570
vn 0.555566 0.000000 -0.831473
vn 0.555566 0.000000 -0.831473
vn 0.555566 0.000000 -0.831473
vn 0.555566 0.000000 -0.831473
vn 0.195093 0.000000 -0.980785
vn 0.195093 0.000000 -0.980785
vn 0.195093 0.000000 -0.980785
vn 0.195093 0.000000 -0.980785
vn -0.195090 0.000000 -0.980785
vn -0.195090 0.000000 -0.980785
vn -0.195090 0.000000 -0.980785
vn -0.195090 0.000000 -0.980785
vn -0.555566 0.000000 -0.831472
vn -0.555566 0.000000 -0.831472
vn -0.555566 0.000000 -0.831472
vn -0.555566 0.000000 -0.831472
vn -0.831469 0.000000 -0.555571
vn -0.831469 0.000000 -0.555571
vn -0.831469 0.000000 -0.555571
vn -0.831469 0.000000 -0.555571
vn -0.980785 0.000000 -0.195092
vn -0.980785 0.000000 -0.195092
vn -0.980785 0.000000 -0.195092
vn -0.980785 0.000000 -0.195092
vn -0.980785 0.000000 0.195092
vn -0.980785 0.000000 0.195092
vn -0.980785 0.000000 0.195092
vn -0.980785 0.000000 0.195092
vn 0.000000 -1.000000 0.000000
vn 0.000000 -1.000000 0.000000
vn 0.000000 -1.000000 0.000000
vn 0.000000 -1.000000 0.000000
vn 0.000000 -1.000000 -0.000000
vn 0.000000 -1.000000 -0.000000
vn 0.000000 -1.000000 -0.000000
vn 0.000000 -1.000000 -0.000000
vn 0.000000 -1.000000 0.000000
vn 0.000000 -1.000000 0.000000
vn 0.000000 -1.000000 0.000000
vn 0.000000 -1.000000 0.000000
vn 0.000000 -1.000000 -0.000000
vn 0.000000 -1.000000 -0.000000
vn 0.000000 -1.000000 -0.000000
vn 0.000000 -1.000000 -0.000000
vn 0.000000 -1.000000 0.000000
vn 0.000000 -1.000000 0.000000
vn 0.000000 -1.000000 0.000000
vn 0.000000 -1.000000 0.000000
vn 0.000000 -1.000000 0.000000
vn 0.000000 -1.000000 0.000000
vn 0.000000 -1.000000 0.000000
vn 0.000000 -1.000000 0.000000
vn 0.000000 -1.000000 0.000000
vn 0.000000 -1.000000 0.000000
vn 0.000000 -1.000000 0.000000
vn 0.000000 -1.000000 0.000000
vn 0.000000 -1.000000 0.000000
vn 0.000000 -1.000000 0.000000
vn 0.000000 -1.000000 0.000000
vn 0.000000 -1.000000 0.000000
vn 0.000000 -1.000000 0.000000
vn 0.000000 -1.000000 0.000000
vn 0.000000 -1.000000 0.000000
vn 0.000000 -1.000000 0.000000
vn 0.000000 -1.000000 0.000000
vn 0.000000 -1.000000 0.000000
vn 0.000000 -1.000000 0.000000
vn 0.000000 -1.000000 0.000000
vn 0.000000 -1.000000 0.000000
vn 0.000000 -1.000000 0.000000
vn 0.000000 -1.000000 0.000000
vn 0.000000 -1.000000 0.000000
vn 0.000000 -1.000000 -0.000000
vn 0.000000 -1.000000 -0.000000
vn 0.000000 -1.000000 -0.000000
vn 0.000000 -1.000000 -0.000000
vn 0.000000 -1.000000 0.000000
vn 0.000000 -1.000000 0.000000
vn 0.000000 -1.000000 0.000000
vn 0.000000 -1.000000 0.000000
vn 0.000000 -1.000000 0.000000
vn 0.000000 -1.000000 0.000000
vn 0.000000 -1.000000 0.000000
vn 0.000000 -1.000000 0.000000
vn 0.000000 -1.000000 0.000000
vn 0.000000 -1.000000 0.000000
vn 0.000000 -1.000000 0.000000
vn 0.000000 -1.000000 0.000000
vn 0.000000 -1.000000 0.000000
vn 0.000000 -1.000000 0.000000
vn 0.000000 -1.000000 0.000000
vn 0.000000 -1.000000 0.000000
vn 0.000000 1.000000 0.000000
vn 0.000000 1.000000 0.000000
vn 0.000000 1.000000 0.000000
vn 0.000000 1.000000 0.000000
vn 0.000000 1.000000 -0.000000
vn 0.000000 1.000000 -0.000000
vn 0.000000 1.000000 -0.000000
vn 0.000000 1.000000 -0.000000
vn 0.000000 1.000000 0.000000
vn 0.000000 1.000000 0.000000
vn 0.000000 1.000000 0.000000
vn 0.000000 1.000000 0.000000
vn 0.000000 1.000000 0.000000
vn 0.000000 1.000000 0.000000
vn 0.000000 1.000000 0.000000
vn 0.000000 1.000000 0.000000
vn 0.000000 1.000000 0.000000
vn 0.000000 1.000000 0.000000
vn 0.000000 1.000000 0.000000
vn 0.000000 1.000000 0.000000
vn 0.000000 1.000000 -0.000000
vn 0.000000 1.000000 -0.000000
vn 0.000000 1.000000 -0.000000
vn 0.000000 1.000000 -0.000000
vn 0.000000 1.000000 -0.000001
vn 0.000000 1.000000 -0.000001
vn 0.000000 1.000000 -0.000001
vn 0.000000 1.000000 -0.000001
vn 0.000000 1.000000 0.000001
vn 0.000000 1.000000 0.000001
vn 0.000000 1.000000 0.000001
vn 0.000000 1.000000 0.000001
vn 0.000000 1.000000 0.000000
vn 0.000000 1.000000 0.000000
vn 0.000000 1.000000 0.000000
vn 0.000000 1.000000 0.000000
vn 0.000000 1.000000 0.000000
vn 0.000000 1.000000 0.000000
vn 0.000000 1.000000 0.000000
vn 0.000000 1.000000 0.000000
vn 0.000000 1.000000 -0.000000
vn 0.000000 1.000000 -0.000000
vn 0.000000 1.000000 -0.000000
vn 0.000000 1.000000 -0.000000
vn 0.000000 1.000000 0.000000
vn 0.000000 1.000000 0.000000
vn 0.000000 1.000000 0.000000
vn 0.000000 1.000000 0.000000
vn 0.000000 1.000000 0.000000
vn 0.000000 1.000000 0.000000
vn 0.000000 1.000000 0.000000
vn 0.000000 1.000000 0.000000
vn 0.000000 1.000000 0.000000
vn 0.000000 1.000000 0.000000
vn 0.000000 1.000000 0.000000
vn 0.000000 1.000000 0.000000
vn 0.000000 1.000000 0.000001
vn 0.000000 1.000000 0.000001
vn 0.000000 1.000000 0.000001
vn 0.000000 1.000000 0.000001
vn 0.000000 1.000000 -0.000001
vn 0.000000 1.000000 -0.000001
vn 0.000000 1.000000 -0.000001
vn 0.000000 1.000000 -0.000001
vn 0.923880 0.000000 -0.382684
vn 0.707107 0.000000 -0.707106
vn 0.707107 0.000000 -0.707106
vn 0.923880 0.000000 -0.382684
vn 0.382680 0.000000 -0.923881
vn 0.382680 0.000000 -0.923881
vn 0.000000 0.000000 -1.000000
vn 0.000000 0.000000 -1.000000
vn -0.382683 0.000000 -0.923880
vn -0.382683 0.000000 -0.923880
vn -0.707107 0.000000 -0.707107
vn -0.707107 0.000000 -0.707107
vn -0.923880 0.000000 -0.382683
vn -0.923880 0.000000 -0.382683
vn -1.000000 -0.000000 -0.000000
vn -1.000000 -0.000000 -0.000000
vn -0.923880 -0.000000 0.382683
vn -0.923880 -0.000000 0.382683
vn -0.707107 0.000000 0.707106
vn -0.707107 0.000000 0.707106
vn -0.382684 0.000000 0.923879
vn -0.382684 0.000000 0.923879
vn 0.000000 0.000000 1.000000
vn 0.000000 0.000000 1.000000
vn 0.382679 0.000000 0.923882
vn 0.382679 0.000000 0.923882
vn 0.707107 0.000000 0.707106
vn 0.707107 0.000000 0.707106
vn 0.923880 0.000000 0.382683
vn 0.923880 0.000000 0.382683
vn 1.000000 0.000000 -0.000000
vn 1.000000 0.000000 -0.000000
vn -0.707108 0.000000 0.707106
vn -0.923880 0.000000 0.382684
vn -0.923880 0.000000 0.382684
vn -0.707108 0.000000 0.707106
vn -0.382680 0.000000 0.923881
vn -0.382680 0.000000 0.923881
vn 0.000000 0.000000 1.000000
vn 0.000000 0.000000 1.000000
vn 0.382683 0.000000 0.923880
vn 0.382683 0.000000 0.923880
vn 0.707107 0.000000 0.707107
vn 0.707107 0.000000 0.707107
vn 0.923880 -0.000000 0.382684
vn 0.923880 -0.000000 0.382684
vn 1.000000 -0.000000 -0.000000
vn 1.000000 -0.000000 -0.000000
vn 0.923880 0.000000 -0.382683
vn 0.923880 0.000000 -0.382683
vn 0.707108 0.000000 -0.707106
vn 0.707108 0.000000 -0.707106
vn 0.382684 0.000000 -0.923880
vn 0.382684 0.000000 -0.923880
vn 0.000000 0.000000 -1.000000
vn 0.000000 0.000000 -1.000000
vn -0.382679 0.000000 -0.923881
vn -0.382679 0.000000 -0.923881
vn -0.707107 0.000000 -0.707106
vn -0.707107 0.000000 -0.707106
vn -0.923880 0.000000 -0.382683
vn -0.923880 0.000000 -0.382683
vn -1.000000 0.000000 -0.000000
vn -1.000000 0.000000 -0.000000
s 1
g Pila
usemtl initialShadingGroup
f 1/317/1 2/330/2 18/315/3 17/302/4
f 2/330/2 3/329/5 19/314/6 18/315/3
f 3/329/5 4/328/7 20/313/8 19/314/6
f 4/328/7 5/297/9 21/300/10 20/313/8
f 5/298/9 6/327/11 22/312/12 21/299/10
f 6/327/11 7/326/13 23/311/14 22/312/12
f 7/326/13 8/325/15 24/310/16 23/311/14
f 8/325/15 9/324/17 25/309/18 24/310/16
f 9/324/17 10/323/19 26/308/20 25/309/18
f 10/323/19 11/322/21 27/307/22 26/308/20
f 11/322/21 12/321/23 28/306/24 27/307/22
f 12/321/23 13/320/25 29/305/26 28/306/24
f 13/320/25 14/319/27 30/304/28 29/305/26
f 14/319/27 15/318/29 31/303/30 30/304/28
f 15/318/29 16/316/31 32/301/32 31/303/30
f 16/316/31 1/317/1 17/302/4 32/301/32
s 2
f 147/33/33 146/164/34 148/35/35
f 149/36/36 147/33/33 148/35/35
f 150/37/37 149/36/36 148/35/35
f 151/38/38 150/37/37 148/35/35
f 152/39/39 151/38/38 148/35/35
f 153/40/40 152/39/39 148/35/35
f 154/41/41 153/40/40 148/35/35
f 155/42/42 154/41/41 148/35/35
f 156/43/43 155/42/42 148/35/35
f 157/44/44 156/43/43 148/35/35
f 158/45/45 157/44/44 148/35/35
f 159/46/46 158/45/45 148/35/35
f 160/47/47 159/46/46 148/35/35
f 161/48/48 160/47/47 148/35/35
f 162/49/49 161/48/48 148/35/35
f 146/164/34 162/49/49 148/35/35
s 3
f 129/50/50 130/200/51 131/52/52
f 130/200/51 132/199/53 131/52/52
f 132/199/53 133/196/54 131/52/52
f 133/196/54 134/195/55 131/52/52
f 134/195/55 135/193/56 131/52/52
f 135/193/56 136/192/57 131/52/52
f 136/192/57 137/191/58 131/52/52
f 137/191/58 138/190/59 131/52/52
f 138/190/59 139/189/60 131/52/52
f 139/189/60 140/188/61 131/52/52
f 140/188/61 141/187/62 131/52/52
f 141/187/62 142/186/63 131/52/52
f 142/186/63 143/185/64 131/52/52
f 143/185/64 144/184/65 131/52/52
f 144/184/65 145/182/66 131/52/52
f 145/182/66 129/50/50 131/52/52
s off
f 2/2/67 1/1/68 33/283/69 34/296/70
f 3/5/71 2/2/72 34/296/73 35/295/74
f 4/7/75 3/5/76 35/295/77 36/294/78
f 5/9/79 4/7/80 36/294/81 37/262/82
f 6/11/83 5/9/84 37/262/85 38/293/86
f 7/13/87 6/11/88 38/293/89 39/292/90
f 8/15/91 7/13/92 39/292/93 40/291/94
f 9/17/95 8/15/96 40/291/97 41/290/98
f 10/19/99 9/17/100 41/290/101 42/289/102
f 11/21/103 10/19/104 42/289/105 43/288/106
f 12/23/107 11/21/108 43/288/109 44/287/110
f 13/25/111 12/23/112 44/287/113 45/286/114
f 14/27/115 13/25/116 45/286/117 46/285/118
f 15/29/119 14/27/120 46/285/121 47/284/122
f 16/31/123 15/29/124 47/284/125 48/282/126
f 1/1/127 16/31/128 48/282/129 33/283/130
f 17/4/131 18/3/132 50/281/133 49/267/134
f 18/3/135 19/6/136 51/280/137 50/281/138
f 19/6/139 20/8/140 52/279/141 51/280/142
f 20/8/143 21/10/144 53/278/145 52/279/146
f 21/10/147 22/12/148 54/277/149 53/278/150
f 22/12/151 23/14/152 55/276/153 54/277/154
f 23/14/155 24/16/156 56/275/157 55/276/158
f 24/16/159 25/18/160 57/274/161 56/275/162
f 25/18/163 26/20/164 58/273/165 57/274/166
f 26/20/167 27/22/168 59/272/169 58/273/170
f 27/22/171 28/24/172 60/271/173 59/272/174
f 28/24/175 29/26/176 61/270/177 60/271/178
f 29/26/179 30/28/180 62/269/181 61/270/182
f 30/28/183 31/30/184 63/268/185 62/269/186
f 31/30/187 32/32/188 64/266/189 63/268/190
f 32/32/191 17/4/192 49/267/193 64/266/194
s 4
f 34/68/195 33/67/196 65/248/197 66/265/198
f 35/69/199 34/68/195 66/265/198 67/264/200
f 36/70/201 35/69/199 67/264/200 68/261/202
f 37/71/203 36/70/201 68/261/202 69/259/204
f 38/72/205 37/263/203 69/260/204 70/258/206
f 39/73/207 38/72/205 70/258/206 71/257/208
f 40/74/209 39/73/207 71/257/208 72/256/210
f 41/75/211 40/74/209 72/256/210 73/255/212
f 42/76/213 41/75/211 73/255/212 74/254/214
f 43/77/215 42/76/213 74/254/214 75/253/216
f 44/78/217 43/77/215 75/253/216 76/252/218
f 45/79/219 44/78/217 76/252/218 77/251/220
f 46/80/221 45/79/219 77/251/220 78/250/222
f 47/81/223 46/80/221 78/250/222 79/249/224
f 48/82/225 47/81/223 79/249/224 80/247/226
f 33/67/196 48/82/225 80/247/226 65/248/197
s off
f 49/84/227 50/83/228 82/246/229 81/232/230
f 50/83/231 51/85/232 83/245/233 82/246/234
f 51/85/235 52/86/236 84/244/237 83/245/238
f 52/86/239 53/87/240 85/243/241 84/244/242
f 53/87/243 54/88/244 86/242/245 85/243/246
f 54/88/247 55/89/248 87/241/249 86/242/250
f 55/89/251 56/90/252 88/240/253 87/241/254
f 56/90/255 57/91/256 89/239/257 88/240/258
f 57/91/259 58/92/260 90/238/261 89/239/262
f 58/92/263 59/93/264 91/237/265 90/238/266
f 59/93/267 60/94/268 92/236/269 91/237/270
f 60/94/271 61/95/272 93/235/273 92/236/274
f 61/95/275 62/96/276 94/234/277 93/235/278
f 62/96/279 63/97/280 95/233/281 94/234/282
f 63/97/283 64/98/284 96/231/285 95/233/286
f 64/98/287 49/84/288 81/232/289 96/231/290
f 66/100/291 65/99/292 97/217/293 98/230/294
f 67/101/295 66/100/296 98/230/297 99/229/298
f 68/102/299 67/101/300 99/229/301 100/228/302
f 69/103/303 68/102/304 100/228/305 101/178/306
f 70/104/307 69/103/308 101/178/309 102/227/310
f 71/105/311 70/104/312 102/227/313 103/226/314
f 72/106/315 71/105/316 103/226/317 104/225/318
f 73/107/319 72/106/320 104/225/321 105/224/322
f 74/108/323 73/107/324 105/224/325 106/223/326
f 75/109/327 74/108/328 106/223/329 107/222/330
f 76/110/331 75/109/332 107/222/333 108/221/334
f 77/111/335 76/110/336 108/221/337 109/220/338
f 78/112/339 77/111/340 109/220/341 110/219/342
f 79/113/343 78/112/344 110/219/345 111/218/346
f 80/114/347 79/113/348 111/218/349 112/216/350
f 65/99/351 80/114/352 112/216/353 97/217/354
f 81/116/355 82/115/356 114/215/357 113/202/358
f 82/115/359 83/117/360 115/214/361 114/215/362
f 83/117/363 84/118/364 116/213/365 115/214/366
f 84/118/367 85/119/368 117/197/369 116/213/370
f 85/119/371 86/120/372 118/212/373 117/197/374
f 86/120/375 87/121/376 119/211/377 118/212/378
f 87/121/379 88/122/380 120/210/381 119/211/382
f 88/122/383 89/123/384 121/209/385 120/210/386
f 89/123/387 90/124/388 122/208/389 121/209/390
f 90/124/391 91/125/392 123/207/393 122/208/394
f 91/125/395 92/126/396 124/206/397 123/207/398
f 92/126/399 93/127/400 125/205/401 124/206/402
f 93/127/403 94/128/404 126/204/405 125/205/406
f 94/128/407 95/129/408 127/203/409 126/204/410
f 95/129/411 96/130/412 128/201/413 127/203/414
f 96/130/415 81/116/416 113/202/417 128/201/418
s 5
f 113/148/419 114/147/420 130/51/421 129/183/422
f 114/147/420 115/149/423 132/53/424 130/51/421
f 115/149/423 116/150/425 133/54/426 132/53/424
f 116/150/425 117/198/427 134/194/428 133/54/426
f 117/151/427 118/152/429 135/56/430 134/55/428
f 118/152/429 119/153/431 136/57/432 135/56/430
f 119/153/431 120/154/433 137/58/434 136/57/432
f 120/154/433 121/155/435 138/59/436 137/58/434
f 121/155/435 122/156/437 139/60/438 138/59/436
f 122/156/437 123/157/439 140/61/440 139/60/438
f 123/157/439 124/158/441 141/62/442 140/61/440
f 124/158/441 125/159/443 142/63/444 141/62/442
f 125/159/443 126/160/445 143/64/446 142/63/444
f 126/160/445 127/161/447 144/65/448 143/64/446
f 127/161/447 128/162/449 145/66/450 144/65/448
f 128/162/449 113/148/419 129/183/422 145/66/450
s 6
f 98/132/451 97/131/452 146/34/453 147/181/454
f 99/133/455 98/132/451 147/181/454 149/180/456
f 100/134/457 99/133/455 149/180/456 150/177/458
f 101/135/459 100/134/457 150/177/458 151/175/460
f 102/136/461 101/179/459 151/176/460 152/174/462
f 103/137/463 102/136/461 152/174/462 153/173/464
f 104/138/465 103/137/463 153/173/464 154/172/466
f 105/139/467 104/138/465 154/172/466 155/171/468
f 106/140/469 105/139/467 155/171/468 156/170/470
f 107/141/471 106/140/469 156/170/470 157/169/472
f 108/142/473 107/141/471 157/169/472 158/168/474
f 109/143/475 108/142/473 158/168/474 159/167/476
f 110/144/477 109/143/475 159/167/476 160/166/478
f 111/145/479 110/144/477 160/166/478 161/165/480
f 112/146/481 111/145/479 161/165/480 162/163/482
f 97/131/452 112/146/481 162/163/482 146/34/453
g default
v 0.151501 -0.002424 0.129320
v 0.135009 -0.002424 0.104638
v 0.110328 -0.002424 0.088147
v 0.081214 -0.002424 0.082356
v 0.052101 -0.002424 0.088147
v 0.027419 -0.002424 0.104638
v 0.010928 -0.002424 0.129320
v 0.010928 -0.002424 0.158433
v 0.010928 -0.002424 0.187547
v 0.027419 -0.002424 0.212228
v 0.052101 -0.002424 0.228720
v 0.081214 -0.002424 0.234511
v 0.110328 -0.002424 0.228720
v 0.135009 -0.002424 0.212229
v 0.151501 -0.002424 0.187547
v 0.157292 -0.002424 0.158433
v -0.127179 -0.002424 0.129320
v -0.157292 -0.002424 0.158433
v -0.127179 -0.002424 0.187547
v 0.004022 -0.002424 0.187547
v -0.023851 -0.002424 0.187547
v -0.048918 -0.002424 0.187547
v -0.093036 -0.002424 0.187547
v -0.111338 -0.002424 0.177078
v -0.064141 -0.002424 0.172857
v -0.036897 -0.002424 0.180148
v -0.006584 -0.002424 0.180532
v 0.004022 -0.002424 0.129320
v -0.006584 -0.002424 0.129320
v -0.023851 -0.002424 0.129320
v -0.036897 -0.002424 0.129320
v -0.048918 -0.002424 0.129320
v -0.064141 -0.002424 0.129320
v -0.093036 -0.002424 0.129320
v -0.111338 -0.002424 0.129320
v 0.004022 -0.002424 0.158433
v -0.006584 -0.002424 0.158433
v -0.023851 -0.002424 0.158433
v -0.036897 -0.002424 0.158433
v -0.048918 -0.002424 0.158433
v -0.064141 -0.002424 0.158433
v -0.093036 -0.002424 0.158433
v -0.111338 -0.002424 0.158433
v 0.138316 -0.002424 0.148041
v 0.132439 -0.002424 0.139278
v 0.123655 -0.002424 0.133430
v 0.113302 -0.002424 0.131390
v 0.102956 -0.002424 0.133466
v 0.094193 -0.002424 0.139343
v 0.088346 -0.002424 0.148127
v 0.086305 -0.002424 0.158480
v 0.088381 -0.002424 0.168826
v 0.094259 -0.002424 0.177589
v 0.103043 -0.002424 0.183437
v 0.113395 -0.002424 0.185477
v 0.123741 -0.002424 0.183401
v 0.132505 -0.002424 0.177523
v 0.138352 -0.002424 0.168740
v 0.140393 -0.002424 0.158387
v 0.142984 -0.002424 0.133500
v 0.147474 -0.002424 0.131631
v 0.152830 -0.002424 0.158308
v 0.147966 -0.002424 0.158316
v 0.147570 -0.002424 0.185004
v 0.143073 -0.002424 0.183150
v 0.132495 -0.002424 0.207655
v 0.129049 -0.002424 0.204222
v 0.109898 -0.002424 0.222812
v 0.108029 -0.002424 0.218322
v 0.083221 -0.002424 0.228169
v 0.083212 -0.002424 0.223305
v 0.056525 -0.002424 0.222908
v 0.058378 -0.002424 0.218412
v 0.033874 -0.002424 0.207833
v 0.037307 -0.002424 0.204387
v 0.018717 -0.002424 0.185236
v 0.023207 -0.002424 0.183367
v 0.013360 -0.002424 0.158559
v 0.018224 -0.002424 0.158551
v 0.018620 -0.002424 0.131863
v 0.023117 -0.002424 0.133717
v 0.033696 -0.002424 0.109212
v 0.037142 -0.002424 0.112645
v 0.056292 -0.002424 0.094055
v 0.058162 -0.002424 0.098545
v 0.082969 -0.002424 0.088698
v 0.082978 -0.002424 0.093562
v 0.109665 -0.002424 0.093958
v 0.107812 -0.002424 0.098455
v 0.132316 -0.002424 0.109034
v 0.128884 -0.002424 0.112480
v 0.151501 0.002424 0.129320
v 0.135009 0.002424 0.104638
v 0.110328 0.002424 0.088147
v 0.081214 0.002424 0.082356
v 0.052101 0.002424 0.088147
v 0.027419 0.002424 0.104638
v 0.010928 0.002424 0.129320
v 0.010928 0.002424 0.158433
v 0.010928 0.002424 0.187547
v 0.027419 0.002424 0.212228
v 0.052101 0.002424 0.228720
v 0.081214 0.002424 0.234511
v 0.110328 0.002424 0.228720
v 0.135009 0.002424 0.212229
v 0.151501 0.002424 0.187547
v 0.157292 0.002424 0.158433
v -0.127179 0.002424 0.129320
v -0.157292 0.002424 0.158433
v -0.127179 0.002424 0.187547
v 0.004022 0.002424 0.187547
v -0.023851 0.002424 0.187547
v -0.048918 0.002424 0.187547
v -0.093036 0.002424 0.187547
v -0.111338 0.002424 0.177078
v -0.064141 0.002424 0.172857
v -0.036897 0.002424 0.180148
v -0.006584 0.002424 0.180532
v 0.004022 0.002424 0.129320
v -0.006584 0.002424 0.129320
v -0.023851 0.002424 0.129320
v -0.036897 0.002424 0.129320
v -0.048918 0.002424 0.129320
v -0.064141 0.002424 0.129320
v -0.093036 0.002424 0.129320
v -0.111338 0.002424 0.129320
v 0.004022 0.002424 0.158433
v -0.006584 0.002424 0.158433
v -0.023851 0.002424 0.158433
v -0.036897 0.002424 0.158433
v -0.048918 0.002424 0.158433
v -0.064141 0.002424 0.158433
v -0.093036 0.002424 0.158433
v -0.111338 0.002424 0.158433
v 0.138316 0.002424 0.148041
v 0.132439 0.002424 0.139278
v 0.123655 0.002424 0.133430
v 0.113302 0.002424 0.131390
v 0.102956 0.002424 0.133466
v 0.094193 0.002424 0.139343
v 0.088346 0.002424 0.148127
v 0.086305 0.002424 0.158480
v 0.088381 0.002424 0.168826
v 0.094259 0.002424 0.177589
v 0.103043 0.002424 0.183437
v 0.113395 0.002424 0.185477
v 0.123741 0.002424 0.183401
v 0.132505 0.002424 0.177523
v 0.138352 0.002424 0.168740
v 0.140393 0.002424 0.158387
v 0.142984 0.002424 0.133500
v 0.147474 0.002424 0.131631
v 0.152830 0.002424 0.158308
v 0.147966 0.002424 0.158316
v 0.147570 0.002424 0.185004
v 0.143073 0.002424 0.183150
v 0.132495 0.002424 0.207655
v 0.129049 0.002424 0.204222
v 0.109898 0.002424 0.222812
v 0.108029 0.002424 0.218322
v 0.083221 0.002424 0.228169
v 0.083212 0.002424 0.223305
v 0.056525 0.002424 0.222908
v 0.058378 0.002424 0.218412
v 0.033874 0.002424 0.207833
v 0.037307 0.002424 0.204387
v 0.018717 0.002424 0.185236
v 0.023207 0.002424 0.183367
v 0.013360 0.002424 0.158559
v 0.018224 0.002424 0.158551
v 0.018620 0.002424 0.131863
v 0.023117 0.002424 0.133717
v 0.033696 0.002424 0.109212
v 0.037142 0.002424 0.112645
v 0.056292 0.002424 0.094055
v 0.058162 0.002424 0.098545
v 0.082969 0.002424 0.088698
v 0.082978 0.002424 0.093562
v 0.109665 0.002424 0.093958
v 0.107812 0.002424 0.098455
v 0.132316 0.002424 0.109034
v 0.128884 0.002424 0.112480
v 0.128884 -0.000753 0.112480
v 0.142984 -0.000753 0.133500
v 0.132316 -0.000753 0.109034
v 0.147474 -0.000753 0.131631
v 0.152830 -0.000753 0.158308
v 0.147966 -0.000753 0.158316
v 0.147570 -0.000753 0.185004
v 0.143073 -0.000753 0.183150
v 0.132495 -0.000753 0.207655
v 0.129049 -0.000753 0.204222
v 0.109898 -0.000753 0.222812
v 0.108029 -0.000753 0.218322
v 0.083221 -0.000753 0.228169
v 0.083212 -0.000753 0.223305
v 0.056525 -0.000753 0.222908
v 0.058378 -0.000753 0.218412
v 0.033874 -0.000753 0.207833
v 0.037307 -0.000753 0.204387
v 0.018717 -0.000753 0.185236
v 0.023207 -0.000753 0.183367
v 0.013360 -0.000753 0.158559
v 0.018224 -0.000753 0.158551
v 0.018620 -0.000753 0.131863
v 0.023117 -0.000753 0.133717
v 0.033696 -0.000753 0.109212
v 0.037142 -0.000753 0.112645
v 0.056292 -0.000753 0.094055
v 0.058162 -0.000753 0.098545
v 0.082969 -0.000753 0.088698
v 0.082978 -0.000753 0.093562
v 0.109665 -0.000753 0.093958
v 0.107812 -0.000753 0.098455
v 0.142984 0.000753 0.133500
v 0.147474 0.000753 0.131631
v 0.132316 0.000753 0.109034
v 0.128884 0.000753 0.112480
v 0.147966 0.000753 0.158316
v 0.152830 0.000753 0.158308
v 0.143073 0.000753 0.183150
v 0.147570 0.000753 0.185004
v 0.129049 0.000753 0.204222
v 0.132495 0.000753 0.207655
v 0.108029 0.000753 0.218322
v 0.109898 0.000753 0.222812
v 0.083212 0.000753 0.223305
v 0.083221 0.000753 0.228169
v 0.058378 0.000753 0.218412
v 0.056525 0.000753 0.222908
v 0.037307 0.000753 0.204387
v 0.033874 0.000753 0.207833
v 0.023207 0.000753 0.183367
v 0.018717 0.000753 0.185236
v 0.018224 0.000753 0.158551
v 0.013360 0.000753 0.158559
v 0.023117 0.000753 0.133717
v 0.018620 0.000753 0.131863
v 0.037142 0.000753 0.112645
v 0.033696 0.000753 0.109212
v 0.058162 0.000753 0.098545
v 0.056292 0.000753 0.094055
v 0.082978 0.000753 0.093562
v 0.082969 0.000753 0.088698
v 0.107812 0.000753 0.098455
v 0.109665 0.000753 0.093958
v 0.009559 -0.002424 0.123474
v 0.005391 -0.002424 0.123474
v 0.005391 0.002424 0.123474
v 0.009559 0.002424 0.123474
v 0.009559 -0.002424 0.193393
v 0.005391 -0.002424 0.193393
v 0.009559 0.002424 0.193393
v 0.005391 0.002424 0.193393
vt 0.734814 0.216828
vt 0.942536 0.022911
vt 0.951621 0.652007
vt 0.951621 0.623948
vt 0.942536 0.130734
vt 0.942536 0.097101
vt 0.942536 0.168080
vt 0.741138 0.248622
vt 0.951621 0.591530
vt 0.942536 0.225496
vt 0.751123 0.298820
vt 0.951621 0.540349
vt 0.942536 0.262966
vt 0.756383 0.325266
vt 0.951621 0.513385
vt 0.942536 0.287970
vt 0.760538 0.346150
vt 0.951621 0.492092
vt 0.942536 0.314536
vt 0.765046 0.368814
vt 0.951621 0.468983
vt 0.942536 0.347549
vt 0.771013 0.398811
vt 0.951621 0.438399
vt 0.724100 0.427297
vt 0.774678 0.417237
vt 0.951621 0.419612
vt 0.942536 0.398724
vt 0.777064 0.429233
vt 0.827641 0.419172
vt 0.412307 0.666831
vt 0.972234 0.471247
vt 0.366100 0.676825
vt 0.962500 0.360277
vt 0.962500 0.408472
vt 0.457141 0.666831
vt 0.962500 0.456668
vt 0.498562 0.683988
vt 0.962500 0.504863
vt 0.530264 0.715691
vt 0.962500 0.553058
vt 0.547421 0.757111
vt 0.962500 0.601254
vt 0.547421 0.801945
vt 0.962500 0.649449
vt 0.530264 0.843367
vt 0.962500 0.697644
vt 0.498562 0.875068
vt 0.962500 0.745839
vt 0.457141 0.892225
vt 0.962500 0.022911
vt 0.412307 0.892226
vt 0.962500 0.071106
vt 0.370886 0.875068
vt 0.962500 0.119301
vt 0.339184 0.843366
vt 0.962500 0.167496
vt 0.322027 0.801946
vt 0.962500 0.215692
vt 0.322027 0.757111
vt 0.962500 0.263887
vt 0.339184 0.715690
vt 0.951621 0.075489
vt 0.965460 0.360277
vt 0.965460 0.312082
vt 0.951621 0.128068
vt 0.965460 0.263887
vt 0.951621 0.180646
vt 0.965460 0.215692
vt 0.951621 0.233225
vt 0.965460 0.167496
vt 0.951621 0.285804
vt 0.965460 0.119301
vt 0.951621 0.338382
vt 0.965460 0.071106
vt 0.965460 0.022911
vt 0.965460 0.745839
vt 0.965460 0.697644
vt 0.942536 0.451303
vt 0.965460 0.649449
vt 0.942536 0.503881
vt 0.965460 0.601254
vt 0.942536 0.556460
vt 0.965460 0.553058
vt 0.942536 0.609038
vt 0.965460 0.504863
vt 0.942536 0.661617
vt 0.965460 0.456668
vt 0.942536 0.714196
vt 0.965460 0.408472
vt 0.951621 0.022911
vt 0.975194 0.381580
vt 0.429887 0.352834
vt 0.429887 0.334144
vt 0.975194 0.426414
vt 0.975194 0.336747
vt 0.429887 0.371525
vt 0.975194 0.291913
vt 0.429887 0.390215
vt 0.975194 0.247079
vt 0.429887 0.408906
vt 0.975194 0.202245
vt 0.429887 0.427596
vt 0.975194 0.157411
vt 0.429887 0.446287
vt 0.975194 0.112578
vt 0.429887 0.464977
vt 0.975194 0.067744
vt 0.429887 0.483668
vt 0.975194 0.022911
vt 0.429887 0.203310
vt 0.975194 0.695416
vt 0.429887 0.222001
vt 0.975194 0.650583
vt 0.429887 0.240691
vt 0.975194 0.605749
vt 0.429887 0.259382
vt 0.975194 0.560915
vt 0.429887 0.278072
vt 0.975194 0.516081
vt 0.429887 0.296763
vt 0.975194 0.471247
vt 0.429887 0.315453
vt 0.486925 0.489586
vt 0.943032 0.623948
vt 0.943032 0.652007
vt 0.943032 0.726197
vt 0.933947 0.130734
vt 0.933947 0.097101
vt 0.933947 0.168080
vt 0.493250 0.457791
vt 0.943032 0.591530
vt 0.933947 0.225496
vt 0.503235 0.407593
vt 0.943032 0.540349
vt 0.933947 0.262966
vt 0.508495 0.381148
vt 0.943032 0.513385
vt 0.933947 0.287970
vt 0.512649 0.360264
vt 0.943032 0.492092
vt 0.933947 0.314536
vt 0.517157 0.337599
vt 0.943032 0.468983
vt 0.933947 0.347549
vt 0.523124 0.307602
vt 0.943032 0.438399
vt 0.933947 0.370073
vt 0.526789 0.289177
vt 0.577367 0.299237
vt 0.478598 0.267120
vt 0.529175 0.277180
vt 0.943032 0.390961
vt 0.968989 0.336747
vt 0.121855 0.900675
vt 0.965745 0.504863
vt 0.082115 0.875069
vt 0.968989 0.381580
vt 0.170051 0.900675
vt 0.968989 0.426414
vt 0.214577 0.882232
vt 0.968989 0.471248
vt 0.248656 0.848153
vt 0.968989 0.516081
vt 0.267100 0.803626
vt 0.968989 0.560915
vt 0.267100 0.755431
vt 0.968989 0.605749
vt 0.248656 0.710905
vt 0.968989 0.650582
vt 0.214577 0.676825
vt 0.968989 0.695416
vt 0.170051 0.658382
vt 0.968989 0.022911
vt 0.121855 0.658382
vt 0.968989 0.067744
vt 0.077329 0.676825
vt 0.968989 0.112578
vt 0.043250 0.710904
vt 0.968989 0.157411
vt 0.024806 0.755431
vt 0.968989 0.202245
vt 0.024806 0.803626
vt 0.968989 0.247079
vt 0.043250 0.848152
vt 0.943032 0.075489
vt 0.943032 0.128068
vt 0.968705 0.504863
vt 0.968705 0.456668
vt 0.943032 0.180646
vt 0.968705 0.553058
vt 0.943032 0.233225
vt 0.968705 0.601253
vt 0.943032 0.285804
vt 0.968705 0.649449
vt 0.943032 0.338382
vt 0.968705 0.697644
vt 0.968705 0.745839
vt 0.968705 0.022911
vt 0.968705 0.071106
vt 0.933947 0.451303
vt 0.968705 0.119301
vt 0.933947 0.503881
vt 0.968705 0.167497
vt 0.933947 0.556460
vt 0.968705 0.215691
vt 0.933947 0.609038
vt 0.968705 0.263887
vt 0.933947 0.661617
vt 0.968705 0.312082
vt 0.933947 0.714196
vt 0.968705 0.360277
vt 0.933947 0.766774
vt 0.968705 0.408473
vt 0.971949 0.381580
vt 0.971949 0.336747
vt 0.421298 0.334144
vt 0.421298 0.352834
vt 0.971949 0.426414
vt 0.421298 0.371525
vt 0.971949 0.471248
vt 0.421298 0.390215
vt 0.971949 0.516081
vt 0.421298 0.408906
vt 0.971949 0.560915
vt 0.421298 0.427596
vt 0.971949 0.605749
vt 0.421298 0.446287
vt 0.971949 0.650582
vt 0.421298 0.464977
vt 0.971949 0.695416
vt 0.421298 0.483668
vt 0.971949 0.022911
vt 0.421298 0.502358
vt 0.971949 0.067744
vt 0.421298 0.222001
vt 0.971949 0.112578
vt 0.421298 0.240691
vt 0.971949 0.157411
vt 0.421298 0.259382
vt 0.971949 0.202245
vt 0.421298 0.278072
vt 0.971949 0.247079
vt 0.421298 0.296763
vt 0.971949 0.291913
vt 0.421298 0.315453
vt 0.951621 0.401594
vt 0.951621 0.408978
vt 0.587994 0.298880
vt 0.943032 0.401594
vt 0.942536 0.380707
vt 0.942536 0.388090
vt 0.467970 0.267477
vt 0.933947 0.380707
vt 0.715859 0.438936
vt 0.714418 0.431694
vt 0.942536 0.370073
vt 0.726486 0.439293
vt 0.837323 0.414775
vt 0.835883 0.407533
vt 0.825255 0.407176
vt 0.951621 0.390961
vt 0.785391 0.206767
vt 0.779917 0.179247
vt 0.791715 0.238562
vt 0.801700 0.288760
vt 0.806961 0.315205
vt 0.811115 0.336089
vt 0.815623 0.358754
vt 0.821590 0.388751
vt 0.732623 0.406448
vt 0.714468 0.378875
vt 0.722814 0.353653
vt 0.705806 0.335326
vt 0.726065 0.303805
vt 0.690561 0.258683
vt 0.702423 0.223271
vt 0.678762 0.199368
vt 0.718934 0.136995
vt 0.827641 0.683502
vt 0.876217 0.663382
vt 0.775063 0.683503
vt 0.726487 0.663382
vt 0.689308 0.626203
vt 0.669187 0.577627
vt 0.669187 0.525048
vt 0.689308 0.476472
vt 0.876217 0.439294
vt 0.913396 0.476472
vt 0.933517 0.525048
vt 0.933517 0.577627
vt 0.913396 0.626203
vt 0.904829 0.623044
vt 0.923192 0.578484
vt 0.923105 0.530289
vt 0.904581 0.485796
vt 0.870441 0.451778
vt 0.825881 0.433415
vt 0.777686 0.433502
vt 0.733192 0.452026
vt 0.699175 0.486167
vt 0.680812 0.530727
vt 0.680899 0.578921
vt 0.699423 0.623415
vt 0.733564 0.657432
vt 0.778123 0.675795
vt 0.826319 0.675708
vt 0.870812 0.657184
vt 0.640192 0.591314
vt 0.637891 0.611365
vt 0.639650 0.571245
vt 0.642266 0.547753
vt 0.641256 0.526993
vt 0.641309 0.505810
vt 0.643963 0.484034
vt 0.649629 0.462659
vt 0.658177 0.443222
vt 0.670372 0.748206
vt 0.656607 0.735088
vt 0.645761 0.717609
vt 0.638798 0.697407
vt 0.635858 0.676197
vt 0.636354 0.655257
vt 0.638585 0.634715
vt 0.574075 0.684573
vt 0.595662 0.653181
vt 0.559836 0.721336
vt 0.556274 0.761952
vt 0.566008 0.803105
vt 0.590675 0.839456
vt 0.613498 0.318765
vt 0.578799 0.348209
vt 0.560376 0.386932
vt 0.556274 0.427418
vt 0.563498 0.465589
vt 0.579220 0.499530
vt 0.600557 0.528826
vt 0.621891 0.555243
vt 0.628289 0.590882
vt 0.618582 0.626102
vt 0.972234 0.516081
vt 0.370886 0.683988
vt 0.962500 0.312082
vt 0.332020 0.710904
vt 0.972234 0.560915
vt 0.313577 0.755431
vt 0.972234 0.605749
vt 0.313577 0.803626
vt 0.972234 0.650583
vt 0.332020 0.848152
vt 0.972234 0.695416
vt 0.366100 0.882232
vt 0.972234 0.022911
vt 0.972234 0.740250
vt 0.962500 0.794034
vt 0.410626 0.900675
vt 0.972234 0.067744
vt 0.975194 0.740250
vt 0.458821 0.900675
vt 0.965460 0.794034
vt 0.972234 0.112578
vt 0.503348 0.882232
vt 0.972234 0.157411
vt 0.537427 0.848153
vt 0.972234 0.202245
vt 0.555871 0.803626
vt 0.972234 0.247079
vt 0.555871 0.755431
vt 0.972234 0.291913
vt 0.537427 0.710904
vt 0.972234 0.336747
vt 0.503348 0.676825
vt 0.972234 0.381580
vt 0.458821 0.658381
vt 0.972234 0.426414
vt 0.410626 0.658382
vt 0.429887 0.502358
vt 0.550228 0.138723
vt 0.421298 0.203310
vt 0.496994 0.059070
vt 0.514261 0.051916
vt 0.483779 0.072287
vt 0.476628 0.089555
vt 0.476630 0.108246
vt 0.483784 0.125513
vt 0.497001 0.138728
vt 0.514270 0.145879
vt 0.532960 0.145878
vt 0.563443 0.125506
vt 0.570594 0.108238
vt 0.570592 0.089547
vt 0.563438 0.072280
vt 0.550220 0.059065
vt 0.532952 0.051914
vt 0.077329 0.882232
vt 0.965745 0.553058
vt 0.050413 0.843366
vt 0.968989 0.291913
vt 0.965745 0.601253
vt 0.033256 0.801945
vt 0.965745 0.649449
vt 0.033256 0.757111
vt 0.965745 0.697644
vt 0.050413 0.715691
vt 0.965745 0.745839
vt 0.082115 0.683989
vt 0.965745 0.022911
vt 0.965745 0.794034
vt 0.968989 0.740250
vt 0.123536 0.666831
vt 0.965745 0.071106
vt 0.529797 0.272912
vt 0.968705 0.794034
vt 0.168370 0.666832
vt 0.617301 0.238939
vt 0.971949 0.740250
vt 0.965745 0.119301
vt 0.209791 0.683989
vt 0.965745 0.167497
vt 0.241493 0.715691
vt 0.965745 0.215691
vt 0.258650 0.757112
vt 0.965745 0.263887
vt 0.258650 0.801946
vt 0.965745 0.312082
vt 0.241493 0.843366
vt 0.965745 0.360277
vt 0.209791 0.875069
vt 0.965745 0.408473
vt 0.168370 0.892226
vt 0.965745 0.456668
vt 0.123536 0.892226
vt 0.656940 0.083370
vt 0.675304 0.127930
vt 0.617300 0.047858
vt 0.575879 0.030701
vt 0.675217 0.176124
vt 0.649003 0.079561
vt 0.656693 0.220618
vt 0.666160 0.120982
vt 0.622552 0.254635
vt 0.666160 0.165815
vt 0.577992 0.272999
vt 0.649003 0.207236
vt 0.485304 0.254388
vt 0.575880 0.256096
vt 0.451286 0.220247
vt 0.531047 0.256096
vt 0.432923 0.175687
vt 0.489626 0.238939
vt 0.433010 0.127492
vt 0.457923 0.207237
vt 0.451534 0.082999
vt 0.440766 0.165816
vt 0.485675 0.048981
vt 0.440766 0.120983
vt 0.530235 0.030618
vt 0.457923 0.079561
vt 0.578430 0.030705
vt 0.489625 0.047859
vt 0.622923 0.049229
vt 0.531045 0.030702
vt 0.668839 0.427344
vt 0.629708 0.863216
vt 0.933947 0.388090
vt 0.466529 0.274719
vt 0.476212 0.279116
vt 0.933947 0.398724
vt 0.589435 0.291638
vt 0.943032 0.408978
vt 0.579753 0.287241
vt 0.943032 0.419612
vt 0.537503 0.499646
vt 0.532028 0.527166
vt 0.543827 0.467852
vt 0.553812 0.417654
vt 0.559072 0.391208
vt 0.563226 0.370324
vt 0.567735 0.347660
vt 0.573702 0.317663
vt 0.484734 0.299966
vt 0.466580 0.327539
vt 0.474926 0.352760
vt 0.457917 0.371087
vt 0.478177 0.402609
vt 0.442672 0.447731
vt 0.454535 0.483143
vt 0.430874 0.507046
vt 0.471045 0.569419
vt 0.579753 0.022911
vt 0.628329 0.043032
vt 0.527174 0.022911
vt 0.478598 0.043032
vt 0.441419 0.080211
vt 0.421298 0.128787
vt 0.421298 0.181365
vt 0.441419 0.229941
vt 0.628329 0.267120
vt 0.665508 0.229942
vt 0.685629 0.181365
vt 0.685629 0.128786
vt 0.665508 0.080210
vt 0.951621 0.726197
vt 0.933947 0.022911
vt 0.942536 0.766774
vt 0.943032 0.022911
vn 0.000000 -1.000000 -0.000000
vn 0.000000 -1.000000 -0.000000
vn 0.000000 -1.000000 -0.000000
vn 0.000000 -1.000000 -0.000000
vn 0.000000 -1.000000 0.000000
vn 0.000000 -1.000000 0.000000
vn 0.000000 -1.000000 0.000000
vn 0.000000 -1.000000 0.000000
vn 0.000000 -1.000000 0.000000
vn 0.000000 -1.000000 0.000000
vn 0.000000 -1.000000 0.000000
vn 0.000000 -1.000000 0.000000
vn 0.000000 -1.000000 0.000000
vn 0.000000 -1.000000 0.000000
vn 0.000000 -1.000000 0.000000
vn 0.000000 -1.000000 0.000000
vn 0.000000 -1.000000 0.000000
vn 0.000000 -1.000000 0.000000
vn 0.000000 -1.000000 0.000000
vn 0.000000 -1.000000 0.000000
vn 0.000000 -1.000000 0.000000
vn 0.000000 -1.000000 0.000000
vn 0.000000 -1.000000 0.000000
vn 0.000000 -1.000000 0.000000
vn 0.000000 -1.000000 0.000000
vn 0.000000 -1.000000 0.000000
vn 0.000000 -1.000000 0.000000
vn 0.000000 -1.000000 0.000000
vn 0.000000 -1.000000 0.000000
vn 0.000000 -1.000000 0.000000
vn 0.000000 -1.000000 0.000000
vn 0.000000 -1.000000 0.000000
vn 0.000000 -1.000000 0.000000
vn 0.000000 -1.000000 0.000000
vn 0.000000 -1.000000 0.000000
vn 0.000000 -1.000000 0.000000
vn 0.000000 -1.000000 0.000000
vn 0.000000 -1.000000 0.000000
vn 0.000000 -1.000000 0.000000
vn 0.000000 -1.000000 0.000000
vn 0.000000 -1.000000 0.000000
vn 0.000000 -1.000000 0.000000
vn 0.000000 -1.000000 0.000000
vn 0.000000 -1.000000 0.000000
vn 0.000000 -1.000000 0.000000
vn 0.000000 -1.000000 0.000000
vn 0.000000 -1.000000 0.000000
vn 0.000000 -1.000000 0.000000
vn 0.000000 -1.000000 0.000000
vn 0.000000 -1.000000 0.000000
vn 0.000000 -1.000000 0.000000
vn 0.000000 -1.000000 0.000000
vn 0.000000 -1.000000 0.000000
vn 0.000000 -1.000000 0.000000
vn 0.000000 -1.000000 0.000000
vn 0.000000 -1.000000 0.000000
vn 0.000000 -1.000000 0.000000
vn 0.000000 -1.000000 0.000000
vn 0.000000 -1.000000 0.000000
vn 0.000000 -1.000000 0.000000
vn 0.000000 -1.000000 0.000000
vn 0.000000 -1.000000 0.000000
vn 0.000000 -1.000000 0.000000
vn 0.000000 -1.000000 0.000000
vn 0.000000 -1.000000 0.000000
vn 0.000000 -1.000000 0.000000
vn 0.000000 -1.000000 0.000000
vn 0.000000 -1.000000 0.000000
vn 0.000000 -1.000000 0.000000
vn 0.000000 -1.000000 0.000000
vn 0.000000 -1.000000 0.000000
vn 0.000000 -1.000000 0.000000
vn 0.000000 -1.000000 0.000000
vn 0.000000 -1.000000 0.000000
vn 0.000000 -1.000000 0.000000
vn 0.000000 -1.000000 -0.000000
vn 0.000000 -1.000000 -0.000000
vn 0.000000 -1.000000 0.000000
vn 0.000000 -1.000000 0.000000
vn 0.000000 -1.000000 0.000000
vn 0.000000 -1.000000 0.000000
vn 0.000000 -1.000000 0.000000
vn 0.000000 -1.000000 0.000000
vn 0.000000 -1.000000 0.000000
vn 0.000000 -1.000000 0.000000
vn 0.000000 -1.000000 0.000000
vn 0.000000 -1.000000 0.000000
vn 0.000000 -1.000000 0.000000
vn 0.000000 -1.000000 0.000000
vn 0.000000 -1.000000 0.000000
vn 0.000000 -1.000000 0.000000
vn 0.000000 -1.000000 0.000000
vn 0.000000 -1.000000 0.000000
vn 0.000000 -1.000000 0.000000
vn 0.000000 -1.000000 0.000000
vn 0.000000 -1.000000 0.000000
vn 0.000000 -1.000000 0.000000
vn 0.000000 -1.000000 -0.000000
vn 0.000000 -1.000000 -0.000000
vn 0.000000 -1.000000 -0.000000
vn 0.000000 -1.000000 -0.000000
vn 0.000000 -1.000000 -0.000000
vn 0.000000 -1.000000 -0.000000
vn 0.000000 -1.000000 0.000000
vn 0.000000 -1.000000 0.000000
vn 0.000000 -1.000000 -0.000000
vn 0.000000 -1.000000 -0.000000
vn 0.000000 -1.000000 -0.000000
vn 0.000000 -1.000000 -0.000000
vn 0.000000 -1.000000 0.000000
vn 0.000000 -1.000000 0.000000
vn 0.000000 -1.000000 0.000000
vn 0.000000 -1.000000 0.000000
vn 0.000000 -1.000000 0.000000
vn 0.000000 -1.000000 0.000000
vn 0.000000 -1.000000 0.000000
vn 0.000000 -1.000000 0.000000
vn 0.000000 -1.000000 0.000000
vn 0.000000 -1.000000 0.000000
vn 0.000000 -1.000000 0.000000
vn 0.000000 -1.000000 0.000000
vn 0.000000 -1.000000 0.000000
vn 0.000000 -1.000000 0.000000
vn 0.000000 -1.000000 0.000000
vn 0.000000 -1.000000 0.000000
vn 0.000000 -1.000000 0.000000
vn 0.000000 -1.000000 0.000000
vn 0.000000 -1.000000 0.000000
vn 0.000000 -1.000000 0.000000
vn 0.000000 -1.000000 0.000000
vn 0.000000 -1.000000 0.000000
vn 0.000000 -1.000000 0.000000
vn 0.000000 -1.000000 -0.000000
vn 0.000000 -1.000000 0.000000
vn 0.000000 -1.000000 -0.000000
vn 0.000000 -1.000000 -0.000000
vn 0.000000 -1.000000 0.000000
vn 0.000000 -1.000000 0.000000
vn 0.000000 -1.000000 0.000000
vn 0.000000 -1.000000 0.000000
vn 0.000000 -1.000000 0.000000
vn 0.000000 -1.000000 0.000000
vn 0.000000 -1.000000 0.000000
vn 0.000000 -1.000000 0.000000
vn 0.000000 -1.000000 0.000000
vn 0.000000 -1.000000 0.000000
vn 0.000000 -1.000000 -0.000000
vn 0.000000 -1.000000 -0.000000
vn 0.000000 -1.000000 -0.000000
vn 0.000000 -1.000000 -0.000000
vn 0.000000 -1.000000 -0.000000
vn 0.000000 -1.000000 -0.000000
vn 0.000000 -1.000000 -0.000000
vn 0.000000 -1.000000 -0.000000
vn 0.000000 -1.000000 -0.000000
vn 0.000000 -1.000000 -0.000000
vn 0.000000 -1.000000 -0.000000
vn 0.000000 -1.000000 0.000000
vn 0.000000 -1.000000 0.000000
vn 0.000000 -1.000000 -0.000000
vn 0.000000 -1.000000 -0.000000
vn 0.000000 -1.000000 -0.000000
vn 0.000000 -1.000000 0.000000
vn 0.000000 -1.000000 0.000000
vn 0.000000 1.000000 -0.000000
vn 0.000000 1.000000 -0.000000
vn 0.000000 1.000000 -0.000000
vn 0.000000 1.000000 -0.000000
vn 0.000000 1.000000 0.000000
vn 0.000000 1.000000 0.000000
vn 0.000000 1.000000 0.000000
vn 0.000000 1.000000 0.000000
vn 0.000000 1.000000 0.000000
vn 0.000000 1.000000 0.000000
vn 0.000000 1.000000 0.000000
vn 0.000000 1.000000 0.000000
vn 0.000000 1.000000 0.000000
vn 0.000000 1.000000 0.000000
vn 0.000000 1.000000 0.000000
vn 0.000000 1.000000 0.000000
vn 0.000000 1.000000 0.000000
vn 0.000000 1.000000 0.000000
vn 0.000000 1.000000 0.000000
vn 0.000000 1.000000 0.000000
vn 0.000000 1.000000 0.000000
vn 0.000000 1.000000 0.000000
vn 0.000000 1.000000 0.000000
vn 0.000000 1.000000 0.000000
vn 0.000000 1.000000 0.000000
vn 0.000000 1.000000 0.000000
vn 0.000000 1.000000 0.000000
vn 0.000000 1.000000 0.000000
vn 0.000000 1.000000 0.000000
vn 0.000000 1.000000 0.000000
vn 0.000000 1.000000 0.000000
vn 0.000000 1.000000 0.000000
vn 0.000000 1.000000 0.000000
vn 0.000000 1.000000 0.000000
vn 0.000000 1.000000 0.000000
vn 0.000000 1.000000 0.000000
vn 0.000000 1.000000 0.000000
vn 0.000000 1.000000 0.000000
vn 0.000000 1.000000 0.000000
vn 0.000000 1.000000 0.000000
vn 0.000000 1.000000 0.000000
vn 0.000000 1.000000 0.000000
vn 0.000000 1.000000 0.000000
vn 0.000000 1.000000 0.000000
vn 0.000000 1.000000 0.000000
vn 0.000000 1.000000 0.000000
vn 0.000000 1.000000 0.000000
vn 0.000000 1.000000 0.000000
vn 0.000000 1.000000 0.000000
vn 0.000000 1.000000 0.000000
vn 0.000000 1.000000 0.000000
vn 0.000000 1.000000 0.000000
vn 0.000000 1.000000 0.000000
vn 0.000000 1.000000 0.000000
vn 0.000000 1.000000 0.000000
vn 0.000000 1.000000 0.000000
vn 0.000000 1.000000 0.000000
vn 0.000000 1.000000 0.000000
vn 0.000000 1.000000 0.000000
vn 0.000000 1.000000 0.000000
vn 0.000000 1.000000 0.000000
vn 0.000000 1.000000 0.000000
vn 0.000000 1.000000 0.000000
vn 0.000000 1.000000 0.000000
vn 0.000000 1.000000 0.000000
vn 0.000000 1.000000 0.000000
vn 0.000000 1.000000 0.000000
vn 0.000000 1.000000 0.000000
vn 0.000000 1.000000 0.000000
vn 0.000000 1.000000 0.000000
vn 0.000000 1.000000 0.000000
vn 0.000000 1.000000 0.000000
vn 0.000000 1.000000 0.000000
vn 0.000000 1.000000 -0.000000
vn 0.000000 1.000000 -0.000000
vn 0.000000 1.000000 0.000000
vn 0.000000 1.000000 0.000000
vn 0.000000 1.000000 0.000000
vn 0.000000 1.000000 0.000000
vn 0.000000 1.000000 -0.000000
vn 0.000000 1.000000 -0.000000
vn 0.000000 1.000000 -0.000000
vn 0.000000 1.000000 -0.000000
vn 0.000000 1.000000 0.000000
vn 0.000000 1.000000 0.000000
vn 0.000000 1.000000 0.000000
vn 0.000000 1.000000 0.000000
vn 0.000000 1.000000 0.000000
vn 0.000000 1.000000 0.000000
vn 0.000000 1.000000 0.000000
vn 0.000000 1.000000 0.000000
vn 0.000000 1.000000 0.000000
vn 0.000000 1.000000 0.000000
vn 0.000000 1.000000 0.000000
vn 0.000000 1.000000 0.000000
vn 0.000000 1.000000 0.000000
vn 0.000000 1.000000 0.000000
vn 0.000000 1.000000 0.000000
vn 0.000000 1.000000 0.000000
vn 0.000000 1.000000 0.000000
vn 0.000000 1.000000 0.000000
vn 0.000000 1.000000 -0.000000
vn 0.000000 1.000000 -0.000000
vn 0.000000 1.000000 0.000000
vn 0.000000 1.000000 0.000000
vn 0.000000 1.000000 0.000000
vn 0.000000 1.000000 0.000000
vn 0.000000 1.000000 0.000000
vn 0.000000 1.000000 0.000000
vn 0.000000 1.000000 -0.000000
vn 0.000000 1.000000 0.000000
vn 0.000000 1.000000 -0.000000
vn 0.000000 1.000000 -0.000000
vn 0.000000 1.000000 0.000000
vn 0.000000 1.000000 0.000000
vn 0.000000 1.000000 0.000000
vn 0.000000 1.000000 0.000000
vn 0.000000 1.000000 0.000000
vn 0.000000 1.000000 0.000000
vn 0.000000 1.000000 -0.000000
vn 0.000000 1.000000 0.000000
vn 0.000000 1.000000 0.000000
vn 0.000000 1.000000 0.000000
vn 0.000000 1.000000 0.000000
vn 0.000000 1.000000 0.000000
vn 0.000000 1.000000 0.000000
vn 0.000000 1.000000 0.000000
vn 0.000000 1.000000 0.000000
vn 0.000000 1.000000 0.000000
vn 0.000000 1.000000 0.000000
vn 0.000000 1.000000 0.000000
vn 0.000000 1.000000 0.000000
vn 0.000000 1.000000 0.000000
vn 0.000000 1.000000 0.000000
vn 0.000000 1.000000 0.000000
vn 0.000000 1.000000 0.000000
vn 0.000000 1.000000 0.000000
vn 0.000000 1.000000 0.000000
vn 0.000000 1.000000 0.000000
vn 0.000000 1.000000 0.000000
vn 0.000000 1.000000 0.000000
vn 0.000000 1.000000 0.000000
vn 0.000000 1.000000 0.000000
vn 0.000000 1.000000 0.000000
vn 0.000000 1.000000 0.000000
vn 0.000000 1.000000 0.000000
vn 0.000000 1.000000 0.000000
vn 0.000000 1.000000 0.000000
vn 0.000000 1.000000 0.000000
vn 0.000000 1.000000 0.000000
vn 0.000000 1.000000 0.000000
vn 0.000000 1.000000 0.000000
vn 0.000000 1.000000 0.000000
vn 0.000000 1.000000 0.000000
vn 0.000000 1.000000 -0.000000
vn 0.000000 1.000000 -0.000000
vn 0.000000 1.000000 -0.000000
vn 0.000000 1.000000 -0.000000
vn 0.000000 1.000000 -0.000000
vn 0.000000 1.000000 -0.000000
vn 0.000000 1.000000 -0.000000
vn 0.000000 1.000000 0.000000
vn 0.000000 1.000000 0.000000
vn 0.000000 1.000000 0.000000
vn 0.000000 0.000000 -1.000000
vn 0.000000 0.000000 -1.000000
vn 0.000000 0.000000 -1.000000
vn 0.000000 0.000000 -1.000000
vn 0.000000 0.000000 -1.000000
vn 0.000000 0.000000 -1.000000
vn 0.000000 0.000000 -1.000000
vn 0.000000 0.000000 -1.000000
vn 0.000000 0.000000 -1.000000
vn 0.000000 0.000000 -1.000000
vn 0.000000 0.000000 -1.000000
vn 0.000000 0.000000 -1.000000
vn 0.000000 0.000000 -1.000000
vn 0.000000 0.000000 -1.000000
vn 0.000000 0.000000 -1.000000
vn 0.000000 0.000000 -1.000000
vn 0.000000 0.000000 -1.000000
vn 0.000000 0.000000 -1.000000
vn 0.000000 0.000000 -1.000000
vn 0.000000 0.000000 -1.000000
vn 0.000000 0.000000 -1.000000
vn 0.000000 0.000000 -1.000000
vn 0.000000 0.000000 -1.000000
vn 0.000000 0.000000 -1.000000
vn 0.000000 0.000000 -1.000000
vn 0.000000 0.000000 -1.000000
vn 0.000000 0.000000 -1.000000
vn 0.000000 0.000000 -1.000000
vn 0.000000 0.000000 -1.000000
vn 0.000000 0.000000 -1.000000
vn 0.000000 0.000000 -1.000000
vn 0.000000 0.000000 -1.000000
vn 0.000000 0.000000 -1.000000
vn 0.000000 0.000000 -1.000000
vn 0.000000 0.000000 -1.000000
vn 0.000000 0.000000 -1.000000
vn -0.695082 0.000000 -0.718931
vn -0.695082 0.000000 -0.718931
vn -0.695082 0.000000 -0.718931
vn -0.695082 0.000000 -0.718931
vn -0.695082 0.000000 0.718930
vn -0.695082 0.000000 0.718930
vn -0.695082 0.000000 0.718930
vn -0.695082 0.000000 0.718930
vn 0.551338 0.000000 0.834282
vn 0.551338 0.000000 0.834282
vn 0.551338 0.000000 0.834282
vn 0.551338 0.000000 0.834282
vn -0.496521 0.000000 0.868025
vn -0.496521 0.000000 0.868025
vn -0.496521 0.000000 0.868025
vn -0.496521 0.000000 0.868025
vn 0.453176 0.000000 0.891421
vn 0.453176 0.000000 0.891421
vn 0.453176 0.000000 0.891421
vn 0.453176 0.000000 0.891421
vn -0.694400 0.000000 0.719589
vn -0.694400 0.000000 0.719589
vn -0.694400 0.000000 0.719589
vn -0.694400 0.000000 0.719589
vn 0.524161 0.000000 0.851619
vn 0.524161 0.000000 0.851619
vn 0.524161 0.000000 0.851619
vn 0.524161 0.000000 0.851619
vn -0.493326 0.000000 0.869845
vn -0.493326 0.000000 0.869845
vn -0.493326 0.000000 0.869845
vn -0.493326 0.000000 0.869845
vn 0.376404 0.000000 0.926456
vn 0.376404 0.000000 0.926456
vn 0.376404 0.000000 0.926456
vn 0.376404 0.000000 0.926456
vn -0.551681 0.000000 0.834056
vn -0.551681 0.000000 0.834056
vn -0.551681 0.000000 0.834056
vn -0.551681 0.000000 0.834056
vn 0.000000 0.000000 1.000000
vn 0.000000 0.000000 1.000000
vn 0.000000 0.000000 1.000000
vn 0.000000 0.000000 1.000000
vn -0.831468 0.000000 0.555572
vn -0.707108 0.000000 0.707106
vn -0.707108 0.000000 0.707106
vn -0.831468 0.000000 0.555572
vn -0.382685 0.000000 0.923879
vn -0.382685 0.000000 0.923879
vn -0.000000 0.000000 1.000000
vn -0.000000 0.000000 1.000000
vn 0.382683 0.000000 0.923880
vn 0.382683 0.000000 0.923880
vn 0.707105 0.000000 0.707108
vn 0.707105 0.000000 0.707108
vn 0.923880 0.000000 0.382683
vn 0.923880 0.000000 0.382683
vn 1.000000 0.000000 -0.000000
vn 1.000000 0.000000 -0.000000
vn 0.923880 0.000000 -0.382683
vn 0.923880 0.000000 -0.382683
vn 0.707108 0.000000 -0.707106
vn 0.707108 0.000000 -0.707106
vn 0.382684 0.000000 -0.923879
vn 0.382684 0.000000 -0.923879
vn 0.000001 0.000000 -1.000000
vn 0.000001 0.000000 -1.000000
vn -0.382685 0.000000 -0.923879
vn -0.382685 0.000000 -0.923879
vn -0.707108 0.000000 -0.707106
vn -0.707108 0.000000 -0.707106
vn -0.831468 0.000000 -0.555572
vn -0.831468 0.000000 -0.555572
vn -0.705888 0.000000 0.708324
vn -0.923215 0.000000 0.384285
vn -0.923215 0.000000 0.384285
vn -0.705888 0.000000 0.708324
vn -0.999999 0.000000 0.001711
vn -0.999999 0.000000 0.001711
vn -0.924538 0.000000 -0.381090
vn -0.924538 0.000000 -0.381090
vn -0.708324 0.000000 -0.705887
vn -0.708324 0.000000 -0.705887
vn -0.384270 0.000000 -0.923221
vn -0.384270 0.000000 -0.923221
vn -0.001719 0.000000 -0.999999
vn -0.001719 0.000000 -0.999999
vn 0.381092 0.000000 -0.924537
vn 0.381092 0.000000 -0.924537
vn 0.705888 0.000000 -0.708323
vn 0.705888 0.000000 -0.708323
vn 0.923220 0.000000 -0.384273
vn 0.923220 0.000000 -0.384273
vn 0.999999 0.000000 -0.001725
vn 0.999999 0.000000 -0.001725
vn 0.924538 0.000000 0.381090
vn 0.924538 0.000000 0.381090
vn 0.708323 0.000000 0.705888
vn 0.708323 0.000000 0.705888
vn 0.384273 0.000000 0.923220
vn 0.384273 0.000000 0.923220
vn 0.001721 0.000000 0.999999
vn 0.001721 0.000000 0.999999
vn -0.381097 0.000000 0.924535
vn -0.381097 0.000000 0.924535
vn 0.830466 0.000000 -0.557070
vn 0.830466 0.000000 -0.557070
vn 0.830466 0.000000 -0.557070
vn 0.830466 0.000000 -0.557070
vn -0.830465 0.000000 0.557071
vn -0.830465 0.000000 0.557071
vn -0.830465 0.000000 0.557071
vn -0.830465 0.000000 0.557071
vn -0.980431 0.000000 0.196862
vn -0.980431 0.000000 0.196862
vn -0.980431 0.000000 0.196862
vn -0.980431 0.000000 0.196862
vn 0.980433 0.000000 -0.196855
vn 0.980433 0.000000 -0.196855
vn 0.980433 0.000000 -0.196855
vn 0.980433 0.000000 -0.196855
vn -0.981136 0.000000 -0.193321
vn -0.981136 0.000000 -0.193321
vn -0.981136 0.000000 -0.193321
vn -0.981136 0.000000 -0.193321
vn 0.981138 0.000000 0.193311
vn 0.981138 0.000000 0.193311
vn 0.981138 0.000000 0.193311
vn 0.981138 0.000000 0.193311
vn -0.832473 0.000000 -0.554065
vn -0.832473 0.000000 -0.554065
vn -0.832473 0.000000 -0.554065
vn -0.832473 0.000000 -0.554065
vn 0.832467 0.000000 0.554075
vn 0.832467 0.000000 0.554075
vn 0.832467 0.000000 0.554075
vn 0.832467 0.000000 0.554075
vn -0.557068 0.000000 -0.830467
vn -0.557068 0.000000 -0.830467
vn -0.557068 0.000000 -0.830467
vn -0.557068 0.000000 -0.830467
vn 0.557074 0.000000 0.830463
vn 0.557074 0.000000 0.830463
vn 0.557074 0.000000 0.830463
vn 0.557074 0.000000 0.830463
vn -0.196860 0.000000 -0.980432
vn -0.196860 0.000000 -0.980432
vn -0.196860 0.000000 -0.980432
vn -0.196860 0.000000 -0.980432
vn 0.196862 0.000000 0.980431
vn 0.196862 0.000000 0.980431
vn 0.196862 0.000000 0.980431
vn 0.196862 0.000000 0.980431
vn 0.193320 0.000000 -0.981136
vn 0.193320 0.000000 -0.981136
vn 0.193320 0.000000 -0.981136
vn 0.193320 0.000000 -0.981136
vn -0.193320 0.000000 0.981136
vn -0.193320 0.000000 0.981136
vn -0.193320 0.000000 0.981136
vn -0.193320 0.000000 0.981136
vn 0.554065 0.000000 -0.832474
vn 0.554065 0.000000 -0.832474
vn 0.554065 0.000000 -0.832474
vn 0.554065 0.000000 -0.832474
vn -0.554071 0.000000 0.832469
vn -0.554071 0.000000 0.832469
vn -0.554071 0.000000 0.832469
vn -0.554071 0.000000 0.832469
vn 0.830465 0.000000 -0.557071
vn 0.830465 0.000000 -0.557071
vn 0.830465 0.000000 -0.557071
vn 0.830465 0.000000 -0.557071
vn -0.830465 0.000000 0.557070
vn -0.830465 0.000000 0.557070
vn -0.830465 0.000000 0.557070
vn -0.830465 0.000000 0.557070
vn 0.980431 0.000000 -0.196861
vn 0.980431 0.000000 -0.196861
vn 0.980431 0.000000 -0.196861
vn 0.980431 0.000000 -0.196861
vn -0.980431 0.000000 0.196865
vn -0.980431 0.000000 0.196865
vn -0.980431 0.000000 0.196865
vn -0.980431 0.000000 0.196865
vn 0.981136 0.000000 0.193320
vn 0.981136 0.000000 0.193320
vn 0.981136 0.000000 0.193320
vn 0.981136 0.000000 0.193320
vn -0.981135 0.000000 -0.193322
vn -0.981135 0.000000 -0.193322
vn -0.981135 0.000000 -0.193322
vn -0.981135 0.000000 -0.193322
vn 0.832469 0.000000 0.554072
vn 0.832469 0.000000 0.554072
vn 0.832469 0.000000 0.554072
vn 0.832469 0.000000 0.554072
vn -0.832472 0.000000 -0.554067
vn -0.832472 0.000000 -0.554067
vn -0.832472 0.000000 -0.554067
vn -0.832472 0.000000 -0.554067
vn 0.557072 0.000000 0.830464
vn 0.557072 0.000000 0.830464
vn 0.557072 0.000000 0.830464
vn 0.557072 0.000000 0.830464
vn -0.557075 0.000000 -0.830462
vn -0.557075 0.000000 -0.830462
vn -0.557075 0.000000 -0.830462
vn -0.557075 0.000000 -0.830462
vn 0.196862 0.000000 0.980431
vn 0.196862 0.000000 0.980431
vn 0.196862 0.000000 0.980431
vn 0.196862 0.000000 0.980431
vn -0.196861 0.000000 -0.980431
vn -0.196861 0.000000 -0.980431
vn -0.196861 0.000000 -0.980431
vn -0.196861 0.000000 -0.980431
vn -0.193320 0.000000 0.981136
vn -0.193320 0.000000 0.981136
vn -0.193320 0.000000 0.981136
vn -0.193320 0.000000 0.981136
vn 0.193319 0.000000 -0.981136
vn 0.193319 0.000000 -0.981136
vn 0.193319 0.000000 -0.981136
vn 0.193319 0.000000 -0.981136
vn -0.554066 0.000000 0.832473
vn -0.554066 0.000000 0.832473
vn -0.554066 0.000000 0.832473
vn -0.554066 0.000000 0.832473
vn 0.554067 0.000000 -0.832472
vn 0.554067 0.000000 -0.832472
vn 0.554067 0.000000 -0.832472
vn 0.554067 0.000000 -0.832472
vn -0.830465 0.000000 0.557072
vn -0.830465 0.000000 0.557072
vn -0.830465 0.000000 0.557072
vn -0.830465 0.000000 0.557072
vn 0.830466 0.000000 -0.557070
vn 0.830466 0.000000 -0.557070
vn 0.830466 0.000000 -0.557070
vn 0.830466 0.000000 -0.557070
vn 0.980433 0.000000 -0.196855
vn 0.980433 0.000000 -0.196855
vn 0.980433 0.000000 -0.196855
vn 0.980433 0.000000 -0.196855
vn -0.980431 0.000000 0.196862
vn -0.980431 0.000000 0.196862
vn -0.980431 0.000000 0.196862
vn -0.980431 0.000000 0.196862
vn 0.981138 0.000000 0.193311
vn 0.981138 0.000000 0.193311
vn 0.981138 0.000000 0.193311
vn 0.981138 0.000000 0.193311
vn -0.981136 0.000000 -0.193321
vn -0.981136 0.000000 -0.193321
vn -0.981136 0.000000 -0.193321
vn -0.981136 0.000000 -0.193321
vn 0.832467 0.000000 0.554075
vn 0.832467 0.000000 0.554075
vn 0.832467 0.000000 0.554075
vn 0.832467 0.000000 0.554075
vn -0.832473 0.000000 -0.554065
vn -0.832473 0.000000 -0.554065
vn -0.832473 0.000000 -0.554065
vn -0.832473 0.000000 -0.554065
vn 0.557075 0.000000 0.830462
vn 0.557075 0.000000 0.830462
vn 0.557075 0.000000 0.830462
vn 0.557075 0.000000 0.830462
vn -0.557068 0.000000 -0.830467
vn -0.557068 0.000000 -0.830467
vn -0.557068 0.000000 -0.830467
vn -0.557068 0.000000 -0.830467
vn 0.196861 0.000000 0.980431
vn 0.196861 0.000000 0.980431
vn 0.196861 0.000000 0.980431
vn 0.196861 0.000000 0.980431
vn -0.196860 0.000000 -0.980432
vn -0.196860 0.000000 -0.980432
vn -0.196860 0.000000 -0.980432
vn -0.196860 0.000000 -0.980432
vn -0.193320 0.000000 0.981136
vn -0.193320 0.000000 0.981136
vn -0.193320 0.000000 0.981136
vn -0.193320 0.000000 0.981136
vn 0.193320 0.000000 -0.981136
vn 0.193320 0.000000 -0.981136
vn 0.193320 0.000000 -0.981136
vn 0.193320 0.000000 -0.981136
vn -0.554071 0.000000 0.832469
vn -0.554071 0.000000 0.832469
vn -0.554071 0.000000 0.832469
vn -0.554071 0.000000 0.832469
vn 0.554065 0.000000 -0.832474
vn 0.554065 0.000000 -0.832474
vn 0.554065 0.000000 -0.832474
vn 0.554065 0.000000 -0.832474
vn -0.830465 0.000000 0.557070
vn -0.830465 0.000000 0.557070
vn -0.830465 0.000000 0.557070
vn -0.830465 0.000000 0.557070
vn 0.830465 0.000000 -0.557071
vn 0.830465 0.000000 -0.557071
vn 0.830465 0.000000 -0.557071
vn 0.830465 0.000000 -0.557071
vn -0.980431 0.000000 0.196865
vn -0.980431 0.000000 0.196865
vn -0.980431 0.000000 0.196865
vn -0.980431 0.000000 0.196865
vn 0.980431 0.000000 -0.196861
vn 0.980431 0.000000 -0.196861
vn 0.980431 0.000000 -0.196861
vn 0.980431 0.000000 -0.196861
vn -0.981135 0.000000 -0.193322
vn -0.981135 0.000000 -0.193322
vn -0.981135 0.000000 -0.193322
vn -0.981135 0.000000 -0.193322
vn 0.981136 0.000000 0.193320
vn 0.981136 0.000000 0.193320
vn 0.981136 0.000000 0.193320
vn 0.981136 0.000000 0.193320
vn -0.832472 0.000000 -0.554067
vn -0.832472 0.000000 -0.554067
vn -0.832472 0.000000 -0.554067
vn -0.832472 0.000000 -0.554067
vn 0.832469 0.000000 0.554072
vn 0.832469 0.000000 0.554072
vn 0.832469 0.000000 0.554072
vn 0.832469 0.000000 0.554072
vn -0.557075 0.000000 -0.830462
vn -0.557075 0.000000 -0.830462
vn -0.557075 0.000000 -0.830462
vn -0.557075 0.000000 -0.830462
vn 0.557072 0.000000 0.830464
vn 0.557072 0.000000 0.830464
vn 0.557072 0.000000 0.830464
vn 0.557072 0.000000 0.830464
vn -0.196861 0.000000 -0.980431
vn -0.196861 0.000000 -0.980431
vn -0.196861 0.000000 -0.980431
vn -0.196861 0.000000 -0.980431
vn 0.196862 0.000000 0.980431
vn 0.196862 0.000000 0.980431
vn 0.196862 0.000000 0.980431
vn 0.196862 0.000000 0.980431
vn 0.193319 0.000000 -0.981136
vn 0.193319 0.000000 -0.981136
vn 0.193319 0.000000 -0.981136
vn 0.193319 0.000000 -0.981136
vn -0.193320 0.000000 0.981136
vn -0.193320 0.000000 0.981136
vn -0.193320 0.000000 0.981136
vn -0.193320 0.000000 0.981136
vn 0.554067 0.000000 -0.832472
vn 0.554067 0.000000 -0.832472
vn 0.554067 0.000000 -0.832472
vn 0.554067 0.000000 -0.832472
vn -0.554066 0.000000 0.832473
vn -0.554066 0.000000 0.832473
vn -0.554066 0.000000 0.832473
vn -0.554066 0.000000 0.832473
vn 0.000000 -1.000000 0.000000
vn 0.000000 -1.000000 0.000000
vn 0.000000 -1.000000 0.000000
vn 0.000000 -1.000000 0.000000
vn -0.973679 0.000000 -0.227925
vn -0.973679 0.000000 -0.227925
vn -0.973679 0.000000 -0.227925
vn -0.973679 0.000000 -0.227925
vn 0.000000 1.000000 -0.000000
vn 0.000000 1.000000 -0.000000
vn 0.000000 1.000000 -0.000000
vn 0.000000 1.000000 -0.000000
vn 0.973679 0.000000 -0.227925
vn 0.973679 0.000000 -0.227925
vn 0.973679 0.000000 -0.227925
vn 0.973679 0.000000 -0.227925
vn 0.000000 -1.000000 -0.000000
vn 0.000000 -1.000000 -0.000000
vn 0.000000 -1.000000 -0.000000
vn 0.000000 -1.000000 -0.000000
vn 0.973678 0.000000 0.227926
vn 0.973678 0.000000 0.227926
vn 0.973678 0.000000 0.227926
vn 0.973678 0.000000 0.227926
vn 0.000000 1.000000 0.000000
vn 0.000000 1.000000 0.000000
vn 0.000000 1.000000 0.000000
vn 0.000000 1.000000 0.000000
vn -0.973678 0.000000 0.227926
vn -0.973678 0.000000 0.227926
vn -0.973678 0.000000 0.227926
vn -0.973678 0.000000 0.227926
s off
g Llave
usemtl initialShadingGroup
f 205/331/483 180/609/484 179/594/485 197/593/486
f 186/607/487 181/608/488 180/609/489 205/331/490
f 185/606/491 186/607/492 205/331/493 204/338/494
f 204/338/495 205/331/496 197/593/497 196/595/498
f 187/605/499 185/606/500 204/338/501 203/341/502
f 203/341/503 204/338/504 196/595/505 195/596/506
f 184/604/507 187/605/508 203/341/509 202/344/510
f 202/344/511 203/341/512 195/596/513 194/597/514
f 188/603/515 184/604/516 202/344/517 201/347/518
f 201/347/519 202/344/520 194/597/521 193/598/522
f 183/602/523 188/603/524 201/347/525 200/350/526
f 200/350/527 201/347/528 193/598/529 192/599/530
f 189/601/531 183/602/532 200/350/533 199/353/534
f 199/353/535 200/350/536 192/599/537 191/600/538
f 182/355/539 189/601/540 199/353/541 198/356/542
f 198/356/543 199/353/544 191/600/545 190/591/546
s 1
f 171/588/547 182/355/548 198/356/549 170/359/550
f 170/359/550 198/356/551 190/591/552 169/360/553
s 3
f 346/361/554 345/672/555 347/363/556 348/706/557
f 348/706/557 349/704/558 350/366/559 346/361/554
f 349/704/558 351/702/560 352/368/561 350/366/559
f 351/702/560 353/700/562 354/370/563 352/368/561
f 353/700/562 355/698/564 356/372/565 354/370/563
f 355/698/564 357/696/566 358/374/567 356/372/565
f 357/696/566 359/694/568 360/376/569 358/374/567
f 359/694/568 361/692/570 362/378/571 360/376/569
f 361/692/570 363/689/572 364/380/573 362/378/571
f 363/689/572 365/686/574 366/382/575 364/380/573
f 365/686/574 367/682/576 368/384/577 366/382/575
f 367/682/576 369/680/578 370/386/579 368/384/577
f 369/680/578 371/678/580 372/388/581 370/386/579
f 371/678/580 373/676/582 374/390/583 372/388/581
f 373/676/582 375/674/584 376/392/585 374/390/583
f 375/674/584 347/363/556 345/672/555 376/392/585
s 1
f 163/611/586 223/638/587 252/623/588 164/622/589
f 164/622/589 252/623/588 250/624/590 165/621/591
f 165/621/591 250/624/590 248/625/592 166/620/593
f 166/620/593 248/625/592 246/626/594 167/619/595
f 167/619/595 246/626/594 244/627/596 168/618/597
f 168/618/597 244/627/596 242/628/598 169/360/553
f 169/360/553 242/628/598 240/629/599 170/359/550
f 170/359/550 240/629/599 238/630/600 171/588/547
f 171/588/547 238/630/600 236/631/601 172/617/602
f 172/617/602 236/631/601 234/632/603 173/616/604
f 173/616/604 234/632/603 232/633/605 174/615/606
f 174/615/606 232/633/605 230/634/607 175/614/608
f 175/614/608 230/634/607 228/635/609 176/613/610
f 176/613/610 228/635/609 226/636/611 177/612/612
f 177/612/612 226/636/611 224/637/613 178/610/614
f 178/610/614 224/637/613 223/638/587 163/611/586
s 5
f 225/669/615 221/639/616 206/640/617 222/670/618
f 227/668/619 220/641/620 221/639/616 225/669/615
f 229/667/621 219/642/622 220/641/620 227/668/619
f 231/666/623 218/643/624 219/642/622 229/667/621
f 233/665/625 217/644/626 218/643/624 231/666/623
f 235/664/627 216/645/628 217/644/626 233/665/625
f 237/663/629 215/646/630 216/645/628 235/664/627
f 239/662/631 214/647/632 215/646/630 237/663/629
f 241/661/633 213/793/634 214/647/632 239/662/631
f 243/660/635 212/649/636 213/648/634 241/794/633
f 245/659/637 211/650/638 212/649/636 243/660/635
f 247/658/639 210/651/640 211/650/638 245/659/637
f 249/657/641 209/652/642 210/651/640 247/658/639
f 251/655/643 208/653/644 209/652/642 249/657/641
f 253/656/645 207/654/646 208/653/644 251/655/643
f 222/670/618 206/640/617 207/654/646 253/656/645
s off
f 296/454/647 288/803/648 270/804/649 271/819/650
f 277/817/651 296/454/652 271/819/653 272/818/654
f 276/816/655 295/461/656 296/454/657 277/817/658
f 295/461/659 287/805/660 288/803/661 296/454/662
f 278/815/663 294/464/664 295/461/665 276/816/666
f 294/464/667 286/806/668 287/805/669 295/461/670
f 275/814/671 293/467/672 294/464/673 278/815/674
f 293/467/675 285/807/676 286/806/677 294/464/678
f 279/813/679 292/470/680 293/467/681 275/814/682
f 292/470/683 284/808/684 285/807/685 293/467/686
f 274/812/687 291/473/688 292/470/689 279/813/690
f 291/473/691 283/809/692 284/808/693 292/470/694
f 280/811/695 290/476/696 291/473/697 274/812/698
f 290/476/699 282/810/700 283/809/701 291/473/702
f 273/797/703 289/479/704 290/476/705 280/811/706
f 289/479/707 281/480/708 282/810/709 290/476/710
s 6
f 262/481/711 261/482/712 289/479/713 273/797/714
f 261/482/712 260/801/715 281/480/716 289/479/717
s 8
f 377/762/718 378/485/719 379/725/720 380/487/721
f 378/485/719 377/762/718 381/760/722 382/489/723
f 382/489/723 381/760/722 383/758/724 384/491/725
f 384/491/725 383/758/724 385/756/726 386/493/727
f 386/493/727 385/756/726 387/754/728 388/495/729
f 388/495/729 387/754/728 389/752/730 390/497/731
f 390/497/731 389/752/730 391/750/732 392/499/733
f 392/499/733 391/750/732 393/748/734 394/501/735
f 394/501/735 393/748/734 395/744/736 396/503/737
f 396/503/737 395/744/736 397/740/738 398/505/739
f 398/505/739 397/740/738 399/736/740 400/507/741
f 400/507/741 399/736/740 401/734/742 402/509/743
f 402/509/743 401/734/742 403/732/744 404/511/745
f 404/511/745 403/732/744 405/730/746 406/513/747
f 406/513/747 405/730/746 407/727/748 408/515/749
f 408/515/749 407/727/748 380/487/721 379/725/720
s 6
f 254/821/750 255/832/751 343/763/752 314/791/753
f 255/832/751 256/831/754 341/764/755 343/763/752
f 256/831/754 257/830/756 339/767/757 341/764/755
f 257/830/756 258/829/758 337/769/759 339/767/757
f 258/829/758 259/828/760 335/771/761 337/769/759
f 259/828/760 260/801/715 333/773/762 335/771/761
f 260/801/715 261/482/712 331/742/763 333/773/762
f 261/482/712 262/481/711 329/775/764 331/742/763
f 262/481/711 263/827/765 327/777/766 329/775/764
f 263/827/765 264/826/767 325/779/768 327/777/766
f 264/826/767 265/825/769 323/781/770 325/779/768
f 265/825/769 266/824/771 321/783/772 323/781/770
f 266/824/771 267/823/773 319/785/774 321/783/772
f 267/823/773 268/822/775 317/787/776 319/785/774
f 268/822/775 269/820/777 315/789/778 317/787/776
f 269/820/777 254/821/750 314/791/753 315/789/778
s 10
f 316/790/779 313/792/780 297/711/781 312/710/782
f 318/788/783 316/790/779 312/710/782 311/712/784
f 320/786/785 318/788/783 311/712/784 310/713/786
f 322/784/787 320/786/785 310/713/786 309/714/788
f 324/782/789 322/784/787 309/714/788 308/715/790
f 326/780/791 324/782/789 308/715/790 307/716/792
f 328/778/793 326/780/791 307/716/792 306/717/794
f 330/776/795 328/778/793 306/717/794 305/718/796
f 332/745/797 330/776/795 305/718/796 304/708/798
f 334/774/799 332/745/797 304/708/798 303/719/800
f 336/772/801 334/774/799 303/719/800 302/720/802
f 338/770/803 336/772/801 302/720/802 301/721/804
f 340/768/805 338/770/803 301/721/804 300/722/806
f 342/765/807 340/768/805 300/722/806 299/723/808
f 344/766/809 342/765/807 299/723/808 298/724/810
f 313/792/780 344/766/809 298/724/810 297/711/781
s off
f 409/577/811 410/578/812 411/800/813 412/580/814
f 190/357/815 191/354/816 282/477/817 281/802/818
f 191/354/819 192/351/820 283/474/821 282/477/822
f 192/351/823 193/348/824 284/471/825 283/474/826
f 193/348/827 194/345/828 285/468/829 284/471/830
f 194/345/831 195/342/832 286/465/833 285/468/834
f 195/342/835 196/339/836 287/462/837 286/465/838
f 196/339/839 197/334/840 288/455/841 287/462/842
f 197/334/843 179/333/844 270/456/845 288/455/846
f 179/333/847 180/833/848 271/457/849 270/456/850
f 180/332/851 181/336/852 272/459/853 271/834/854
f 181/336/855 186/335/856 277/458/857 272/459/858
f 186/335/859 185/337/860 276/460/861 277/458/862
f 185/337/863 187/340/864 278/463/865 276/460/866
f 187/340/867 184/343/868 275/466/869 278/463/870
f 184/343/871 188/346/872 279/469/873 275/466/874
f 188/346/875 183/349/876 274/472/877 279/469/878
f 183/349/879 189/352/880 280/475/881 274/472/882
f 189/352/883 182/587/884 273/478/885 280/475/886
f 414/581/887 413/582/888 415/795/889 416/584/890
s 11
f 171/358/891 172/409/892 263/531/893 262/798/894
f 172/409/892 173/411/895 264/533/896 263/531/893
f 173/411/895 174/413/897 265/535/898 264/533/896
f 174/413/897 175/415/899 266/537/900 265/535/898
f 175/415/899 176/417/901 267/539/902 266/537/900
f 176/417/901 177/419/903 268/541/904 267/539/902
f 177/419/903 178/835/905 269/543/906 268/541/904
f 178/421/905 163/393/907 254/516/908 269/836/906
f 163/393/907 164/396/909 255/517/910 254/516/908
f 164/396/909 165/398/911 256/520/912 255/517/910
f 165/398/911 166/400/913 257/522/914 256/520/912
f 166/400/913 167/402/915 258/524/916 257/522/914
f 167/402/915 168/404/917 259/526/918 258/524/916
f 168/404/917 169/592/919 260/483/920 259/526/918
s 12
f 207/453/921 206/424/922 297/547/923 298/576/924
f 206/424/922 221/423/925 312/548/926 297/547/923
f 221/423/925 220/427/927 311/550/928 312/548/926
f 220/427/927 219/429/929 310/552/930 311/550/928
f 219/429/929 218/431/931 309/554/932 310/552/930
f 218/431/931 217/433/933 308/556/934 309/554/932
f 217/433/933 216/435/935 307/558/936 308/556/934
f 216/435/935 215/437/937 306/560/938 307/558/936
f 215/437/937 214/439/939 305/562/940 306/560/938
f 214/439/939 213/707/941 304/564/942 305/562/940
f 213/441/941 212/443/943 303/566/944 304/709/942
f 212/443/943 211/445/945 302/568/946 303/566/944
f 211/445/945 210/447/947 301/570/948 302/568/946
f 210/447/947 209/449/949 300/572/950 301/570/948
f 209/449/949 208/451/951 299/574/952 300/572/950
f 208/451/951 207/453/921 298/576/924 299/574/952
s off
f 222/425/953 253/452/954 345/362/955 346/705/956
f 252/395/957 223/394/958 348/364/959 347/673/960
f 223/394/961 224/420/962 349/365/963 348/364/964
f 225/422/965 222/425/966 346/705/967 350/703/968
f 224/420/969 226/418/970 351/367/971 349/365/972
f 227/426/973 225/422/974 350/703/975 352/701/976
f 226/418/977 228/416/978 353/369/979 351/367/980
f 229/428/981 227/426/982 352/701/983 354/699/984
f 228/416/985 230/414/986 355/371/987 353/369/988
f 231/430/989 229/428/990 354/699/991 356/697/992
f 230/414/993 232/412/994 357/373/995 355/371/996
f 233/432/997 231/430/998 356/697/999 358/695/1000
f 232/412/1001 234/410/1002 359/375/1003 357/373/1004
f 235/434/1005 233/432/1006 358/695/1007 360/693/1008
f 234/410/1009 236/408/1010 361/377/1011 359/375/1012
f 237/436/1013 235/434/1014 360/693/1015 362/691/1016
f 236/408/1017 238/407/1018 363/379/1019 361/377/1020
f 239/438/1021 237/436/1022 362/691/1023 364/687/1024
f 238/407/1025 240/690/1026 365/685/1027 363/379/1028
f 241/440/1029 239/438/1030 364/687/1031 366/683/1032
f 240/406/1033 242/405/1034 367/383/1035 365/381/1036
f 243/442/1037 241/688/1038 366/684/1039 368/681/1040
f 242/405/1041 244/403/1042 369/385/1043 367/383/1044
f 245/444/1045 243/442/1046 368/681/1047 370/679/1048
f 244/403/1049 246/401/1050 371/387/1051 369/385/1052
f 247/446/1053 245/444/1054 370/679/1055 372/677/1056
f 246/401/1057 248/399/1058 373/389/1059 371/387/1060
f 249/448/1061 247/446/1062 372/677/1063 374/675/1064
f 248/399/1065 250/397/1066 375/391/1067 373/389/1068
f 251/450/1069 249/448/1070 374/675/1071 376/671/1072
f 250/397/1073 252/395/1074 347/673/1075 375/391/1076
f 253/452/1077 251/450/1078 376/671/1079 345/362/1080
f 314/519/1081 343/518/1082 379/486/1083 378/761/1084
f 344/575/1085 313/546/1086 377/484/1087 380/728/1088
f 313/546/1089 316/545/1090 381/488/1091 377/484/1092
f 315/544/1093 314/519/1094 378/761/1095 382/759/1096
f 316/545/1097 318/549/1098 383/490/1099 381/488/1100
f 317/542/1101 315/544/1102 382/759/1103 384/757/1104
f 318/549/1105 320/551/1106 385/492/1107 383/490/1108
f 319/540/1109 317/542/1110 384/757/1111 386/755/1112
f 320/551/1113 322/553/1114 387/494/1115 385/492/1116
f 321/538/1117 319/540/1118 386/755/1119 388/753/1120
f 322/553/1121 324/555/1122 389/496/1123 387/494/1124
f 323/536/1125 321/538/1126 388/753/1127 390/751/1128
f 324/555/1129 326/557/1130 391/498/1131 389/496/1132
f 325/534/1133 323/536/1134 390/751/1135 392/749/1136
f 326/557/1137 328/559/1138 393/500/1139 391/498/1140
f 327/532/1141 325/534/1142 392/749/1143 394/747/1144
f 328/559/1145 330/561/1146 395/502/1147 393/500/1148
f 329/530/1149 327/532/1150 394/747/1151 396/741/1152
f 330/561/1153 332/746/1154 397/739/1155 395/502/1156
f 331/529/1157 329/530/1158 396/741/1159 398/737/1160
f 332/563/1161 334/565/1162 399/506/1163 397/504/1164
f 333/528/1165 331/743/1166 398/738/1167 400/735/1168
f 334/565/1169 336/567/1170 401/508/1171 399/506/1172
f 335/527/1173 333/528/1174 400/735/1175 402/733/1176
f 336/567/1177 338/569/1178 403/510/1179 401/508/1180
f 337/525/1181 335/527/1182 402/733/1183 404/731/1184
f 338/569/1185 340/571/1186 405/512/1187 403/510/1188
f 339/523/1189 337/525/1190 404/731/1191 406/729/1192
f 340/571/1193 342/573/1194 407/514/1195 405/512/1196
f 341/521/1197 339/523/1198 406/729/1199 408/726/1200
f 342/573/1201 344/575/1202 380/728/1203 407/514/1204
f 343/518/1205 341/521/1206 408/726/1207 379/486/1208
f 169/360/1209 190/591/1210 410/590/1211 409/589/1212
f 190/357/1213 281/802/1214 411/800/1215 410/578/1216
f 281/480/1217 260/801/1218 412/799/1219 411/579/1220
f 260/483/1221 169/592/1222 409/577/1223 412/580/1224
f 182/355/1225 171/588/1226 413/585/1227 414/586/1228
f 171/358/1229 262/798/1230 415/795/1231 413/582/1232
f 262/481/1233 273/797/1234 416/796/1235 415/583/1236
f 273/478/1237 182/587/1238 414/581/1239 416/584/1240
